{"glyphs":{"0":{"ha":612,"x_min":42,"x_max":570,"o":"m 185 0 l 42 143 l 42 829 l 185 972 l 427 972 l 570 829 l 570 143 l 427 0 l 185 0 m 308 197 l 345 197 l 388 239 l 388 517 l 308 197 m 259 144 l 239 174 l 405 714 l 436 697 l 436 215 l 365 144 l 259 144 m 208 56 l 402 56 l 518 172 l 518 804 l 402 920 l 208 920 l 92 804 l 92 172 l 208 56 m 174 285 l 174 761 l 244 831 l 347 831 l 365 802 l 203 269 l 174 285 m 224 470 l 294 776 l 267 776 l 224 733 l 224 470 z "},"1":{"ha":503,"x_min":42,"x_max":461,"o":"m 42 0 l 42 197 l 152 197 l 152 742 l 42 690 l 42 906 l 217 972 l 348 972 l 348 197 l 461 197 l 461 0 l 42 0 m 100 52 l 402 52 l 402 141 l 295 141 l 295 919 l 231 919 l 95 866 l 95 769 l 206 819 l 206 141 l 100 141 l 100 52 z "},"2":{"ha":581,"x_min":42,"x_max":539,"o":"m 42 0 l 42 401 l 185 544 l 301 544 l 343 586 l 343 733 l 301 776 l 280 776 l 238 733 l 238 634 l 42 634 l 42 829 l 185 972 l 396 972 l 539 829 l 539 490 l 396 347 l 280 347 l 238 305 l 238 197 l 539 197 l 539 0 l 42 0 m 97 53 l 481 53 l 481 142 l 187 142 l 187 333 l 257 403 l 369 403 l 486 521 l 486 806 l 370 922 l 214 922 l 97 806 l 97 687 l 187 687 l 187 763 l 257 833 l 326 833 l 397 763 l 397 564 l 325 492 l 214 492 l 97 376 l 97 53 z "},"3":{"ha":594,"x_min":42,"x_max":553,"o":"m 185 0 l 42 143 l 42 331 l 238 331 l 238 239 l 280 197 l 315 197 l 357 239 l 357 345 l 315 388 l 239 388 l 239 583 l 314 583 l 357 630 l 357 733 l 315 776 l 280 776 l 238 733 l 238 641 l 42 641 l 42 829 l 185 972 l 410 972 l 553 829 l 553 530 l 509 486 l 553 441 l 553 143 l 410 0 l 185 0 m 211 56 l 384 56 l 500 172 l 500 413 l 427 485 l 500 559 l 500 804 l 384 920 l 211 920 l 94 804 l 94 688 l 184 688 l 184 761 l 254 831 l 340 831 l 411 761 l 411 603 l 339 531 l 284 531 l 284 442 l 339 442 l 411 370 l 411 215 l 340 144 l 254 144 l 184 215 l 184 285 l 94 285 l 94 172 l 211 56 z "},"4":{"ha":610,"x_min":35,"x_max":575,"o":"m 319 0 l 319 223 l 35 223 l 35 450 l 185 972 l 515 972 l 515 419 l 575 419 l 575 223 l 515 223 l 515 0 l 319 0 m 374 49 l 464 49 l 464 272 l 531 272 l 531 362 l 464 362 l 464 920 l 221 920 l 90 446 l 90 272 l 374 272 l 374 49 m 189 362 l 189 450 l 279 822 l 374 822 l 374 362 l 189 362 m 251 419 l 319 419 l 319 758 l 313 758 l 251 451 l 251 419 z "},"5":{"ha":585,"x_min":42,"x_max":543,"o":"m 185 0 l 42 143 l 42 318 l 238 318 l 238 239 l 280 197 l 305 197 l 347 239 l 347 447 l 305 489 l 287 489 l 227 422 l 42 422 l 42 972 l 540 972 l 540 776 l 238 776 l 238 665 l 258 685 l 400 685 l 543 542 l 543 143 l 400 0 l 185 0 m 215 53 l 374 53 l 490 169 l 490 517 l 374 634 l 265 634 l 206 576 l 185 576 l 185 831 l 486 831 l 486 920 l 97 920 l 97 476 l 208 476 l 274 544 l 330 544 l 401 474 l 401 213 l 330 142 l 258 142 l 183 216 l 183 276 l 94 276 l 94 173 l 215 53 z "},"6":{"ha":592,"x_min":42,"x_max":550,"o":"m 185 0 l 42 143 l 42 829 l 185 972 l 403 972 l 547 829 l 547 681 l 350 681 l 350 733 l 308 776 l 280 776 l 238 733 l 238 638 l 258 658 l 407 658 l 550 515 l 550 143 l 407 0 l 185 0 m 258 144 l 184 216 l 184 419 l 283 516 l 337 516 l 408 446 l 408 214 l 337 144 l 258 144 m 280 197 l 312 197 l 354 239 l 354 419 l 312 462 l 294 462 l 238 406 l 238 239 l 280 197 m 214 54 l 381 54 l 497 171 l 497 489 l 381 606 l 269 606 l 184 522 l 184 761 l 256 831 l 333 831 l 403 761 l 403 722 l 492 722 l 492 804 l 376 920 l 212 920 l 95 804 l 95 173 l 214 54 z "},"7":{"ha":535,"x_min":28,"x_max":493,"o":"m 65 0 l 297 663 l 297 776 l 28 776 l 28 972 l 493 972 l 493 635 l 287 0 l 65 0 m 144 49 l 244 49 l 440 642 l 440 919 l 80 919 l 80 829 l 351 829 l 351 653 l 144 49 z "},"8":{"ha":581,"x_min":42,"x_max":539,"o":"m 185 0 l 42 143 l 42 440 l 104 499 l 42 561 l 42 829 l 185 972 l 396 972 l 539 829 l 539 561 l 476 498 l 539 440 l 539 143 l 396 0 l 185 0 m 256 144 l 185 214 l 185 384 l 257 455 l 325 455 l 397 384 l 397 214 l 326 144 l 256 144 m 213 55 l 370 55 l 486 171 l 486 421 l 406 499 l 486 580 l 486 802 l 370 918 l 213 918 l 96 802 l 96 580 l 177 500 l 96 421 l 96 171 l 213 55 m 257 544 l 185 617 l 185 759 l 256 829 l 326 829 l 397 759 l 397 617 l 325 544 l 257 544 m 280 197 l 301 197 l 343 239 l 343 358 l 301 401 l 280 401 l 238 358 l 238 239 l 280 197 m 281 597 l 300 597 l 343 643 l 343 733 l 301 776 l 280 776 l 238 733 l 238 643 l 281 597 z "},"9":{"ha":592,"x_min":42,"x_max":550,"o":"m 407 972 l 550 829 l 550 143 l 407 0 l 189 0 l 45 143 l 45 291 l 242 291 l 242 239 l 284 197 l 312 197 l 354 239 l 354 335 l 333 314 l 185 314 l 42 457 l 42 829 l 185 972 l 407 972 m 334 828 l 408 756 l 408 553 l 309 456 l 255 456 l 183 526 l 183 758 l 255 828 l 334 828 m 312 776 l 280 776 l 238 733 l 238 553 l 280 510 l 298 510 l 354 566 l 354 733 l 312 776 m 378 918 l 211 918 l 94 801 l 94 483 l 211 367 l 323 367 l 408 451 l 408 211 l 336 142 l 259 142 l 189 211 l 189 250 l 99 250 l 99 168 l 216 52 l 380 52 l 497 168 l 497 799 l 378 918 z "},"A":{"ha":651,"x_min":69,"x_max":582,"o":"m 69 0 l 69 829 l 213 972 l 439 972 l 582 829 l 582 0 l 386 0 l 386 286 l 265 286 l 265 0 l 69 0 m 125 58 l 214 58 l 214 338 l 440 338 l 440 58 l 529 58 l 529 806 l 413 922 l 241 922 l 125 806 l 125 58 m 265 482 l 386 482 l 386 733 l 344 776 l 308 776 l 265 733 l 265 482 m 214 428 l 214 763 l 284 833 l 369 833 l 440 763 l 440 428 l 214 428 z "},"Á":{"ha":678,"x_min":35,"x_max":643,"o":"m 35 0 l 163 972 l 508 972 l 643 0 l 419 0 l 399 206 l 278 206 l 258 0 l 35 0 m 102 51 l 201 51 l 224 256 l 451 256 l 474 51 l 574 51 l 464 919 l 208 919 l 102 51 m 229 335 l 279 830 l 392 830 l 447 335 l 229 335 m 289 383 l 388 383 l 348 775 l 320 775 l 289 383 m 250 994 l 419 1178 l 619 1178 l 422 994 l 250 994 m 335 1028 l 405 1028 l 525 1144 l 443 1144 l 335 1028 z "},"Ă":{"ha":678,"x_min":35,"x_max":643,"o":"m 35 0 l 163 972 l 508 972 l 643 0 l 419 0 l 399 206 l 278 206 l 258 0 l 35 0 m 102 51 l 201 51 l 224 256 l 451 256 l 474 51 l 574 51 l 464 919 l 208 919 l 102 51 m 229 335 l 279 830 l 392 830 l 447 335 l 229 335 m 289 383 l 388 383 l 348 775 l 320 775 l 289 383 m 253 994 l 175 1072 l 175 1181 l 308 1181 l 308 1128 l 363 1128 l 363 1181 l 496 1181 l 496 1072 l 418 994 l 253 994 m 275 1031 l 397 1031 l 456 1093 l 456 1142 l 399 1142 l 399 1114 l 375 1088 l 297 1088 l 272 1114 l 272 1142 l 215 1142 l 215 1093 l 275 1031 z "},"Ắ":{"ha":651,"x_min":69,"x_max":610,"o":"m 69 0 l 69 829 l 213 972 l 439 972 l 582 829 l 582 0 l 386 0 l 386 286 l 265 286 l 265 0 l 69 0 m 125 58 l 214 58 l 214 338 l 440 338 l 440 58 l 529 58 l 529 806 l 413 922 l 241 922 l 125 806 l 125 58 m 265 482 l 386 482 l 386 733 l 344 776 l 308 776 l 265 733 l 265 482 m 214 428 l 214 763 l 284 833 l 369 833 l 440 763 l 440 428 l 214 428 m 244 994 l 166 1072 l 166 1181 l 299 1181 l 299 1128 l 353 1128 l 353 1181 l 487 1181 l 487 1072 l 409 994 l 244 994 m 266 1031 l 388 1031 l 447 1093 l 447 1142 l 390 1142 l 390 1114 l 366 1088 l 288 1088 l 263 1114 l 263 1142 l 206 1142 l 206 1093 l 266 1031 m 241 1203 l 410 1386 l 610 1386 l 413 1203 l 241 1203 m 326 1236 l 396 1236 l 516 1352 l 434 1352 l 326 1236 z "},"Ặ":{"ha":651,"x_min":69,"x_max":582,"o":"m 69 0 l 69 829 l 213 972 l 439 972 l 582 829 l 582 0 l 386 0 l 386 286 l 265 286 l 265 0 l 69 0 m 125 58 l 214 58 l 214 338 l 440 338 l 440 58 l 529 58 l 529 806 l 413 922 l 241 922 l 125 806 l 125 58 m 265 482 l 386 482 l 386 733 l 344 776 l 308 776 l 265 733 l 265 482 m 214 428 l 214 763 l 284 833 l 369 833 l 440 763 l 440 428 l 214 428 m 253 -188 l 253 -42 l 400 -42 l 400 -188 l 253 -188 m 295 -147 l 356 -147 l 356 -84 l 295 -84 l 295 -147 m 244 994 l 166 1072 l 166 1181 l 299 1181 l 299 1128 l 353 1128 l 353 1181 l 487 1181 l 487 1072 l 409 994 l 244 994 m 266 1031 l 388 1031 l 447 1093 l 447 1142 l 390 1142 l 390 1114 l 366 1088 l 288 1088 l 263 1114 l 263 1142 l 206 1142 l 206 1093 l 266 1031 z "},"Ằ":{"ha":651,"x_min":58,"x_max":582,"o":"m 69 0 l 69 829 l 213 972 l 439 972 l 582 829 l 582 0 l 386 0 l 386 286 l 265 286 l 265 0 l 69 0 m 125 58 l 214 58 l 214 338 l 440 338 l 440 58 l 529 58 l 529 806 l 413 922 l 241 922 l 125 806 l 125 58 m 265 482 l 386 482 l 386 733 l 344 776 l 308 776 l 265 733 l 265 482 m 214 428 l 214 763 l 284 833 l 369 833 l 440 763 l 440 428 l 214 428 m 244 994 l 166 1072 l 166 1181 l 299 1181 l 299 1128 l 353 1128 l 353 1181 l 487 1181 l 487 1072 l 409 994 l 244 994 m 266 1031 l 388 1031 l 447 1093 l 447 1142 l 390 1142 l 390 1114 l 366 1088 l 288 1088 l 263 1114 l 263 1142 l 206 1142 l 206 1093 l 266 1031 m 427 1203 l 256 1203 l 58 1386 l 258 1386 l 427 1203 m 343 1236 l 235 1352 l 153 1352 l 273 1236 l 343 1236 z "},"Ẳ":{"ha":651,"x_min":69,"x_max":582,"o":"m 69 0 l 69 829 l 213 972 l 439 972 l 582 829 l 582 0 l 386 0 l 386 286 l 265 286 l 265 0 l 69 0 m 125 58 l 214 58 l 214 338 l 440 338 l 440 58 l 529 58 l 529 806 l 413 922 l 241 922 l 125 806 l 125 58 m 265 482 l 386 482 l 386 733 l 344 776 l 308 776 l 265 733 l 265 482 m 214 428 l 214 763 l 284 833 l 369 833 l 440 763 l 440 428 l 214 428 m 244 994 l 166 1072 l 166 1181 l 299 1181 l 299 1128 l 353 1128 l 353 1181 l 487 1181 l 487 1072 l 409 994 l 244 994 m 266 1031 l 388 1031 l 447 1093 l 447 1142 l 390 1142 l 390 1114 l 366 1088 l 288 1088 l 263 1114 l 263 1142 l 206 1142 l 206 1093 l 266 1031 m 160 1479 l 379 1479 l 492 1348 l 379 1218 l 210 1218 l 210 1327 l 303 1327 l 324 1348 l 303 1370 l 160 1370 l 160 1479 m 199 1447 l 199 1402 l 324 1402 l 372 1348 l 324 1295 l 249 1295 l 249 1250 l 357 1250 l 445 1348 l 357 1447 l 199 1447 z "},"Ẵ":{"ha":651,"x_min":69,"x_max":582,"o":"m 69 0 l 69 829 l 213 972 l 439 972 l 582 829 l 582 0 l 386 0 l 386 286 l 265 286 l 265 0 l 69 0 m 125 58 l 214 58 l 214 338 l 440 338 l 440 58 l 529 58 l 529 806 l 413 922 l 241 922 l 125 806 l 125 58 m 265 482 l 386 482 l 386 733 l 344 776 l 308 776 l 265 733 l 265 482 m 214 428 l 214 763 l 284 833 l 369 833 l 440 763 l 440 428 l 214 428 m 244 994 l 166 1072 l 166 1181 l 299 1181 l 299 1128 l 353 1128 l 353 1181 l 487 1181 l 487 1072 l 409 994 l 244 994 m 266 1031 l 388 1031 l 447 1093 l 447 1142 l 390 1142 l 390 1114 l 366 1088 l 288 1088 l 263 1114 l 263 1142 l 206 1142 l 206 1093 l 266 1031 m 133 1203 l 133 1297 l 210 1375 l 334 1375 l 373 1336 l 385 1336 l 385 1375 l 519 1375 l 519 1281 l 441 1203 l 317 1203 l 278 1242 l 266 1242 l 266 1203 l 133 1203 m 173 1237 l 230 1237 l 230 1256 l 254 1283 l 293 1283 l 337 1240 l 421 1240 l 481 1301 l 481 1342 l 424 1342 l 424 1322 l 399 1297 l 358 1297 l 315 1339 l 233 1339 l 173 1277 l 173 1237 z "},"Ǎ":{"ha":678,"x_min":35,"x_max":643,"o":"m 35 0 l 163 972 l 508 972 l 643 0 l 419 0 l 399 206 l 278 206 l 258 0 l 35 0 m 102 51 l 201 51 l 224 256 l 451 256 l 474 51 l 574 51 l 464 919 l 208 919 l 102 51 m 229 335 l 279 830 l 392 830 l 447 335 l 229 335 m 289 383 l 388 383 l 348 775 l 320 775 l 289 383 m 248 994 l 92 1192 l 285 1192 l 335 1117 l 386 1192 l 578 1192 l 423 994 l 248 994 m 274 1031 l 395 1031 l 488 1151 l 406 1151 l 351 1073 l 318 1073 l 264 1151 l 183 1151 l 274 1031 z "},"Â":{"ha":678,"x_min":35,"x_max":643,"o":"m 35 0 l 163 972 l 508 972 l 643 0 l 419 0 l 399 206 l 278 206 l 258 0 l 35 0 m 102 51 l 201 51 l 224 256 l 451 256 l 474 51 l 574 51 l 464 919 l 208 919 l 102 51 m 229 335 l 279 830 l 392 830 l 447 335 l 229 335 m 289 383 l 388 383 l 348 775 l 320 775 l 289 383 m 248 1192 l 423 1192 l 578 994 l 386 994 l 335 1069 l 285 994 l 92 994 l 248 1192 m 274 1155 l 183 1035 l 264 1035 l 318 1113 l 351 1113 l 406 1035 l 488 1035 l 395 1155 l 274 1155 z "},"Ấ":{"ha":651,"x_min":69,"x_max":831,"o":"m 69 0 l 69 829 l 213 972 l 439 972 l 582 829 l 582 0 l 386 0 l 386 286 l 265 286 l 265 0 l 69 0 m 125 58 l 214 58 l 214 338 l 440 338 l 440 58 l 529 58 l 529 806 l 413 922 l 241 922 l 125 806 l 125 58 m 265 482 l 386 482 l 386 733 l 344 776 l 308 776 l 265 733 l 265 482 m 214 428 l 214 763 l 284 833 l 369 833 l 440 763 l 440 428 l 214 428 m 239 1192 l 414 1192 l 569 994 l 377 994 l 326 1069 l 276 994 l 83 994 l 239 1192 m 265 1155 l 174 1035 l 255 1035 l 309 1113 l 342 1113 l 397 1035 l 478 1035 l 386 1155 l 265 1155 m 463 1153 l 632 1336 l 831 1336 l 634 1153 l 463 1153 m 547 1186 l 617 1186 l 738 1302 l 656 1302 l 547 1186 z "},"Ậ":{"ha":651,"x_min":69,"x_max":582,"o":"m 69 0 l 69 829 l 213 972 l 439 972 l 582 829 l 582 0 l 386 0 l 386 286 l 265 286 l 265 0 l 69 0 m 125 58 l 214 58 l 214 338 l 440 338 l 440 58 l 529 58 l 529 806 l 413 922 l 241 922 l 125 806 l 125 58 m 265 482 l 386 482 l 386 733 l 344 776 l 308 776 l 265 733 l 265 482 m 214 428 l 214 763 l 284 833 l 369 833 l 440 763 l 440 428 l 214 428 m 253 -188 l 253 -42 l 400 -42 l 400 -188 l 253 -188 m 295 -147 l 356 -147 l 356 -84 l 295 -84 l 295 -147 m 239 1192 l 414 1192 l 569 994 l 377 994 l 326 1069 l 276 994 l 83 994 l 239 1192 m 265 1155 l 174 1035 l 255 1035 l 309 1113 l 342 1113 l 397 1035 l 478 1035 l 386 1155 l 265 1155 z "},"Ầ":{"ha":651,"x_min":69,"x_max":665,"o":"m 69 0 l 69 829 l 213 972 l 439 972 l 582 829 l 582 0 l 386 0 l 386 286 l 265 286 l 265 0 l 69 0 m 125 58 l 214 58 l 214 338 l 440 338 l 440 58 l 529 58 l 529 806 l 413 922 l 241 922 l 125 806 l 125 58 m 265 482 l 386 482 l 386 733 l 344 776 l 308 776 l 265 733 l 265 482 m 214 428 l 214 763 l 284 833 l 369 833 l 440 763 l 440 428 l 214 428 m 239 1192 l 414 1192 l 569 994 l 377 994 l 326 1069 l 276 994 l 83 994 l 239 1192 m 265 1155 l 174 1035 l 255 1035 l 309 1113 l 342 1113 l 397 1035 l 478 1035 l 386 1155 l 265 1155 m 665 1153 l 494 1153 l 297 1336 l 496 1336 l 665 1153 m 581 1186 l 473 1302 l 391 1302 l 511 1186 l 581 1186 z "},"Ẩ":{"ha":651,"x_min":69,"x_max":756,"o":"m 69 0 l 69 829 l 213 972 l 439 972 l 582 829 l 582 0 l 386 0 l 386 286 l 265 286 l 265 0 l 69 0 m 125 58 l 214 58 l 214 338 l 440 338 l 440 58 l 529 58 l 529 806 l 413 922 l 241 922 l 125 806 l 125 58 m 265 482 l 386 482 l 386 733 l 344 776 l 308 776 l 265 733 l 265 482 m 214 428 l 214 763 l 284 833 l 369 833 l 440 763 l 440 428 l 214 428 m 239 1192 l 414 1192 l 569 994 l 377 994 l 326 1069 l 276 994 l 83 994 l 239 1192 m 265 1155 l 174 1035 l 255 1035 l 309 1113 l 342 1113 l 397 1035 l 478 1035 l 386 1155 l 265 1155 m 424 1388 l 642 1388 l 756 1257 l 642 1127 l 473 1127 l 473 1236 l 566 1236 l 587 1257 l 566 1279 l 424 1279 l 424 1388 m 463 1356 l 463 1311 l 587 1311 l 635 1257 l 587 1204 l 513 1204 l 513 1159 l 620 1159 l 708 1257 l 620 1356 l 463 1356 z "},"Ẫ":{"ha":651,"x_min":69,"x_max":582,"o":"m 69 0 l 69 829 l 213 972 l 439 972 l 582 829 l 582 0 l 386 0 l 386 286 l 265 286 l 265 0 l 69 0 m 125 58 l 214 58 l 214 338 l 440 338 l 440 58 l 529 58 l 529 806 l 413 922 l 241 922 l 125 806 l 125 58 m 265 482 l 386 482 l 386 733 l 344 776 l 308 776 l 265 733 l 265 482 m 214 428 l 214 763 l 284 833 l 369 833 l 440 763 l 440 428 l 214 428 m 239 1192 l 414 1192 l 569 994 l 377 994 l 326 1069 l 276 994 l 83 994 l 239 1192 m 265 1155 l 174 1035 l 255 1035 l 309 1113 l 342 1113 l 397 1035 l 478 1035 l 386 1155 l 265 1155 m 133 1214 l 133 1308 l 210 1386 l 334 1386 l 373 1347 l 385 1347 l 385 1386 l 519 1386 l 519 1292 l 441 1214 l 317 1214 l 278 1253 l 266 1253 l 266 1214 l 133 1214 m 173 1248 l 230 1248 l 230 1267 l 254 1294 l 293 1294 l 337 1251 l 421 1251 l 481 1313 l 481 1353 l 424 1353 l 424 1333 l 399 1308 l 358 1308 l 315 1350 l 233 1350 l 173 1288 l 173 1248 z "},"Ȁ":{"ha":651,"x_min":-87,"x_max":582,"o":"m 69 0 l 69 829 l 213 972 l 439 972 l 582 829 l 582 0 l 386 0 l 386 286 l 265 286 l 265 0 l 69 0 m 125 58 l 214 58 l 214 338 l 440 338 l 440 58 l 529 58 l 529 806 l 413 922 l 241 922 l 125 806 l 125 58 m 265 482 l 386 482 l 386 733 l 344 776 l 308 776 l 265 733 l 265 482 m 214 428 l 214 763 l 284 833 l 369 833 l 440 763 l 440 428 l 214 428 m 554 994 l 383 994 l 185 1178 l 385 1178 l 554 994 m 470 1028 l 362 1144 l 280 1144 l 400 1028 l 470 1028 m 282 994 l 110 994 l -87 1178 l 113 1178 l 282 994 m 198 1028 l 90 1144 l 8 1144 l 128 1028 l 198 1028 z "},"Ä":{"ha":651,"x_min":69,"x_max":582,"o":"m 69 0 l 69 829 l 213 972 l 439 972 l 582 829 l 582 0 l 386 0 l 386 286 l 265 286 l 265 0 l 69 0 m 125 58 l 214 58 l 214 338 l 440 338 l 440 58 l 529 58 l 529 806 l 413 922 l 241 922 l 125 806 l 125 58 m 265 482 l 386 482 l 386 733 l 344 776 l 308 776 l 265 733 l 265 482 m 214 428 l 214 763 l 284 833 l 369 833 l 440 763 l 440 428 l 214 428 m 398 1008 l 398 1154 l 545 1154 l 545 1008 l 398 1008 m 109 1008 l 109 1154 l 256 1154 l 256 1008 l 109 1008 m 151 1049 l 213 1049 l 213 1113 l 151 1113 l 151 1049 m 441 1049 l 502 1049 l 502 1113 l 441 1113 l 441 1049 z "},"Ạ":{"ha":651,"x_min":69,"x_max":582,"o":"m 69 0 l 69 829 l 213 972 l 439 972 l 582 829 l 582 0 l 386 0 l 386 286 l 265 286 l 265 0 l 69 0 m 125 58 l 214 58 l 214 338 l 440 338 l 440 58 l 529 58 l 529 806 l 413 922 l 241 922 l 125 806 l 125 58 m 265 482 l 386 482 l 386 733 l 344 776 l 308 776 l 265 733 l 265 482 m 214 428 l 214 763 l 284 833 l 369 833 l 440 763 l 440 428 l 214 428 m 253 -188 l 253 -42 l 400 -42 l 400 -188 l 253 -188 m 295 -147 l 356 -147 l 356 -84 l 295 -84 l 295 -147 z "},"À":{"ha":651,"x_min":58,"x_max":582,"o":"m 69 0 l 69 829 l 213 972 l 439 972 l 582 829 l 582 0 l 386 0 l 386 286 l 265 286 l 265 0 l 69 0 m 125 58 l 214 58 l 214 338 l 440 338 l 440 58 l 529 58 l 529 806 l 413 922 l 241 922 l 125 806 l 125 58 m 265 482 l 386 482 l 386 733 l 344 776 l 308 776 l 265 733 l 265 482 m 214 428 l 214 763 l 284 833 l 369 833 l 440 763 l 440 428 l 214 428 m 427 994 l 256 994 l 58 1178 l 258 1178 l 427 994 m 343 1028 l 235 1144 l 153 1144 l 273 1028 l 343 1028 z "},"Ả":{"ha":651,"x_min":69,"x_max":582,"o":"m 69 0 l 69 829 l 213 972 l 439 972 l 582 829 l 582 0 l 386 0 l 386 286 l 265 286 l 265 0 l 69 0 m 125 58 l 214 58 l 214 338 l 440 338 l 440 58 l 529 58 l 529 806 l 413 922 l 241 922 l 125 806 l 125 58 m 265 482 l 386 482 l 386 733 l 344 776 l 308 776 l 265 733 l 265 482 m 214 428 l 214 763 l 284 833 l 369 833 l 440 763 l 440 428 l 214 428 m 160 1251 l 379 1251 l 492 1120 l 379 990 l 210 990 l 210 1099 l 303 1099 l 324 1120 l 303 1142 l 160 1142 l 160 1251 m 199 1219 l 199 1174 l 324 1174 l 372 1120 l 324 1067 l 249 1067 l 249 1022 l 357 1022 l 445 1120 l 357 1219 l 199 1219 z "},"Ȃ":{"ha":651,"x_min":69,"x_max":582,"o":"m 69 0 l 69 829 l 213 972 l 439 972 l 582 829 l 582 0 l 386 0 l 386 286 l 265 286 l 265 0 l 69 0 m 125 58 l 214 58 l 214 338 l 440 338 l 440 58 l 529 58 l 529 806 l 413 922 l 241 922 l 125 806 l 125 58 m 265 482 l 386 482 l 386 733 l 344 776 l 308 776 l 265 733 l 265 482 m 214 428 l 214 763 l 284 833 l 369 833 l 440 763 l 440 428 l 214 428 m 409 1180 l 487 1102 l 487 994 l 353 994 l 353 1047 l 299 1047 l 299 994 l 166 994 l 166 1102 l 244 1180 l 409 1180 m 387 1143 l 265 1143 l 206 1081 l 206 1032 l 263 1032 l 263 1060 l 287 1087 l 365 1087 l 390 1060 l 390 1032 l 447 1032 l 447 1081 l 387 1143 z "},"Ā":{"ha":651,"x_min":69,"x_max":582,"o":"m 69 0 l 69 829 l 213 972 l 439 972 l 582 829 l 582 0 l 386 0 l 386 286 l 265 286 l 265 0 l 69 0 m 125 58 l 214 58 l 214 338 l 440 338 l 440 58 l 529 58 l 529 806 l 413 922 l 241 922 l 125 806 l 125 58 m 265 482 l 386 482 l 386 733 l 344 776 l 308 776 l 265 733 l 265 482 m 214 428 l 214 763 l 284 833 l 369 833 l 440 763 l 440 428 l 214 428 m 107 994 l 107 1172 l 546 1172 l 546 994 l 107 994 m 162 1042 l 495 1042 l 495 1121 l 162 1121 l 162 1042 z "},"Ą":{"ha":788,"x_min":3,"x_max":794,"o":"m 583 -256 l 469 -125 l 582 0 l 564 0 l 522 206 l 252 206 l 211 0 l 3 0 l 215 972 l 560 972 l 772 0 l 735 0 l 610 -125 l 631 -147 l 794 -147 l 794 -256 l 583 -256 m 600 -224 l 765 -224 l 765 -179 l 619 -179 l 569 -125 l 704 15 l 714 15 l 520 923 l 257 923 l 71 51 l 164 51 l 205 256 l 571 256 l 620 15 l 642 15 l 513 -125 l 600 -224 m 222 335 l 324 836 l 451 836 l 555 335 l 222 335 m 288 383 l 486 383 l 407 775 l 365 775 l 288 383 z "},"Å":{"ha":651,"x_min":69,"x_max":582,"o":"m 69 0 l 69 829 l 213 972 l 439 972 l 582 829 l 582 0 l 386 0 l 386 286 l 265 286 l 265 0 l 69 0 m 125 58 l 214 58 l 214 338 l 440 338 l 440 58 l 529 58 l 529 806 l 413 922 l 241 922 l 125 806 l 125 58 m 265 482 l 386 482 l 386 733 l 344 776 l 308 776 l 265 733 l 265 482 m 214 428 l 214 763 l 284 833 l 369 833 l 440 763 l 440 428 l 214 428 m 263 993 l 194 1060 l 194 1181 l 263 1249 l 390 1249 l 458 1181 l 458 1060 l 390 993 l 263 993 m 281 1029 l 373 1029 l 423 1079 l 423 1165 l 373 1215 l 281 1215 l 230 1165 l 230 1079 l 281 1029 m 304 1080 l 283 1102 l 283 1142 l 304 1164 l 349 1164 l 370 1142 l 370 1102 l 349 1080 l 304 1080 m 320 1110 l 332 1110 l 338 1116 l 338 1127 l 332 1133 l 320 1133 l 315 1127 l 315 1116 l 320 1110 z "},"Ǻ":{"ha":651,"x_min":69,"x_max":610,"o":"m 69 0 l 69 829 l 213 972 l 439 972 l 582 829 l 582 0 l 386 0 l 386 286 l 265 286 l 265 0 l 69 0 m 125 58 l 214 58 l 214 338 l 440 338 l 440 58 l 529 58 l 529 806 l 413 922 l 241 922 l 125 806 l 125 58 m 265 482 l 386 482 l 386 733 l 344 776 l 308 776 l 265 733 l 265 482 m 214 428 l 214 763 l 284 833 l 369 833 l 440 763 l 440 428 l 214 428 m 263 993 l 194 1060 l 194 1181 l 263 1249 l 390 1249 l 458 1181 l 458 1060 l 390 993 l 263 993 m 281 1029 l 373 1029 l 423 1079 l 423 1165 l 373 1215 l 281 1215 l 230 1165 l 230 1079 l 281 1029 m 304 1080 l 283 1102 l 283 1142 l 304 1164 l 349 1164 l 370 1142 l 370 1102 l 349 1080 l 304 1080 m 320 1110 l 332 1110 l 338 1116 l 338 1127 l 332 1133 l 320 1133 l 315 1127 l 315 1116 l 320 1110 m 242 1272 l 411 1455 l 610 1455 l 413 1272 l 242 1272 m 326 1305 l 397 1305 l 517 1421 l 435 1421 l 326 1305 z "},"Ã":{"ha":651,"x_min":69,"x_max":582,"o":"m 69 0 l 69 829 l 213 972 l 439 972 l 582 829 l 582 0 l 386 0 l 386 286 l 265 286 l 265 0 l 69 0 m 125 58 l 214 58 l 214 338 l 440 338 l 440 58 l 529 58 l 529 806 l 413 922 l 241 922 l 125 806 l 125 58 m 265 482 l 386 482 l 386 733 l 344 776 l 308 776 l 265 733 l 265 482 m 214 428 l 214 763 l 284 833 l 369 833 l 440 763 l 440 428 l 214 428 m 133 994 l 133 1089 l 210 1167 l 334 1167 l 373 1128 l 385 1128 l 385 1167 l 519 1167 l 519 1072 l 441 994 l 317 994 l 278 1033 l 266 1033 l 266 994 l 133 994 m 173 1028 l 230 1028 l 230 1048 l 254 1074 l 293 1074 l 337 1031 l 421 1031 l 481 1093 l 481 1133 l 424 1133 l 424 1114 l 399 1088 l 358 1088 l 315 1131 l 233 1131 l 173 1069 l 173 1028 z "},"Æ":{"ha":1322,"x_min":10,"x_max":1220,"o":"m 10 0 l 424 972 l 1220 972 l 1220 776 l 838 776 l 838 589 l 1194 589 l 1194 392 l 838 392 l 838 197 l 1220 197 l 1220 0 l 642 0 l 642 286 l 344 286 l 224 0 l 10 0 m 80 49 l 176 49 l 301 337 l 696 337 l 696 49 l 1177 49 l 1177 138 l 785 138 l 785 447 l 1150 447 l 1150 537 l 785 537 l 785 838 l 1177 838 l 1177 927 l 460 927 l 80 49 m 338 426 l 517 838 l 696 838 l 696 426 l 338 426 m 424 482 l 642 482 l 642 776 l 549 776 l 424 482 z "},"Ǽ":{"ha":1322,"x_min":10,"x_max":1220,"o":"m 10 0 l 424 972 l 1220 972 l 1220 776 l 838 776 l 838 589 l 1194 589 l 1194 392 l 838 392 l 838 197 l 1220 197 l 1220 0 l 642 0 l 642 286 l 344 286 l 224 0 l 10 0 m 80 49 l 176 49 l 301 337 l 696 337 l 696 49 l 1177 49 l 1177 138 l 785 138 l 785 447 l 1150 447 l 1150 537 l 785 537 l 785 838 l 1177 838 l 1177 927 l 460 927 l 80 49 m 338 426 l 517 838 l 696 838 l 696 426 l 338 426 m 424 482 l 642 482 l 642 776 l 549 776 l 424 482 m 576 994 l 745 1178 l 944 1178 l 747 994 l 576 994 m 660 1028 l 731 1028 l 851 1144 l 769 1144 l 660 1028 z "},"B":{"ha":678,"x_min":76,"x_max":608,"o":"m 76 0 l 76 972 l 434 972 l 577 829 l 577 581 l 515 519 l 608 426 l 608 143 l 465 0 l 76 0 m 133 53 l 438 53 l 555 170 l 555 406 l 447 514 l 435 514 l 523 602 l 523 806 l 407 922 l 133 922 l 133 53 m 222 142 l 222 453 l 378 453 l 466 366 l 466 213 l 394 142 l 222 142 m 222 542 l 222 832 l 363 832 l 434 763 l 434 638 l 337 542 l 222 542 m 273 197 l 369 197 l 412 239 l 412 337 l 351 398 l 273 398 l 273 197 m 273 594 l 312 594 l 381 663 l 381 733 l 339 776 l 273 776 l 273 594 z "},"C":{"ha":639,"x_min":63,"x_max":576,"o":"m 206 0 l 63 143 l 63 829 l 206 972 l 433 972 l 576 829 l 576 606 l 380 606 l 380 733 l 338 776 l 301 776 l 259 733 l 259 239 l 301 197 l 338 197 l 380 239 l 380 367 l 576 367 l 576 143 l 433 0 l 206 0 m 232 54 l 407 54 l 523 170 l 523 319 l 434 319 l 434 213 l 363 143 l 276 143 l 205 213 l 205 761 l 276 831 l 363 831 l 434 761 l 434 656 l 523 656 l 523 804 l 407 920 l 232 920 l 116 804 l 116 170 l 232 54 z "},"Ć":{"ha":639,"x_min":63,"x_max":597,"o":"m 206 0 l 63 143 l 63 829 l 206 972 l 433 972 l 576 829 l 576 606 l 380 606 l 380 733 l 338 776 l 301 776 l 259 733 l 259 239 l 301 197 l 338 197 l 380 239 l 380 367 l 576 367 l 576 143 l 433 0 l 206 0 m 232 54 l 407 54 l 523 170 l 523 319 l 434 319 l 434 213 l 363 143 l 276 143 l 205 213 l 205 761 l 276 831 l 363 831 l 434 761 l 434 656 l 523 656 l 523 804 l 407 920 l 232 920 l 116 804 l 116 170 l 232 54 m 228 994 l 397 1178 l 597 1178 l 399 994 l 228 994 m 313 1028 l 383 1028 l 503 1144 l 421 1144 l 313 1028 z "},"Č":{"ha":639,"x_min":63,"x_max":576,"o":"m 206 0 l 63 143 l 63 829 l 206 972 l 433 972 l 576 829 l 576 606 l 380 606 l 380 733 l 338 776 l 301 776 l 259 733 l 259 239 l 301 197 l 338 197 l 380 239 l 380 367 l 576 367 l 576 143 l 433 0 l 206 0 m 232 54 l 407 54 l 523 170 l 523 319 l 434 319 l 434 213 l 363 143 l 276 143 l 205 213 l 205 761 l 276 831 l 363 831 l 434 761 l 434 656 l 523 656 l 523 804 l 407 920 l 232 920 l 116 804 l 116 170 l 232 54 m 226 994 l 70 1192 l 263 1192 l 313 1117 l 364 1192 l 556 1192 l 401 994 l 226 994 m 252 1031 l 373 1031 l 465 1151 l 383 1151 l 329 1073 l 296 1073 l 242 1151 l 160 1151 l 252 1031 z "},"Ç":{"ha":820,"x_min":76,"x_max":743,"o":"m 279 -242 l 279 -133 l 422 -133 l 442 -111 l 422 -90 l 328 -90 l 328 0 l 219 0 l 76 143 l 76 829 l 219 972 l 599 972 l 743 829 l 743 606 l 547 606 l 547 733 l 504 776 l 315 776 l 273 733 l 273 239 l 315 197 l 504 197 l 547 239 l 547 367 l 743 367 l 743 143 l 599 0 l 515 0 l 611 -111 l 498 -242 l 279 -242 m 318 -210 l 476 -210 l 564 -111 l 476 -13 l 447 -13 l 447 54 l 574 54 l 690 170 l 690 319 l 601 319 l 601 213 l 530 143 l 290 143 l 219 213 l 219 761 l 290 831 l 530 831 l 601 761 l 601 656 l 690 656 l 690 804 l 574 920 l 246 920 l 130 804 l 130 170 l 246 54 l 368 54 l 368 -58 l 442 -58 l 491 -111 l 442 -165 l 318 -165 l 318 -210 z "},"Ḉ":{"ha":639,"x_min":63,"x_max":597,"o":"m 206 0 l 63 143 l 63 829 l 206 972 l 433 972 l 576 829 l 576 606 l 380 606 l 380 733 l 338 776 l 301 776 l 259 733 l 259 239 l 301 197 l 338 197 l 380 239 l 380 367 l 576 367 l 576 143 l 433 0 l 206 0 m 232 54 l 407 54 l 523 170 l 523 319 l 434 319 l 434 213 l 363 143 l 276 143 l 205 213 l 205 761 l 276 831 l 363 831 l 434 761 l 434 656 l 523 656 l 523 804 l 407 920 l 232 920 l 116 804 l 116 170 l 232 54 m 166 -278 l 166 -169 l 308 -169 l 329 -147 l 308 -126 l 215 -126 l 215 -17 l 385 -17 l 498 -147 l 385 -278 l 166 -278 m 205 -246 l 363 -246 l 451 -147 l 363 -49 l 255 -49 l 255 -94 l 329 -94 l 378 -147 l 329 -201 l 205 -201 l 205 -246 m 228 994 l 397 1178 l 597 1178 l 399 994 l 228 994 m 313 1028 l 383 1028 l 503 1144 l 421 1144 l 313 1028 z "},"Ĉ":{"ha":639,"x_min":63,"x_max":576,"o":"m 206 0 l 63 143 l 63 829 l 206 972 l 433 972 l 576 829 l 576 606 l 380 606 l 380 733 l 338 776 l 301 776 l 259 733 l 259 239 l 301 197 l 338 197 l 380 239 l 380 367 l 576 367 l 576 143 l 433 0 l 206 0 m 232 54 l 407 54 l 523 170 l 523 319 l 434 319 l 434 213 l 363 143 l 276 143 l 205 213 l 205 761 l 276 831 l 363 831 l 434 761 l 434 656 l 523 656 l 523 804 l 407 920 l 232 920 l 116 804 l 116 170 l 232 54 m 226 1192 l 401 1192 l 556 994 l 364 994 l 313 1069 l 263 994 l 70 994 l 226 1192 m 252 1155 l 160 1035 l 242 1035 l 296 1113 l 329 1113 l 383 1035 l 465 1035 l 373 1155 l 252 1155 z "},"Ċ":{"ha":639,"x_min":63,"x_max":576,"o":"m 206 0 l 63 143 l 63 829 l 206 972 l 433 972 l 576 829 l 576 606 l 380 606 l 380 733 l 338 776 l 301 776 l 259 733 l 259 239 l 301 197 l 338 197 l 380 239 l 380 367 l 576 367 l 576 143 l 433 0 l 206 0 m 232 54 l 407 54 l 523 170 l 523 319 l 434 319 l 434 213 l 363 143 l 276 143 l 205 213 l 205 761 l 276 831 l 363 831 l 434 761 l 434 656 l 523 656 l 523 804 l 407 920 l 232 920 l 116 804 l 116 170 l 232 54 m 240 1008 l 240 1154 l 388 1154 l 388 1008 l 240 1008 m 283 1049 l 344 1049 l 344 1113 l 283 1113 l 283 1049 z "},"D":{"ha":670,"x_min":76,"x_max":594,"o":"m 76 0 l 76 972 l 451 972 l 594 829 l 594 143 l 451 0 l 76 0 m 273 197 l 356 197 l 398 239 l 398 733 l 356 776 l 273 776 l 273 197 m 131 53 l 424 53 l 540 169 l 540 802 l 424 918 l 131 918 l 131 53 m 220 143 l 220 829 l 380 829 l 451 759 l 451 213 l 380 143 l 220 143 z "},"Ǆ":{"ha":1244,"x_min":76,"x_max":1200,"o":"m 76 0 l 76 972 l 451 972 l 594 829 l 594 143 l 451 0 l 76 0 m 273 197 l 356 197 l 398 239 l 398 733 l 356 776 l 273 776 l 273 197 m 131 53 l 424 53 l 540 169 l 540 802 l 424 918 l 131 918 l 131 53 m 220 143 l 220 829 l 380 829 l 451 759 l 451 213 l 380 143 l 220 143 m 791 54 l 1129 54 l 1129 143 l 891 143 l 891 269 l 1127 685 l 1127 920 l 800 920 l 800 831 l 1030 831 l 1030 712 l 791 292 l 791 54 m 733 0 l 733 308 l 971 728 l 971 776 l 746 776 l 746 972 l 1181 972 l 1181 667 l 947 253 l 947 197 l 1181 197 l 1181 0 l 733 0 m 869 994 l 714 1192 l 906 1192 l 957 1117 l 1008 1192 l 1200 1192 l 1044 994 l 869 994 m 896 1031 l 1017 1031 l 1109 1151 l 1027 1151 l 973 1073 l 940 1073 l 885 1151 l 804 1151 l 896 1031 z "},"Ð":{"ha":828,"x_min":-7,"x_max":783,"o":"m 113 0 l 113 390 l -7 390 l -7 568 l 113 568 l 113 972 l 640 972 l 783 829 l 783 143 l 640 0 l 113 0 m 167 53 l 613 53 l 729 169 l 729 802 l 613 918 l 167 918 l 167 518 l 48 518 l 48 438 l 167 438 l 167 53 m 257 143 l 257 438 l 438 438 l 438 518 l 257 518 l 257 829 l 569 829 l 640 759 l 640 213 l 569 143 l 257 143 m 310 197 l 545 197 l 588 239 l 588 733 l 545 776 l 310 776 l 310 568 l 488 568 l 488 390 l 310 390 l 310 197 z "},"Ď":{"ha":670,"x_min":76,"x_max":594,"o":"m 76 0 l 76 972 l 451 972 l 594 829 l 594 143 l 451 0 l 76 0 m 273 197 l 356 197 l 398 239 l 398 733 l 356 776 l 273 776 l 273 197 m 131 53 l 424 53 l 540 169 l 540 802 l 424 918 l 131 918 l 131 53 m 220 143 l 220 829 l 380 829 l 451 759 l 451 213 l 380 143 l 220 143 m 248 994 l 92 1192 l 285 1192 l 335 1117 l 386 1192 l 578 1192 l 423 994 l 248 994 m 274 1031 l 395 1031 l 488 1151 l 406 1151 l 351 1073 l 318 1073 l 264 1151 l 183 1151 l 274 1031 z "},"Đ":{"ha":828,"x_min":-7,"x_max":783,"o":"m 113 0 l 113 390 l -7 390 l -7 568 l 113 568 l 113 972 l 640 972 l 783 829 l 783 143 l 640 0 l 113 0 m 167 53 l 613 53 l 729 169 l 729 802 l 613 918 l 167 918 l 167 518 l 48 518 l 48 438 l 167 438 l 167 53 m 257 143 l 257 438 l 438 438 l 438 518 l 257 518 l 257 829 l 569 829 l 640 759 l 640 213 l 569 143 l 257 143 m 310 197 l 545 197 l 588 239 l 588 733 l 545 776 l 310 776 l 310 568 l 488 568 l 488 390 l 310 390 l 310 197 z "},"Ḍ":{"ha":670,"x_min":76,"x_max":594,"o":"m 76 0 l 76 972 l 451 972 l 594 829 l 594 143 l 451 0 l 76 0 m 273 197 l 356 197 l 398 239 l 398 733 l 356 776 l 273 776 l 273 197 m 131 53 l 424 53 l 540 169 l 540 802 l 424 918 l 131 918 l 131 53 m 220 143 l 220 829 l 380 829 l 451 759 l 451 213 l 380 143 l 220 143 m 262 -188 l 262 -42 l 409 -42 l 409 -188 l 262 -188 m 304 -147 l 365 -147 l 365 -84 l 304 -84 l 304 -147 z "},"Ḏ":{"ha":670,"x_min":76,"x_max":594,"o":"m 76 0 l 76 972 l 451 972 l 594 829 l 594 143 l 451 0 l 76 0 m 273 197 l 356 197 l 398 239 l 398 733 l 356 776 l 273 776 l 273 197 m 131 53 l 424 53 l 540 169 l 540 802 l 424 918 l 131 918 l 131 53 m 220 143 l 220 829 l 380 829 l 451 759 l 451 213 l 380 143 l 220 143 m 116 -226 l 116 -49 l 555 -49 l 555 -226 l 116 -226 m 171 -178 l 504 -178 l 504 -99 l 171 -99 l 171 -178 z "},"ǅ":{"ha":1240,"x_min":76,"x_max":1198,"o":"m 76 0 l 76 972 l 451 972 l 594 829 l 594 143 l 451 0 l 76 0 m 273 197 l 356 197 l 398 239 l 398 733 l 356 776 l 273 776 l 273 197 m 131 53 l 424 53 l 540 169 l 540 802 l 424 918 l 131 918 l 131 53 m 220 143 l 220 829 l 380 829 l 451 759 l 451 213 l 380 143 l 220 143 m 799 55 l 1123 55 l 1123 144 l 911 144 l 911 241 l 1113 490 l 1113 697 l 801 697 l 801 608 l 1003 608 l 1003 508 l 799 255 l 799 55 m 736 0 l 736 267 l 941 526 l 941 553 l 749 553 l 749 750 l 1174 750 l 1174 478 l 974 226 l 974 197 l 1174 197 l 1174 0 l 736 0 m 867 772 l 712 969 l 904 969 l 955 894 l 1006 969 l 1198 969 l 1042 772 l 867 772 m 894 809 l 1015 809 l 1107 928 l 1025 928 l 971 851 l 938 851 l 883 928 l 802 928 l 894 809 z "},"E":{"ha":558,"x_min":69,"x_max":488,"o":"m 69 0 l 69 972 l 488 972 l 488 776 l 266 776 l 266 589 l 440 589 l 440 392 l 266 392 l 266 197 l 488 197 l 488 0 l 69 0 m 124 56 l 441 56 l 441 144 l 214 144 l 214 447 l 392 447 l 392 535 l 214 535 l 214 831 l 441 831 l 441 920 l 124 920 l 124 56 z "},"É":{"ha":558,"x_min":69,"x_max":580,"o":"m 69 0 l 69 972 l 488 972 l 488 776 l 266 776 l 266 589 l 440 589 l 440 392 l 266 392 l 266 197 l 488 197 l 488 0 l 69 0 m 124 56 l 441 56 l 441 144 l 214 144 l 214 447 l 392 447 l 392 535 l 214 535 l 214 831 l 441 831 l 441 920 l 124 920 l 124 56 m 211 994 l 381 1178 l 580 1178 l 383 994 l 211 994 m 296 1028 l 366 1028 l 486 1144 l 404 1144 l 296 1028 z "},"Ĕ":{"ha":558,"x_min":69,"x_max":488,"o":"m 69 0 l 69 972 l 488 972 l 488 776 l 266 776 l 266 589 l 440 589 l 440 392 l 266 392 l 266 197 l 488 197 l 488 0 l 69 0 m 124 56 l 441 56 l 441 144 l 214 144 l 214 447 l 392 447 l 392 535 l 214 535 l 214 831 l 441 831 l 441 920 l 124 920 l 124 56 m 214 994 l 136 1072 l 136 1181 l 269 1181 l 269 1128 l 324 1128 l 324 1181 l 457 1181 l 457 1072 l 379 994 l 214 994 m 236 1031 l 358 1031 l 417 1093 l 417 1142 l 360 1142 l 360 1114 l 336 1088 l 258 1088 l 233 1114 l 233 1142 l 176 1142 l 176 1093 l 236 1031 z "},"Ě":{"ha":558,"x_min":53,"x_max":540,"o":"m 69 0 l 69 972 l 488 972 l 488 776 l 266 776 l 266 589 l 440 589 l 440 392 l 266 392 l 266 197 l 488 197 l 488 0 l 69 0 m 124 56 l 441 56 l 441 144 l 214 144 l 214 447 l 392 447 l 392 535 l 214 535 l 214 831 l 441 831 l 441 920 l 124 920 l 124 56 m 209 994 l 53 1192 l 246 1192 l 297 1117 l 347 1192 l 540 1192 l 384 994 l 209 994 m 235 1031 l 356 1031 l 449 1151 l 367 1151 l 313 1073 l 279 1073 l 225 1151 l 144 1151 l 235 1031 z "},"Ḝ":{"ha":558,"x_min":69,"x_max":488,"o":"m 69 0 l 69 972 l 488 972 l 488 776 l 266 776 l 266 589 l 440 589 l 440 392 l 266 392 l 266 197 l 488 197 l 488 0 l 69 0 m 124 56 l 441 56 l 441 144 l 214 144 l 214 447 l 392 447 l 392 535 l 214 535 l 214 831 l 441 831 l 441 920 l 124 920 l 124 56 m 149 -278 l 149 -169 l 292 -169 l 313 -147 l 292 -126 l 199 -126 l 199 -17 l 368 -17 l 481 -147 l 368 -278 l 149 -278 m 188 -246 l 346 -246 l 434 -147 l 346 -49 l 238 -49 l 238 -94 l 313 -94 l 361 -147 l 313 -201 l 188 -201 l 188 -246 m 214 994 l 136 1072 l 136 1181 l 269 1181 l 269 1128 l 324 1128 l 324 1181 l 457 1181 l 457 1072 l 379 994 l 214 994 m 236 1031 l 358 1031 l 417 1093 l 417 1142 l 360 1142 l 360 1114 l 336 1088 l 258 1088 l 233 1114 l 233 1142 l 176 1142 l 176 1093 l 236 1031 z "},"Ê":{"ha":558,"x_min":53,"x_max":540,"o":"m 69 0 l 69 972 l 488 972 l 488 776 l 266 776 l 266 589 l 440 589 l 440 392 l 266 392 l 266 197 l 488 197 l 488 0 l 69 0 m 124 56 l 441 56 l 441 144 l 214 144 l 214 447 l 392 447 l 392 535 l 214 535 l 214 831 l 441 831 l 441 920 l 124 920 l 124 56 m 209 1192 l 384 1192 l 540 994 l 347 994 l 297 1069 l 246 994 l 53 994 l 209 1192 m 235 1155 l 144 1035 l 225 1035 l 279 1113 l 313 1113 l 367 1035 l 449 1035 l 356 1155 l 235 1155 z "},"Ế":{"ha":558,"x_min":53,"x_max":801,"o":"m 69 0 l 69 972 l 488 972 l 488 776 l 266 776 l 266 589 l 440 589 l 440 392 l 266 392 l 266 197 l 488 197 l 488 0 l 69 0 m 124 56 l 441 56 l 441 144 l 214 144 l 214 447 l 392 447 l 392 535 l 214 535 l 214 831 l 441 831 l 441 920 l 124 920 l 124 56 m 209 1192 l 384 1192 l 540 994 l 347 994 l 297 1069 l 246 994 l 53 994 l 209 1192 m 235 1155 l 144 1035 l 225 1035 l 279 1113 l 313 1113 l 367 1035 l 449 1035 l 356 1155 l 235 1155 m 433 1153 l 602 1336 l 801 1336 l 604 1153 l 433 1153 m 517 1186 l 588 1186 l 708 1302 l 626 1302 l 517 1186 z "},"Ệ":{"ha":558,"x_min":53,"x_max":540,"o":"m 69 0 l 69 972 l 488 972 l 488 776 l 266 776 l 266 589 l 440 589 l 440 392 l 266 392 l 266 197 l 488 197 l 488 0 l 69 0 m 124 56 l 441 56 l 441 144 l 214 144 l 214 447 l 392 447 l 392 535 l 214 535 l 214 831 l 441 831 l 441 920 l 124 920 l 124 56 m 223 -188 l 223 -42 l 370 -42 l 370 -188 l 223 -188 m 265 -147 l 326 -147 l 326 -84 l 265 -84 l 265 -147 m 209 1192 l 384 1192 l 540 994 l 347 994 l 297 1069 l 246 994 l 53 994 l 209 1192 m 235 1155 l 144 1035 l 225 1035 l 279 1113 l 313 1113 l 367 1035 l 449 1035 l 356 1155 l 235 1155 z "},"Ề":{"ha":558,"x_min":53,"x_max":635,"o":"m 69 0 l 69 972 l 488 972 l 488 776 l 266 776 l 266 589 l 440 589 l 440 392 l 266 392 l 266 197 l 488 197 l 488 0 l 69 0 m 124 56 l 441 56 l 441 144 l 214 144 l 214 447 l 392 447 l 392 535 l 214 535 l 214 831 l 441 831 l 441 920 l 124 920 l 124 56 m 209 1192 l 384 1192 l 540 994 l 347 994 l 297 1069 l 246 994 l 53 994 l 209 1192 m 235 1155 l 144 1035 l 225 1035 l 279 1113 l 313 1113 l 367 1035 l 449 1035 l 356 1155 l 235 1155 m 635 1153 l 464 1153 l 267 1336 l 466 1336 l 635 1153 m 551 1186 l 443 1302 l 361 1302 l 481 1186 l 551 1186 z "},"Ể":{"ha":558,"x_min":53,"x_max":726,"o":"m 69 0 l 69 972 l 488 972 l 488 776 l 266 776 l 266 589 l 440 589 l 440 392 l 266 392 l 266 197 l 488 197 l 488 0 l 69 0 m 124 56 l 441 56 l 441 144 l 214 144 l 214 447 l 392 447 l 392 535 l 214 535 l 214 831 l 441 831 l 441 920 l 124 920 l 124 56 m 209 1192 l 384 1192 l 540 994 l 347 994 l 297 1069 l 246 994 l 53 994 l 209 1192 m 235 1155 l 144 1035 l 225 1035 l 279 1113 l 313 1113 l 367 1035 l 449 1035 l 356 1155 l 235 1155 m 394 1388 l 613 1388 l 726 1257 l 613 1127 l 443 1127 l 443 1236 l 536 1236 l 557 1257 l 536 1279 l 394 1279 l 394 1388 m 433 1356 l 433 1311 l 557 1311 l 606 1257 l 557 1204 l 483 1204 l 483 1159 l 590 1159 l 678 1257 l 590 1356 l 433 1356 z "},"Ễ":{"ha":558,"x_min":53,"x_max":540,"o":"m 69 0 l 69 972 l 488 972 l 488 776 l 266 776 l 266 589 l 440 589 l 440 392 l 266 392 l 266 197 l 488 197 l 488 0 l 69 0 m 124 56 l 441 56 l 441 144 l 214 144 l 214 447 l 392 447 l 392 535 l 214 535 l 214 831 l 441 831 l 441 920 l 124 920 l 124 56 m 209 1192 l 384 1192 l 540 994 l 347 994 l 297 1069 l 246 994 l 53 994 l 209 1192 m 235 1155 l 144 1035 l 225 1035 l 279 1113 l 313 1113 l 367 1035 l 449 1035 l 356 1155 l 235 1155 m 103 1214 l 103 1308 l 181 1386 l 304 1386 l 343 1347 l 356 1347 l 356 1386 l 489 1386 l 489 1292 l 411 1214 l 288 1214 l 249 1253 l 236 1253 l 236 1214 l 103 1214 m 143 1248 l 200 1248 l 200 1267 l 224 1294 l 263 1294 l 307 1251 l 391 1251 l 451 1313 l 451 1353 l 394 1353 l 394 1333 l 369 1308 l 328 1308 l 285 1350 l 203 1350 l 143 1288 l 143 1248 z "},"Ȅ":{"ha":558,"x_min":-117,"x_max":524,"o":"m 69 0 l 69 972 l 488 972 l 488 776 l 266 776 l 266 589 l 440 589 l 440 392 l 266 392 l 266 197 l 488 197 l 488 0 l 69 0 m 124 56 l 441 56 l 441 144 l 214 144 l 214 447 l 392 447 l 392 535 l 214 535 l 214 831 l 441 831 l 441 920 l 124 920 l 124 56 m 524 994 l 353 994 l 156 1178 l 355 1178 l 524 994 m 440 1028 l 332 1144 l 250 1144 l 370 1028 l 440 1028 m 252 994 l 81 994 l -117 1178 l 83 1178 l 252 994 m 168 1028 l 60 1144 l -22 1144 l 98 1028 l 168 1028 z "},"Ë":{"ha":558,"x_min":69,"x_max":515,"o":"m 69 0 l 69 972 l 488 972 l 488 776 l 266 776 l 266 589 l 440 589 l 440 392 l 266 392 l 266 197 l 488 197 l 488 0 l 69 0 m 124 56 l 441 56 l 441 144 l 214 144 l 214 447 l 392 447 l 392 535 l 214 535 l 214 831 l 441 831 l 441 920 l 124 920 l 124 56 m 368 1008 l 368 1154 l 515 1154 l 515 1008 l 368 1008 m 79 1008 l 79 1154 l 226 1154 l 226 1008 l 79 1008 m 122 1049 l 183 1049 l 183 1113 l 122 1113 l 122 1049 m 411 1049 l 472 1049 l 472 1113 l 411 1113 l 411 1049 z "},"Ė":{"ha":558,"x_min":69,"x_max":488,"o":"m 69 0 l 69 972 l 488 972 l 488 776 l 266 776 l 266 589 l 440 589 l 440 392 l 266 392 l 266 197 l 488 197 l 488 0 l 69 0 m 124 56 l 441 56 l 441 144 l 214 144 l 214 447 l 392 447 l 392 535 l 214 535 l 214 831 l 441 831 l 441 920 l 124 920 l 124 56 m 224 1008 l 224 1154 l 371 1154 l 371 1008 l 224 1008 m 266 1049 l 327 1049 l 327 1113 l 266 1113 l 266 1049 z "},"Ẹ":{"ha":558,"x_min":69,"x_max":488,"o":"m 69 0 l 69 972 l 488 972 l 488 776 l 266 776 l 266 589 l 440 589 l 440 392 l 266 392 l 266 197 l 488 197 l 488 0 l 69 0 m 124 56 l 441 56 l 441 144 l 214 144 l 214 447 l 392 447 l 392 535 l 214 535 l 214 831 l 441 831 l 441 920 l 124 920 l 124 56 m 223 -188 l 223 -42 l 370 -42 l 370 -188 l 223 -188 m 265 -147 l 326 -147 l 326 -84 l 265 -84 l 265 -147 z "},"È":{"ha":558,"x_min":28,"x_max":488,"o":"m 69 0 l 69 972 l 488 972 l 488 776 l 266 776 l 266 589 l 440 589 l 440 392 l 266 392 l 266 197 l 488 197 l 488 0 l 69 0 m 124 56 l 441 56 l 441 144 l 214 144 l 214 447 l 392 447 l 392 535 l 214 535 l 214 831 l 441 831 l 441 920 l 124 920 l 124 56 m 397 994 l 226 994 l 28 1178 l 228 1178 l 397 994 m 313 1028 l 205 1144 l 123 1144 l 243 1028 l 313 1028 z "},"Ẻ":{"ha":558,"x_min":69,"x_max":488,"o":"m 69 0 l 69 972 l 488 972 l 488 776 l 266 776 l 266 589 l 440 589 l 440 392 l 266 392 l 266 197 l 488 197 l 488 0 l 69 0 m 124 56 l 441 56 l 441 144 l 214 144 l 214 447 l 392 447 l 392 535 l 214 535 l 214 831 l 441 831 l 441 920 l 124 920 l 124 56 m 131 1251 l 349 1251 l 463 1120 l 349 990 l 180 990 l 180 1099 l 273 1099 l 294 1120 l 273 1142 l 131 1142 l 131 1251 m 169 1219 l 169 1174 l 294 1174 l 342 1120 l 294 1067 l 219 1067 l 219 1022 l 327 1022 l 415 1120 l 327 1219 l 169 1219 z "},"Ȇ":{"ha":558,"x_min":69,"x_max":488,"o":"m 69 0 l 69 972 l 488 972 l 488 776 l 266 776 l 266 589 l 440 589 l 440 392 l 266 392 l 266 197 l 488 197 l 488 0 l 69 0 m 124 56 l 441 56 l 441 144 l 214 144 l 214 447 l 392 447 l 392 535 l 214 535 l 214 831 l 441 831 l 441 920 l 124 920 l 124 56 m 379 1180 l 457 1102 l 457 994 l 324 994 l 324 1047 l 269 1047 l 269 994 l 136 994 l 136 1102 l 214 1180 l 379 1180 m 357 1143 l 235 1143 l 176 1081 l 176 1032 l 233 1032 l 233 1060 l 257 1087 l 335 1087 l 360 1060 l 360 1032 l 417 1032 l 417 1081 l 357 1143 z "},"Ē":{"ha":558,"x_min":69,"x_max":516,"o":"m 69 0 l 69 972 l 488 972 l 488 776 l 266 776 l 266 589 l 440 589 l 440 392 l 266 392 l 266 197 l 488 197 l 488 0 l 69 0 m 124 56 l 441 56 l 441 144 l 214 144 l 214 447 l 392 447 l 392 535 l 214 535 l 214 831 l 441 831 l 441 920 l 124 920 l 124 56 m 77 994 l 77 1172 l 516 1172 l 516 994 l 77 994 m 132 1042 l 465 1042 l 465 1121 l 132 1121 l 132 1042 z "},"Ḗ":{"ha":558,"x_min":69,"x_max":580,"o":"m 69 0 l 69 972 l 488 972 l 488 776 l 266 776 l 266 589 l 440 589 l 440 392 l 266 392 l 266 197 l 488 197 l 488 0 l 69 0 m 124 56 l 441 56 l 441 144 l 214 144 l 214 447 l 392 447 l 392 535 l 214 535 l 214 831 l 441 831 l 441 920 l 124 920 l 124 56 m 77 994 l 77 1172 l 516 1172 l 516 994 l 77 994 m 132 1042 l 465 1042 l 465 1121 l 132 1121 l 132 1042 m 211 1194 l 381 1377 l 580 1377 l 383 1194 l 211 1194 m 296 1227 l 366 1227 l 486 1343 l 404 1343 l 296 1227 z "},"Ḕ":{"ha":558,"x_min":28,"x_max":516,"o":"m 69 0 l 69 972 l 488 972 l 488 776 l 266 776 l 266 589 l 440 589 l 440 392 l 266 392 l 266 197 l 488 197 l 488 0 l 69 0 m 124 56 l 441 56 l 441 144 l 214 144 l 214 447 l 392 447 l 392 535 l 214 535 l 214 831 l 441 831 l 441 920 l 124 920 l 124 56 m 77 994 l 77 1172 l 516 1172 l 516 994 l 77 994 m 132 1042 l 465 1042 l 465 1121 l 132 1121 l 132 1042 m 397 1194 l 226 1194 l 28 1377 l 228 1377 l 397 1194 m 313 1227 l 205 1343 l 123 1343 l 243 1227 l 313 1227 z "},"Ę":{"ha":717,"x_min":69,"x_max":648,"o":"m 403 -256 l 290 -125 l 402 0 l 69 0 l 69 972 l 648 972 l 648 776 l 266 776 l 266 589 l 600 589 l 600 392 l 266 392 l 266 197 l 648 197 l 648 0 l 556 0 l 431 -125 l 451 -147 l 615 -147 l 615 -256 l 403 -256 m 417 -224 l 583 -224 l 583 -179 l 436 -179 l 386 -125 l 559 56 l 601 56 l 601 144 l 214 144 l 214 447 l 552 447 l 552 535 l 214 535 l 214 831 l 601 831 l 601 920 l 124 920 l 124 56 l 489 56 l 489 46 l 330 -125 l 417 -224 z "},"Ẽ":{"ha":558,"x_min":69,"x_max":489,"o":"m 69 0 l 69 972 l 488 972 l 488 776 l 266 776 l 266 589 l 440 589 l 440 392 l 266 392 l 266 197 l 488 197 l 488 0 l 69 0 m 124 56 l 441 56 l 441 144 l 214 144 l 214 447 l 392 447 l 392 535 l 214 535 l 214 831 l 441 831 l 441 920 l 124 920 l 124 56 m 103 994 l 103 1089 l 181 1167 l 304 1167 l 343 1128 l 356 1128 l 356 1167 l 489 1167 l 489 1072 l 411 994 l 288 994 l 249 1033 l 236 1033 l 236 994 l 103 994 m 143 1028 l 200 1028 l 200 1048 l 224 1074 l 263 1074 l 307 1031 l 391 1031 l 451 1093 l 451 1133 l 394 1133 l 394 1114 l 369 1088 l 328 1088 l 285 1131 l 203 1131 l 143 1069 l 143 1028 z "},"F":{"ha":516,"x_min":69,"x_max":474,"o":"m 69 0 l 69 972 l 474 972 l 474 776 l 266 776 l 266 589 l 448 589 l 448 392 l 266 392 l 266 0 l 69 0 m 123 52 l 213 52 l 213 447 l 394 447 l 394 537 l 213 537 l 213 831 l 422 831 l 422 920 l 123 920 l 123 52 z "},"G":{"ha":672,"x_min":69,"x_max":603,"o":"m 213 0 l 69 143 l 69 829 l 213 972 l 460 972 l 603 829 l 603 654 l 407 654 l 407 733 l 365 776 l 307 776 l 265 732 l 265 238 l 307 197 l 365 197 l 407 239 l 407 335 l 316 335 l 316 531 l 603 531 l 603 143 l 460 0 l 213 0 m 240 56 l 433 56 l 550 172 l 550 476 l 370 476 l 370 387 l 460 387 l 460 215 l 390 144 l 283 144 l 213 213 l 213 761 l 283 831 l 390 831 l 460 761 l 460 706 l 550 706 l 550 804 l 433 920 l 240 920 l 124 804 l 124 172 l 240 56 z "},"Ğ":{"ha":672,"x_min":69,"x_max":603,"o":"m 213 0 l 69 143 l 69 829 l 213 972 l 460 972 l 603 829 l 603 654 l 407 654 l 407 733 l 365 776 l 307 776 l 265 732 l 265 238 l 307 197 l 365 197 l 407 239 l 407 335 l 316 335 l 316 531 l 603 531 l 603 143 l 460 0 l 213 0 m 240 56 l 433 56 l 550 172 l 550 476 l 370 476 l 370 387 l 460 387 l 460 215 l 390 144 l 283 144 l 213 213 l 213 761 l 283 831 l 390 831 l 460 761 l 460 706 l 550 706 l 550 804 l 433 920 l 240 920 l 124 804 l 124 172 l 240 56 m 258 994 l 180 1072 l 180 1181 l 313 1181 l 313 1128 l 367 1128 l 367 1181 l 501 1181 l 501 1072 l 423 994 l 258 994 m 280 1031 l 401 1031 l 461 1093 l 461 1142 l 404 1142 l 404 1114 l 380 1088 l 301 1088 l 277 1114 l 277 1142 l 220 1142 l 220 1093 l 280 1031 z "},"Ǧ":{"ha":672,"x_min":69,"x_max":603,"o":"m 213 0 l 69 143 l 69 829 l 213 972 l 460 972 l 603 829 l 603 654 l 407 654 l 407 733 l 365 776 l 307 776 l 265 732 l 265 238 l 307 197 l 365 197 l 407 239 l 407 335 l 316 335 l 316 531 l 603 531 l 603 143 l 460 0 l 213 0 m 240 56 l 433 56 l 550 172 l 550 476 l 370 476 l 370 387 l 460 387 l 460 215 l 390 144 l 283 144 l 213 213 l 213 761 l 283 831 l 390 831 l 460 761 l 460 706 l 550 706 l 550 804 l 433 920 l 240 920 l 124 804 l 124 172 l 240 56 m 253 994 l 97 1192 l 290 1192 l 340 1117 l 391 1192 l 583 1192 l 428 994 l 253 994 m 279 1031 l 400 1031 l 492 1151 l 410 1151 l 356 1073 l 323 1073 l 269 1151 l 188 1151 l 279 1031 z "},"Ĝ":{"ha":672,"x_min":69,"x_max":603,"o":"m 213 0 l 69 143 l 69 829 l 213 972 l 460 972 l 603 829 l 603 654 l 407 654 l 407 733 l 365 776 l 307 776 l 265 732 l 265 238 l 307 197 l 365 197 l 407 239 l 407 335 l 316 335 l 316 531 l 603 531 l 603 143 l 460 0 l 213 0 m 240 56 l 433 56 l 550 172 l 550 476 l 370 476 l 370 387 l 460 387 l 460 215 l 390 144 l 283 144 l 213 213 l 213 761 l 283 831 l 390 831 l 460 761 l 460 706 l 550 706 l 550 804 l 433 920 l 240 920 l 124 804 l 124 172 l 240 56 m 253 1192 l 428 1192 l 583 994 l 391 994 l 340 1069 l 290 994 l 97 994 l 253 1192 m 279 1155 l 188 1035 l 269 1035 l 323 1113 l 356 1113 l 410 1035 l 492 1035 l 400 1155 l 279 1155 z "},"Ģ":{"ha":672,"x_min":69,"x_max":603,"o":"m 213 0 l 69 143 l 69 829 l 213 972 l 460 972 l 603 829 l 603 654 l 407 654 l 407 733 l 365 776 l 307 776 l 265 732 l 265 238 l 307 197 l 365 197 l 407 239 l 407 335 l 316 335 l 316 531 l 603 531 l 603 143 l 460 0 l 213 0 m 240 56 l 433 56 l 550 172 l 550 476 l 370 476 l 370 387 l 460 387 l 460 215 l 390 144 l 283 144 l 213 213 l 213 761 l 283 831 l 390 831 l 460 761 l 460 706 l 550 706 l 550 804 l 433 920 l 240 920 l 124 804 l 124 172 l 240 56 m 168 -368 l 247 -50 l 435 -50 l 325 -368 l 168 -368 m 227 -322 l 291 -322 l 368 -106 l 282 -106 l 227 -322 z "},"Ġ":{"ha":672,"x_min":69,"x_max":603,"o":"m 213 0 l 69 143 l 69 829 l 213 972 l 460 972 l 603 829 l 603 654 l 407 654 l 407 733 l 365 776 l 307 776 l 265 732 l 265 238 l 307 197 l 365 197 l 407 239 l 407 335 l 316 335 l 316 531 l 603 531 l 603 143 l 460 0 l 213 0 m 240 56 l 433 56 l 550 172 l 550 476 l 370 476 l 370 387 l 460 387 l 460 215 l 390 144 l 283 144 l 213 213 l 213 761 l 283 831 l 390 831 l 460 761 l 460 706 l 550 706 l 550 804 l 433 920 l 240 920 l 124 804 l 124 172 l 240 56 m 267 1008 l 267 1154 l 415 1154 l 415 1008 l 267 1008 m 310 1049 l 371 1049 l 371 1113 l 310 1113 l 310 1049 z "},"Ḡ":{"ha":672,"x_min":69,"x_max":603,"o":"m 213 0 l 69 143 l 69 829 l 213 972 l 460 972 l 603 829 l 603 654 l 407 654 l 407 733 l 365 776 l 307 776 l 265 732 l 265 238 l 307 197 l 365 197 l 407 239 l 407 335 l 316 335 l 316 531 l 603 531 l 603 143 l 460 0 l 213 0 m 240 56 l 433 56 l 550 172 l 550 476 l 370 476 l 370 387 l 460 387 l 460 215 l 390 144 l 283 144 l 213 213 l 213 761 l 283 831 l 390 831 l 460 761 l 460 706 l 550 706 l 550 804 l 433 920 l 240 920 l 124 804 l 124 172 l 240 56 m 121 994 l 121 1172 l 560 1172 l 560 994 l 121 994 m 176 1042 l 509 1042 l 509 1121 l 176 1121 l 176 1042 z "},"H":{"ha":656,"x_min":76,"x_max":580,"o":"m 76 0 l 76 972 l 273 972 l 273 589 l 384 589 l 384 972 l 580 972 l 580 0 l 384 0 l 384 392 l 273 392 l 273 0 l 76 0 m 131 53 l 219 53 l 219 447 l 438 447 l 438 53 l 527 53 l 527 920 l 438 920 l 438 537 l 219 537 l 219 920 l 131 920 l 131 53 z "},"Ħ":{"ha":861,"x_min":13,"x_max":828,"o":"m 88 0 l 88 680 l 13 680 l 13 851 l 88 851 l 88 972 l 285 972 l 285 851 l 563 851 l 563 972 l 759 972 l 759 851 l 828 851 l 828 680 l 759 680 l 759 0 l 563 0 l 563 392 l 285 392 l 285 0 l 88 0 m 142 52 l 231 52 l 231 447 l 616 447 l 616 52 l 706 52 l 706 732 l 785 732 l 785 808 l 706 808 l 706 924 l 616 924 l 616 808 l 231 808 l 231 924 l 142 924 l 142 808 l 59 808 l 59 732 l 142 732 l 142 52 m 231 537 l 231 732 l 616 732 l 616 537 l 231 537 m 285 589 l 563 589 l 563 680 l 285 680 l 285 589 z "},"Ḫ":{"ha":656,"x_min":76,"x_max":580,"o":"m 76 0 l 76 972 l 273 972 l 273 589 l 384 589 l 384 972 l 580 972 l 580 0 l 384 0 l 384 392 l 273 392 l 273 0 l 76 0 m 131 53 l 219 53 l 219 447 l 438 447 l 438 53 l 527 53 l 527 920 l 438 920 l 438 537 l 219 537 l 219 920 l 131 920 l 131 53 m 246 -236 l 168 -158 l 168 -50 l 301 -50 l 301 -103 l 356 -103 l 356 -50 l 489 -50 l 489 -158 l 411 -236 l 246 -236 m 268 -199 l 390 -199 l 449 -137 l 449 -88 l 392 -88 l 392 -117 l 368 -142 l 290 -142 l 265 -117 l 265 -88 l 208 -88 l 208 -137 l 268 -199 z "},"Ĥ":{"ha":656,"x_min":76,"x_max":580,"o":"m 76 0 l 76 972 l 273 972 l 273 589 l 384 589 l 384 972 l 580 972 l 580 0 l 384 0 l 384 392 l 273 392 l 273 0 l 76 0 m 131 53 l 219 53 l 219 447 l 438 447 l 438 53 l 527 53 l 527 920 l 438 920 l 438 537 l 219 537 l 219 920 l 131 920 l 131 53 m 241 1192 l 416 1192 l 572 994 l 379 994 l 328 1069 l 278 994 l 85 994 l 241 1192 m 267 1155 l 176 1035 l 257 1035 l 311 1113 l 344 1113 l 399 1035 l 481 1035 l 388 1155 l 267 1155 z "},"Ḥ":{"ha":656,"x_min":76,"x_max":580,"o":"m 76 0 l 76 972 l 273 972 l 273 589 l 384 589 l 384 972 l 580 972 l 580 0 l 384 0 l 384 392 l 273 392 l 273 0 l 76 0 m 131 53 l 219 53 l 219 447 l 438 447 l 438 53 l 527 53 l 527 920 l 438 920 l 438 537 l 219 537 l 219 920 l 131 920 l 131 53 m 255 -188 l 255 -42 l 402 -42 l 402 -188 l 255 -188 m 297 -147 l 358 -147 l 358 -84 l 297 -84 l 297 -147 z "},"I":{"ha":529,"x_min":69,"x_max":460,"o":"m 69 0 l 69 197 l 167 197 l 167 776 l 69 776 l 69 972 l 460 972 l 460 776 l 363 776 l 363 197 l 460 197 l 460 0 l 69 0 m 123 53 l 407 53 l 407 142 l 306 142 l 306 831 l 407 831 l 407 920 l 123 920 l 123 831 l 217 831 l 217 142 l 123 142 l 123 53 z "},"Í":{"ha":529,"x_min":69,"x_max":548,"o":"m 69 0 l 69 197 l 167 197 l 167 776 l 69 776 l 69 972 l 460 972 l 460 776 l 363 776 l 363 197 l 460 197 l 460 0 l 69 0 m 123 53 l 407 53 l 407 142 l 306 142 l 306 831 l 407 831 l 407 920 l 123 920 l 123 831 l 217 831 l 217 142 l 123 142 l 123 53 m 179 994 l 349 1178 l 548 1178 l 351 994 l 179 994 m 264 1028 l 334 1028 l 454 1144 l 372 1144 l 264 1028 z "},"Ĭ":{"ha":529,"x_min":69,"x_max":460,"o":"m 69 0 l 69 197 l 167 197 l 167 776 l 69 776 l 69 972 l 460 972 l 460 776 l 363 776 l 363 197 l 460 197 l 460 0 l 69 0 m 123 53 l 407 53 l 407 142 l 306 142 l 306 831 l 407 831 l 407 920 l 123 920 l 123 831 l 217 831 l 217 142 l 123 142 l 123 53 m 182 994 l 104 1072 l 104 1181 l 238 1181 l 238 1128 l 292 1128 l 292 1181 l 425 1181 l 425 1072 l 347 994 l 182 994 m 204 1031 l 326 1031 l 385 1093 l 385 1142 l 328 1142 l 328 1114 l 304 1088 l 226 1088 l 201 1114 l 201 1142 l 144 1142 l 144 1093 l 204 1031 z "},"Ǐ":{"ha":529,"x_min":22,"x_max":508,"o":"m 69 0 l 69 197 l 167 197 l 167 776 l 69 776 l 69 972 l 460 972 l 460 776 l 363 776 l 363 197 l 460 197 l 460 0 l 69 0 m 123 53 l 407 53 l 407 142 l 306 142 l 306 831 l 407 831 l 407 920 l 123 920 l 123 831 l 217 831 l 217 142 l 123 142 l 123 53 m 177 994 l 22 1192 l 214 1192 l 265 1117 l 315 1192 l 508 1192 l 352 994 l 177 994 m 203 1031 l 324 1031 l 417 1151 l 335 1151 l 281 1073 l 247 1073 l 193 1151 l 112 1151 l 203 1031 z "},"Î":{"ha":529,"x_min":22,"x_max":508,"o":"m 69 0 l 69 197 l 167 197 l 167 776 l 69 776 l 69 972 l 460 972 l 460 776 l 363 776 l 363 197 l 460 197 l 460 0 l 69 0 m 123 53 l 407 53 l 407 142 l 306 142 l 306 831 l 407 831 l 407 920 l 123 920 l 123 831 l 217 831 l 217 142 l 123 142 l 123 53 m 177 1192 l 352 1192 l 508 994 l 315 994 l 265 1069 l 214 994 l 22 994 l 177 1192 m 203 1155 l 112 1035 l 193 1035 l 247 1113 l 281 1113 l 335 1035 l 417 1035 l 324 1155 l 203 1155 z "},"Ȉ":{"ha":529,"x_min":-149,"x_max":492,"o":"m 69 0 l 69 197 l 167 197 l 167 776 l 69 776 l 69 972 l 460 972 l 460 776 l 363 776 l 363 197 l 460 197 l 460 0 l 69 0 m 123 53 l 407 53 l 407 142 l 306 142 l 306 831 l 407 831 l 407 920 l 123 920 l 123 831 l 217 831 l 217 142 l 123 142 l 123 53 m 492 994 l 321 994 l 124 1178 l 323 1178 l 492 994 m 408 1028 l 300 1144 l 218 1144 l 338 1028 l 408 1028 m 220 994 l 49 994 l -149 1178 l 51 1178 l 220 994 m 136 1028 l 28 1144 l -54 1144 l 66 1028 l 136 1028 z "},"Ï":{"ha":529,"x_min":47,"x_max":483,"o":"m 69 0 l 69 197 l 167 197 l 167 776 l 69 776 l 69 972 l 460 972 l 460 776 l 363 776 l 363 197 l 460 197 l 460 0 l 69 0 m 123 53 l 407 53 l 407 142 l 306 142 l 306 831 l 407 831 l 407 920 l 123 920 l 123 831 l 217 831 l 217 142 l 123 142 l 123 53 m 336 1008 l 336 1154 l 483 1154 l 483 1008 l 336 1008 m 47 1008 l 47 1154 l 194 1154 l 194 1008 l 47 1008 m 90 1049 l 151 1049 l 151 1113 l 90 1113 l 90 1049 m 379 1049 l 440 1049 l 440 1113 l 379 1113 l 379 1049 z "},"Ḯ":{"ha":529,"x_min":47,"x_max":548,"o":"m 69 0 l 69 197 l 167 197 l 167 776 l 69 776 l 69 972 l 460 972 l 460 776 l 363 776 l 363 197 l 460 197 l 460 0 l 69 0 m 123 53 l 407 53 l 407 142 l 306 142 l 306 831 l 407 831 l 407 920 l 123 920 l 123 831 l 217 831 l 217 142 l 123 142 l 123 53 m 336 1008 l 336 1154 l 483 1154 l 483 1008 l 336 1008 m 47 1008 l 47 1154 l 194 1154 l 194 1008 l 47 1008 m 90 1049 l 151 1049 l 151 1113 l 90 1113 l 90 1049 m 379 1049 l 440 1049 l 440 1113 l 379 1113 l 379 1049 m 179 1176 l 349 1360 l 548 1360 l 351 1176 l 179 1176 m 264 1210 l 334 1210 l 454 1326 l 372 1326 l 264 1210 z "},"İ":{"ha":529,"x_min":69,"x_max":460,"o":"m 69 0 l 69 197 l 167 197 l 167 776 l 69 776 l 69 972 l 460 972 l 460 776 l 363 776 l 363 197 l 460 197 l 460 0 l 69 0 m 123 53 l 407 53 l 407 142 l 306 142 l 306 831 l 407 831 l 407 920 l 123 920 l 123 831 l 217 831 l 217 142 l 123 142 l 123 53 m 192 1008 l 192 1154 l 339 1154 l 339 1008 l 192 1008 m 234 1049 l 295 1049 l 295 1113 l 234 1113 l 234 1049 z "},"Ị":{"ha":529,"x_min":69,"x_max":460,"o":"m 69 0 l 69 197 l 167 197 l 167 776 l 69 776 l 69 972 l 460 972 l 460 776 l 363 776 l 363 197 l 460 197 l 460 0 l 69 0 m 123 53 l 407 53 l 407 142 l 306 142 l 306 831 l 407 831 l 407 920 l 123 920 l 123 831 l 217 831 l 217 142 l 123 142 l 123 53 m 191 -188 l 191 -42 l 338 -42 l 338 -188 l 191 -188 m 233 -147 l 294 -147 l 294 -84 l 233 -84 l 233 -147 z "},"Ì":{"ha":529,"x_min":-3,"x_max":460,"o":"m 69 0 l 69 197 l 167 197 l 167 776 l 69 776 l 69 972 l 460 972 l 460 776 l 363 776 l 363 197 l 460 197 l 460 0 l 69 0 m 123 53 l 407 53 l 407 142 l 306 142 l 306 831 l 407 831 l 407 920 l 123 920 l 123 831 l 217 831 l 217 142 l 123 142 l 123 53 m 365 994 l 194 994 l -3 1178 l 196 1178 l 365 994 m 281 1028 l 173 1144 l 91 1144 l 211 1028 l 281 1028 z "},"Ỉ":{"ha":529,"x_min":69,"x_max":460,"o":"m 69 0 l 69 197 l 167 197 l 167 776 l 69 776 l 69 972 l 460 972 l 460 776 l 363 776 l 363 197 l 460 197 l 460 0 l 69 0 m 123 53 l 407 53 l 407 142 l 306 142 l 306 831 l 407 831 l 407 920 l 123 920 l 123 831 l 217 831 l 217 142 l 123 142 l 123 53 m 99 1251 l 317 1251 l 431 1120 l 317 990 l 148 990 l 148 1099 l 241 1099 l 262 1120 l 241 1142 l 99 1142 l 99 1251 m 138 1219 l 138 1174 l 262 1174 l 310 1120 l 262 1067 l 188 1067 l 188 1022 l 295 1022 l 383 1120 l 295 1219 l 138 1219 z "},"Ȋ":{"ha":529,"x_min":69,"x_max":460,"o":"m 69 0 l 69 197 l 167 197 l 167 776 l 69 776 l 69 972 l 460 972 l 460 776 l 363 776 l 363 197 l 460 197 l 460 0 l 69 0 m 123 53 l 407 53 l 407 142 l 306 142 l 306 831 l 407 831 l 407 920 l 123 920 l 123 831 l 217 831 l 217 142 l 123 142 l 123 53 m 347 1180 l 425 1102 l 425 994 l 292 994 l 292 1047 l 238 1047 l 238 994 l 104 994 l 104 1102 l 182 1180 l 347 1180 m 325 1143 l 203 1143 l 144 1081 l 144 1032 l 201 1032 l 201 1060 l 225 1087 l 303 1087 l 328 1060 l 328 1032 l 385 1032 l 385 1081 l 325 1143 z "},"Ī":{"ha":529,"x_min":45,"x_max":484,"o":"m 69 0 l 69 197 l 167 197 l 167 776 l 69 776 l 69 972 l 460 972 l 460 776 l 363 776 l 363 197 l 460 197 l 460 0 l 69 0 m 123 53 l 407 53 l 407 142 l 306 142 l 306 831 l 407 831 l 407 920 l 123 920 l 123 831 l 217 831 l 217 142 l 123 142 l 123 53 m 45 994 l 45 1172 l 484 1172 l 484 994 l 45 994 m 100 1042 l 433 1042 l 433 1121 l 100 1121 l 100 1042 z "},"Į":{"ha":667,"x_min":69,"x_max":598,"o":"m 255 -256 l 142 -124 l 253 0 l 69 0 l 69 197 l 235 197 l 235 776 l 69 776 l 69 972 l 598 972 l 598 776 l 431 776 l 431 197 l 598 197 l 598 0 l 407 0 l 283 -124 l 303 -147 l 467 -147 l 467 -256 l 255 -256 m 272 -224 l 438 -224 l 438 -178 l 291 -178 l 241 -124 l 413 53 l 549 53 l 549 142 l 374 142 l 374 831 l 549 831 l 549 920 l 119 920 l 119 831 l 285 831 l 285 142 l 119 142 l 119 53 l 349 53 l 185 -124 l 272 -224 z "},"Ĩ":{"ha":529,"x_min":69,"x_max":460,"o":"m 69 0 l 69 197 l 167 197 l 167 776 l 69 776 l 69 972 l 460 972 l 460 776 l 363 776 l 363 197 l 460 197 l 460 0 l 69 0 m 123 53 l 407 53 l 407 142 l 306 142 l 306 831 l 407 831 l 407 920 l 123 920 l 123 831 l 217 831 l 217 142 l 123 142 l 123 53 m 71 994 l 71 1089 l 149 1167 l 272 1167 l 311 1128 l 324 1128 l 324 1167 l 457 1167 l 457 1072 l 379 994 l 256 994 l 217 1033 l 204 1033 l 204 994 l 71 994 m 111 1028 l 168 1028 l 168 1048 l 192 1074 l 231 1074 l 275 1031 l 359 1031 l 419 1093 l 419 1133 l 362 1133 l 362 1114 l 338 1088 l 296 1088 l 253 1131 l 171 1131 l 111 1069 l 111 1028 z "},"J":{"ha":647,"x_min":69,"x_max":578,"o":"m 213 0 l 69 143 l 69 391 l 266 391 l 266 239 l 308 197 l 339 197 l 381 239 l 381 776 l 202 776 l 202 972 l 578 972 l 578 143 l 434 0 l 213 0 m 240 56 l 410 56 l 526 172 l 526 920 l 253 920 l 253 831 l 437 831 l 437 215 l 367 145 l 283 145 l 213 215 l 213 339 l 124 339 l 124 172 l 240 56 z "},"Ĵ":{"ha":647,"x_min":69,"x_max":622,"o":"m 213 0 l 69 143 l 69 391 l 266 391 l 266 239 l 308 197 l 339 197 l 381 239 l 381 776 l 202 776 l 202 972 l 578 972 l 578 143 l 434 0 l 213 0 m 240 56 l 410 56 l 526 172 l 526 920 l 253 920 l 253 831 l 437 831 l 437 215 l 367 145 l 283 145 l 213 215 l 213 339 l 124 339 l 124 172 l 240 56 m 292 1192 l 467 1192 l 622 994 l 430 994 l 379 1069 l 328 994 l 136 994 l 292 1192 m 318 1155 l 226 1035 l 308 1035 l 362 1113 l 395 1113 l 449 1035 l 531 1035 l 439 1155 l 318 1155 z "},"K":{"ha":674,"x_min":76,"x_max":590,"o":"m 76 0 l 76 972 l 273 972 l 273 589 l 311 589 l 394 672 l 394 972 l 590 972 l 590 589 l 492 492 l 590 392 l 590 0 l 394 0 l 394 310 l 311 392 l 273 392 l 273 0 l 76 0 m 130 54 l 219 54 l 219 450 l 338 450 l 448 339 l 448 54 l 537 54 l 537 375 l 421 494 l 537 610 l 537 920 l 448 920 l 448 647 l 340 540 l 219 540 l 219 920 l 130 920 l 130 54 z "},"Ķ":{"ha":674,"x_min":76,"x_max":590,"o":"m 76 0 l 76 972 l 273 972 l 273 589 l 311 589 l 394 672 l 394 972 l 590 972 l 590 589 l 492 492 l 590 392 l 590 0 l 394 0 l 394 310 l 311 392 l 273 392 l 273 0 l 76 0 m 130 54 l 219 54 l 219 450 l 338 450 l 448 339 l 448 54 l 537 54 l 537 375 l 421 494 l 537 610 l 537 920 l 448 920 l 448 647 l 340 540 l 219 540 l 219 920 l 130 920 l 130 54 m 162 -368 l 241 -50 l 429 -50 l 319 -368 l 162 -368 m 221 -322 l 285 -322 l 362 -106 l 276 -106 l 221 -322 z "},"L":{"ha":524,"x_min":76,"x_max":482,"o":"m 76 0 l 76 972 l 273 972 l 273 197 l 482 197 l 482 0 l 76 0 m 131 53 l 429 53 l 429 142 l 219 142 l 219 920 l 131 920 l 131 53 z "},"Ǉ":{"ha":1171,"x_min":76,"x_max":1101,"o":"m 76 0 l 76 972 l 273 972 l 273 197 l 482 197 l 482 0 l 76 0 m 131 53 l 429 53 l 429 142 l 219 142 l 219 920 l 131 920 l 131 53 m 737 0 l 593 143 l 593 391 l 790 391 l 790 239 l 832 197 l 863 197 l 905 239 l 905 776 l 726 776 l 726 972 l 1101 972 l 1101 143 l 958 0 l 737 0 m 763 56 l 933 56 l 1050 172 l 1050 920 l 777 920 l 777 831 l 960 831 l 960 215 l 890 145 l 807 145 l 736 215 l 736 339 l 647 339 l 647 172 l 763 56 z "},"Ĺ":{"ha":524,"x_min":76,"x_max":482,"o":"m 76 0 l 76 972 l 273 972 l 273 197 l 482 197 l 482 0 l 76 0 m 131 53 l 429 53 l 429 142 l 219 142 l 219 920 l 131 920 l 131 53 m 97 994 l 267 1178 l 466 1178 l 269 994 l 97 994 m 182 1028 l 252 1028 l 372 1144 l 290 1144 l 182 1028 z "},"Ľ":{"ha":524,"x_min":76,"x_max":551,"o":"m 76 0 l 76 972 l 273 972 l 273 197 l 482 197 l 482 0 l 76 0 m 131 53 l 429 53 l 429 142 l 219 142 l 219 920 l 131 920 l 131 53 m 374 657 l 342 776 l 342 972 l 551 972 l 551 776 l 518 657 l 374 657 m 416 704 l 478 704 l 495 778 l 495 917 l 400 917 l 400 778 l 416 704 z "},"Ļ":{"ha":524,"x_min":76,"x_max":482,"o":"m 76 0 l 76 972 l 273 972 l 273 197 l 482 197 l 482 0 l 76 0 m 131 53 l 429 53 l 429 142 l 219 142 l 219 920 l 131 920 l 131 53 m 110 -368 l 190 -50 l 378 -50 l 267 -368 l 110 -368 m 169 -322 l 233 -322 l 310 -106 l 224 -106 l 169 -322 z "},"Ŀ":{"ha":743,"x_min":76,"x_max":658,"o":"m 76 0 l 76 972 l 273 972 l 273 197 l 482 197 l 482 0 l 76 0 m 131 53 l 429 53 l 429 142 l 219 142 l 219 920 l 131 920 l 131 53 m 440 408 l 440 613 l 658 613 l 658 408 l 440 408 m 496 464 l 602 464 l 602 558 l 496 558 l 496 464 z "},"Ḷ":{"ha":524,"x_min":76,"x_max":482,"o":"m 76 0 l 76 972 l 273 972 l 273 197 l 482 197 l 482 0 l 76 0 m 131 53 l 429 53 l 429 142 l 219 142 l 219 920 l 131 920 l 131 53 m 209 -188 l 209 -42 l 356 -42 l 356 -188 l 209 -188 m 251 -147 l 313 -147 l 313 -84 l 251 -84 l 251 -147 z "},"ǈ":{"ha":950,"x_min":76,"x_max":874,"o":"m 76 0 l 76 972 l 273 972 l 273 197 l 482 197 l 482 0 l 76 0 m 131 53 l 429 53 l 429 142 l 219 142 l 219 920 l 131 920 l 131 53 m 538 -278 l 538 -82 l 622 -82 l 677 -26 l 677 554 l 538 554 l 538 750 l 874 750 l 874 -135 l 731 -278 l 538 -278 m 593 -222 l 705 -222 l 820 -104 l 820 697 l 590 697 l 590 608 l 731 608 l 731 -55 l 655 -133 l 593 -133 l 593 -222 m 677 858 l 677 1042 l 874 1042 l 874 858 l 677 858 m 731 908 l 820 908 l 820 998 l 731 998 l 731 908 z "},"Ḻ":{"ha":524,"x_min":63,"x_max":502,"o":"m 76 0 l 76 972 l 273 972 l 273 197 l 482 197 l 482 0 l 76 0 m 131 53 l 429 53 l 429 142 l 219 142 l 219 920 l 131 920 l 131 53 m 63 -226 l 63 -49 l 502 -49 l 502 -226 l 63 -226 m 118 -178 l 451 -178 l 451 -99 l 118 -99 l 118 -178 z "},"Ł":{"ha":743,"x_min":34,"x_max":680,"o":"m 115 0 l 115 339 l 34 306 l 34 480 l 115 513 l 115 972 l 312 972 l 312 588 l 549 682 l 549 508 l 312 415 l 312 197 l 680 197 l 680 0 l 115 0 m 168 53 l 638 53 l 638 142 l 258 142 l 258 441 l 496 535 l 496 612 l 258 518 l 258 927 l 168 927 l 168 483 l 80 449 l 80 373 l 168 407 l 168 53 z "},"M":{"ha":1008,"x_min":76,"x_max":931,"o":"m 76 0 l 76 972 l 451 972 l 497 283 l 511 283 l 557 972 l 931 972 l 931 0 l 735 0 l 735 775 l 717 775 l 669 83 l 339 83 l 292 775 l 273 775 l 273 0 l 76 0 m 130 53 l 219 53 l 219 829 l 331 829 l 385 142 l 622 142 l 676 829 l 788 829 l 788 53 l 878 53 l 878 919 l 604 919 l 551 233 l 457 233 l 403 919 l 130 919 l 130 53 z "},"Ṃ":{"ha":1008,"x_min":76,"x_max":931,"o":"m 76 0 l 76 972 l 451 972 l 497 283 l 511 283 l 557 972 l 931 972 l 931 0 l 735 0 l 735 775 l 717 775 l 669 83 l 339 83 l 292 775 l 273 775 l 273 0 l 76 0 m 130 53 l 219 53 l 219 829 l 331 829 l 385 142 l 622 142 l 676 829 l 788 829 l 788 53 l 878 53 l 878 919 l 604 919 l 551 233 l 457 233 l 403 919 l 130 919 l 130 53 m 431 -188 l 431 -42 l 578 -42 l 578 -188 l 431 -188 m 474 -147 l 535 -147 l 535 -84 l 474 -84 l 474 -147 z "},"N":{"ha":799,"x_min":76,"x_max":723,"o":"m 130 52 l 219 52 l 219 828 l 324 828 l 404 53 l 670 53 l 670 920 l 581 920 l 581 144 l 475 144 l 396 918 l 130 918 l 130 52 m 76 0 l 76 972 l 444 972 l 513 199 l 526 199 l 526 972 l 723 972 l 723 0 l 356 0 l 285 775 l 273 775 l 273 0 l 76 0 z "},"Ǌ":{"ha":1447,"x_min":76,"x_max":1377,"o":"m 130 52 l 219 52 l 219 828 l 324 828 l 404 53 l 670 53 l 670 920 l 581 920 l 581 144 l 475 144 l 396 918 l 130 918 l 130 52 m 76 0 l 76 972 l 444 972 l 513 199 l 526 199 l 526 972 l 723 972 l 723 0 l 356 0 l 285 775 l 273 775 l 273 0 l 76 0 m 1013 0 l 869 143 l 869 391 l 1065 391 l 1065 239 l 1108 197 l 1138 197 l 1181 239 l 1181 776 l 1001 776 l 1001 972 l 1377 972 l 1377 143 l 1233 0 l 1013 0 m 1039 56 l 1209 56 l 1326 172 l 1326 920 l 1053 920 l 1053 831 l 1236 831 l 1236 215 l 1166 145 l 1083 145 l 1012 215 l 1012 339 l 923 339 l 923 172 l 1039 56 z "},"Ń":{"ha":799,"x_min":76,"x_max":723,"o":"m 130 52 l 219 52 l 219 828 l 324 828 l 404 53 l 670 53 l 670 920 l 581 920 l 581 144 l 475 144 l 396 918 l 130 918 l 130 52 m 76 0 l 76 972 l 444 972 l 513 199 l 526 199 l 526 972 l 723 972 l 723 0 l 356 0 l 285 775 l 273 775 l 273 0 l 76 0 m 317 994 l 486 1178 l 685 1178 l 488 994 l 317 994 m 401 1028 l 472 1028 l 592 1144 l 510 1144 l 401 1028 z "},"Ň":{"ha":799,"x_min":76,"x_max":723,"o":"m 130 52 l 219 52 l 219 828 l 324 828 l 404 53 l 670 53 l 670 920 l 581 920 l 581 144 l 475 144 l 396 918 l 130 918 l 130 52 m 76 0 l 76 972 l 444 972 l 513 199 l 526 199 l 526 972 l 723 972 l 723 0 l 356 0 l 285 775 l 273 775 l 273 0 l 76 0 m 315 994 l 159 1192 l 351 1192 l 402 1117 l 453 1192 l 645 1192 l 490 994 l 315 994 m 341 1031 l 462 1031 l 554 1151 l 472 1151 l 418 1073 l 385 1073 l 331 1151 l 249 1151 l 341 1031 z "},"Ņ":{"ha":799,"x_min":76,"x_max":723,"o":"m 130 52 l 219 52 l 219 828 l 324 828 l 404 53 l 670 53 l 670 920 l 581 920 l 581 144 l 475 144 l 396 918 l 130 918 l 130 52 m 76 0 l 76 972 l 444 972 l 513 199 l 526 199 l 526 972 l 723 972 l 723 0 l 356 0 l 285 775 l 273 775 l 273 0 l 76 0 m 230 -368 l 309 -50 l 497 -50 l 387 -368 l 230 -368 m 289 -322 l 353 -322 l 430 -106 l 344 -106 l 289 -322 z "},"Ṅ":{"ha":799,"x_min":76,"x_max":723,"o":"m 130 52 l 219 52 l 219 828 l 324 828 l 404 53 l 670 53 l 670 920 l 581 920 l 581 144 l 475 144 l 396 918 l 130 918 l 130 52 m 76 0 l 76 972 l 444 972 l 513 199 l 526 199 l 526 972 l 723 972 l 723 0 l 356 0 l 285 775 l 273 775 l 273 0 l 76 0 m 329 1008 l 329 1154 l 476 1154 l 476 1008 l 329 1008 m 372 1049 l 433 1049 l 433 1113 l 372 1113 l 372 1049 z "},"Ṇ":{"ha":799,"x_min":76,"x_max":723,"o":"m 130 52 l 219 52 l 219 828 l 324 828 l 404 53 l 670 53 l 670 920 l 581 920 l 581 144 l 475 144 l 396 918 l 130 918 l 130 52 m 76 0 l 76 972 l 444 972 l 513 199 l 526 199 l 526 972 l 723 972 l 723 0 l 356 0 l 285 775 l 273 775 l 273 0 l 76 0 m 328 -188 l 328 -42 l 476 -42 l 476 -188 l 328 -188 m 371 -147 l 432 -147 l 432 -84 l 371 -84 l 371 -147 z "},"ǋ":{"ha":1226,"x_min":76,"x_max":1149,"o":"m 130 52 l 219 52 l 219 828 l 324 828 l 404 53 l 670 53 l 670 920 l 581 920 l 581 144 l 475 144 l 396 918 l 130 918 l 130 52 m 76 0 l 76 972 l 444 972 l 513 199 l 526 199 l 526 972 l 723 972 l 723 0 l 356 0 l 285 775 l 273 775 l 273 0 l 76 0 m 813 -278 l 813 -82 l 897 -82 l 953 -26 l 953 554 l 813 554 l 813 750 l 1149 750 l 1149 -135 l 1006 -278 l 813 -278 m 869 -222 l 981 -222 l 1096 -104 l 1096 697 l 865 697 l 865 608 l 1007 608 l 1007 -55 l 931 -133 l 869 -133 l 869 -222 m 953 858 l 953 1042 l 1149 1042 l 1149 858 l 953 858 m 1007 908 l 1096 908 l 1096 998 l 1007 998 l 1007 908 z "},"Ṉ":{"ha":799,"x_min":76,"x_max":723,"o":"m 130 52 l 219 52 l 219 828 l 324 828 l 404 53 l 670 53 l 670 920 l 581 920 l 581 144 l 475 144 l 396 918 l 130 918 l 130 52 m 76 0 l 76 972 l 444 972 l 513 199 l 526 199 l 526 972 l 723 972 l 723 0 l 356 0 l 285 775 l 273 775 l 273 0 l 76 0 m 183 -226 l 183 -49 l 622 -49 l 622 -226 l 183 -226 m 238 -178 l 571 -178 l 571 -99 l 238 -99 l 238 -178 z "},"Ñ":{"ha":799,"x_min":76,"x_max":723,"o":"m 130 52 l 219 52 l 219 828 l 324 828 l 404 53 l 670 53 l 670 920 l 581 920 l 581 144 l 475 144 l 396 918 l 130 918 l 130 52 m 76 0 l 76 972 l 444 972 l 513 199 l 526 199 l 526 972 l 723 972 l 723 0 l 356 0 l 285 775 l 273 775 l 273 0 l 76 0 m 208 994 l 208 1089 l 286 1167 l 410 1167 l 449 1128 l 461 1128 l 461 1167 l 594 1167 l 594 1072 l 517 994 l 393 994 l 354 1033 l 342 1033 l 342 994 l 208 994 m 249 1028 l 306 1028 l 306 1048 l 330 1074 l 369 1074 l 413 1031 l 497 1031 l 556 1093 l 556 1133 l 499 1133 l 499 1114 l 475 1088 l 433 1088 l 390 1131 l 308 1131 l 249 1069 l 249 1028 z "},"Ŋ":{"ha":847,"x_min":65,"x_max":781,"o":"m 403 -278 l 403 -82 l 529 -82 l 585 -26 l 585 7 l 262 563 l 262 0 l 65 0 l 65 972 l 258 972 l 585 410 l 585 972 l 781 972 l 781 -135 l 638 -278 l 403 -278 m 470 -222 l 613 -222 l 728 -104 l 728 927 l 640 927 l 640 210 l 221 927 l 119 927 l 119 49 l 208 49 l 208 756 l 213 756 l 640 28 l 640 -55 l 563 -133 l 470 -133 l 470 -222 z "},"O":{"ha":682,"x_min":69,"x_max":613,"o":"m 213 0 l 69 143 l 69 829 l 213 972 l 469 972 l 613 829 l 613 143 l 469 0 l 213 0 m 308 197 l 374 197 l 416 239 l 416 733 l 374 776 l 308 776 l 266 733 l 266 239 l 308 197 m 240 56 l 442 56 l 559 172 l 559 804 l 442 920 l 240 920 l 124 804 l 124 172 l 240 56 m 284 144 l 213 215 l 213 761 l 284 831 l 399 831 l 469 761 l 469 215 l 399 144 l 284 144 z "},"Ó":{"ha":682,"x_min":69,"x_max":624,"o":"m 213 0 l 69 143 l 69 829 l 213 972 l 469 972 l 613 829 l 613 143 l 469 0 l 213 0 m 308 197 l 374 197 l 416 239 l 416 733 l 374 776 l 308 776 l 266 733 l 266 239 l 308 197 m 240 56 l 442 56 l 559 172 l 559 804 l 442 920 l 240 920 l 124 804 l 124 172 l 240 56 m 284 144 l 213 215 l 213 761 l 284 831 l 399 831 l 469 761 l 469 215 l 399 144 l 284 144 m 256 994 l 425 1178 l 624 1178 l 427 994 l 256 994 m 340 1028 l 410 1028 l 531 1144 l 449 1144 l 340 1028 z "},"Ŏ":{"ha":682,"x_min":69,"x_max":613,"o":"m 213 0 l 69 143 l 69 829 l 213 972 l 469 972 l 613 829 l 613 143 l 469 0 l 213 0 m 308 197 l 374 197 l 416 239 l 416 733 l 374 776 l 308 776 l 266 733 l 266 239 l 308 197 m 240 56 l 442 56 l 559 172 l 559 804 l 442 920 l 240 920 l 124 804 l 124 172 l 240 56 m 284 144 l 213 215 l 213 761 l 284 831 l 399 831 l 469 761 l 469 215 l 399 144 l 284 144 m 258 994 l 181 1072 l 181 1181 l 314 1181 l 314 1128 l 368 1128 l 368 1181 l 501 1181 l 501 1072 l 424 994 l 258 994 m 281 1031 l 402 1031 l 462 1093 l 462 1142 l 405 1142 l 405 1114 l 381 1088 l 302 1088 l 278 1114 l 278 1142 l 221 1142 l 221 1093 l 281 1031 z "},"Ǒ":{"ha":682,"x_min":69,"x_max":613,"o":"m 213 0 l 69 143 l 69 829 l 213 972 l 469 972 l 613 829 l 613 143 l 469 0 l 213 0 m 308 197 l 374 197 l 416 239 l 416 733 l 374 776 l 308 776 l 266 733 l 266 239 l 308 197 m 240 56 l 442 56 l 559 172 l 559 804 l 442 920 l 240 920 l 124 804 l 124 172 l 240 56 m 284 144 l 213 215 l 213 761 l 284 831 l 399 831 l 469 761 l 469 215 l 399 144 l 284 144 m 253 994 l 98 1192 l 290 1192 l 341 1117 l 392 1192 l 584 1192 l 428 994 l 253 994 m 280 1031 l 401 1031 l 493 1151 l 411 1151 l 357 1073 l 324 1073 l 269 1151 l 188 1151 l 280 1031 z "},"Ô":{"ha":682,"x_min":69,"x_max":613,"o":"m 213 0 l 69 143 l 69 829 l 213 972 l 469 972 l 613 829 l 613 143 l 469 0 l 213 0 m 308 197 l 374 197 l 416 239 l 416 733 l 374 776 l 308 776 l 266 733 l 266 239 l 308 197 m 240 56 l 442 56 l 559 172 l 559 804 l 442 920 l 240 920 l 124 804 l 124 172 l 240 56 m 284 144 l 213 215 l 213 761 l 284 831 l 399 831 l 469 761 l 469 215 l 399 144 l 284 144 m 253 1192 l 428 1192 l 584 994 l 392 994 l 341 1069 l 290 994 l 98 994 l 253 1192 m 280 1155 l 188 1035 l 269 1035 l 324 1113 l 357 1113 l 411 1035 l 493 1035 l 401 1155 l 280 1155 z "},"Ố":{"ha":682,"x_min":69,"x_max":846,"o":"m 213 0 l 69 143 l 69 829 l 213 972 l 469 972 l 613 829 l 613 143 l 469 0 l 213 0 m 308 197 l 374 197 l 416 239 l 416 733 l 374 776 l 308 776 l 266 733 l 266 239 l 308 197 m 240 56 l 442 56 l 559 172 l 559 804 l 442 920 l 240 920 l 124 804 l 124 172 l 240 56 m 284 144 l 213 215 l 213 761 l 284 831 l 399 831 l 469 761 l 469 215 l 399 144 l 284 144 m 253 1192 l 428 1192 l 584 994 l 392 994 l 341 1069 l 290 994 l 98 994 l 253 1192 m 280 1155 l 188 1035 l 269 1035 l 324 1113 l 357 1113 l 411 1035 l 493 1035 l 401 1155 l 280 1155 m 477 1153 l 647 1336 l 846 1336 l 649 1153 l 477 1153 m 562 1186 l 632 1186 l 752 1302 l 670 1302 l 562 1186 z "},"Ộ":{"ha":682,"x_min":69,"x_max":613,"o":"m 213 0 l 69 143 l 69 829 l 213 972 l 469 972 l 613 829 l 613 143 l 469 0 l 213 0 m 308 197 l 374 197 l 416 239 l 416 733 l 374 776 l 308 776 l 266 733 l 266 239 l 308 197 m 240 56 l 442 56 l 559 172 l 559 804 l 442 920 l 240 920 l 124 804 l 124 172 l 240 56 m 284 144 l 213 215 l 213 761 l 284 831 l 399 831 l 469 761 l 469 215 l 399 144 l 284 144 m 267 -188 l 267 -42 l 415 -42 l 415 -188 l 267 -188 m 310 -147 l 371 -147 l 371 -84 l 310 -84 l 310 -147 m 253 1192 l 428 1192 l 584 994 l 392 994 l 341 1069 l 290 994 l 98 994 l 253 1192 m 280 1155 l 188 1035 l 269 1035 l 324 1113 l 357 1113 l 411 1035 l 493 1035 l 401 1155 l 280 1155 z "},"Ồ":{"ha":682,"x_min":69,"x_max":680,"o":"m 213 0 l 69 143 l 69 829 l 213 972 l 469 972 l 613 829 l 613 143 l 469 0 l 213 0 m 308 197 l 374 197 l 416 239 l 416 733 l 374 776 l 308 776 l 266 733 l 266 239 l 308 197 m 240 56 l 442 56 l 559 172 l 559 804 l 442 920 l 240 920 l 124 804 l 124 172 l 240 56 m 284 144 l 213 215 l 213 761 l 284 831 l 399 831 l 469 761 l 469 215 l 399 144 l 284 144 m 253 1192 l 428 1192 l 584 994 l 392 994 l 341 1069 l 290 994 l 98 994 l 253 1192 m 280 1155 l 188 1035 l 269 1035 l 324 1113 l 357 1113 l 411 1035 l 493 1035 l 401 1155 l 280 1155 m 680 1153 l 508 1153 l 311 1336 l 510 1336 l 680 1153 m 596 1186 l 488 1302 l 406 1302 l 526 1186 l 596 1186 z "},"Ổ":{"ha":682,"x_min":69,"x_max":770,"o":"m 213 0 l 69 143 l 69 829 l 213 972 l 469 972 l 613 829 l 613 143 l 469 0 l 213 0 m 308 197 l 374 197 l 416 239 l 416 733 l 374 776 l 308 776 l 266 733 l 266 239 l 308 197 m 240 56 l 442 56 l 559 172 l 559 804 l 442 920 l 240 920 l 124 804 l 124 172 l 240 56 m 284 144 l 213 215 l 213 761 l 284 831 l 399 831 l 469 761 l 469 215 l 399 144 l 284 144 m 253 1192 l 428 1192 l 584 994 l 392 994 l 341 1069 l 290 994 l 98 994 l 253 1192 m 280 1155 l 188 1035 l 269 1035 l 324 1113 l 357 1113 l 411 1035 l 493 1035 l 401 1155 l 280 1155 m 438 1388 l 657 1388 l 770 1257 l 657 1127 l 488 1127 l 488 1236 l 581 1236 l 601 1257 l 581 1279 l 438 1279 l 438 1388 m 477 1356 l 477 1311 l 601 1311 l 650 1257 l 601 1204 l 527 1204 l 527 1159 l 635 1159 l 723 1257 l 635 1356 l 477 1356 z "},"Ỗ":{"ha":682,"x_min":69,"x_max":613,"o":"m 213 0 l 69 143 l 69 829 l 213 972 l 469 972 l 613 829 l 613 143 l 469 0 l 213 0 m 308 197 l 374 197 l 416 239 l 416 733 l 374 776 l 308 776 l 266 733 l 266 239 l 308 197 m 240 56 l 442 56 l 559 172 l 559 804 l 442 920 l 240 920 l 124 804 l 124 172 l 240 56 m 284 144 l 213 215 l 213 761 l 284 831 l 399 831 l 469 761 l 469 215 l 399 144 l 284 144 m 253 1192 l 428 1192 l 584 994 l 392 994 l 341 1069 l 290 994 l 98 994 l 253 1192 m 280 1155 l 188 1035 l 269 1035 l 324 1113 l 357 1113 l 411 1035 l 493 1035 l 401 1155 l 280 1155 m 147 1214 l 147 1308 l 225 1386 l 349 1386 l 388 1347 l 400 1347 l 400 1386 l 533 1386 l 533 1292 l 456 1214 l 332 1214 l 293 1253 l 281 1253 l 281 1214 l 147 1214 m 188 1248 l 244 1248 l 244 1267 l 269 1294 l 308 1294 l 351 1251 l 435 1251 l 495 1313 l 495 1353 l 438 1353 l 438 1333 l 414 1308 l 372 1308 l 329 1350 l 247 1350 l 188 1288 l 188 1248 z "},"Ȍ":{"ha":682,"x_min":-72,"x_max":613,"o":"m 213 0 l 69 143 l 69 829 l 213 972 l 469 972 l 613 829 l 613 143 l 469 0 l 213 0 m 308 197 l 374 197 l 416 239 l 416 733 l 374 776 l 308 776 l 266 733 l 266 239 l 308 197 m 240 56 l 442 56 l 559 172 l 559 804 l 442 920 l 240 920 l 124 804 l 124 172 l 240 56 m 284 144 l 213 215 l 213 761 l 284 831 l 399 831 l 469 761 l 469 215 l 399 144 l 284 144 m 569 994 l 397 994 l 200 1178 l 399 1178 l 569 994 m 485 1028 l 376 1144 l 294 1144 l 415 1028 l 485 1028 m 297 994 l 125 994 l -72 1178 l 127 1178 l 297 994 m 213 1028 l 104 1144 l 22 1144 l 142 1028 l 213 1028 z "},"Ö":{"ha":682,"x_min":69,"x_max":613,"o":"m 213 0 l 69 143 l 69 829 l 213 972 l 469 972 l 613 829 l 613 143 l 469 0 l 213 0 m 308 197 l 374 197 l 416 239 l 416 733 l 374 776 l 308 776 l 266 733 l 266 239 l 308 197 m 240 56 l 442 56 l 559 172 l 559 804 l 442 920 l 240 920 l 124 804 l 124 172 l 240 56 m 284 144 l 213 215 l 213 761 l 284 831 l 399 831 l 469 761 l 469 215 l 399 144 l 284 144 m 413 1008 l 413 1154 l 560 1154 l 560 1008 l 413 1008 m 124 1008 l 124 1154 l 271 1154 l 271 1008 l 124 1008 m 166 1049 l 227 1049 l 227 1113 l 166 1113 l 166 1049 m 456 1049 l 517 1049 l 517 1113 l 456 1113 l 456 1049 z "},"Ȫ":{"ha":682,"x_min":69,"x_max":613,"o":"m 213 0 l 69 143 l 69 829 l 213 972 l 469 972 l 613 829 l 613 143 l 469 0 l 213 0 m 308 197 l 374 197 l 416 239 l 416 733 l 374 776 l 308 776 l 266 733 l 266 239 l 308 197 m 240 56 l 442 56 l 559 172 l 559 804 l 442 920 l 240 920 l 124 804 l 124 172 l 240 56 m 284 144 l 213 215 l 213 761 l 284 831 l 399 831 l 469 761 l 469 215 l 399 144 l 284 144 m 413 1008 l 413 1154 l 560 1154 l 560 1008 l 413 1008 m 124 1008 l 124 1154 l 271 1154 l 271 1008 l 124 1008 m 166 1049 l 227 1049 l 227 1113 l 166 1113 l 166 1049 m 456 1049 l 517 1049 l 517 1113 l 456 1113 l 456 1049 m 122 1176 l 122 1353 l 560 1353 l 560 1176 l 122 1176 m 176 1224 l 510 1224 l 510 1303 l 176 1303 l 176 1224 z "},"Ȱ":{"ha":682,"x_min":69,"x_max":613,"o":"m 213 0 l 69 143 l 69 829 l 213 972 l 469 972 l 613 829 l 613 143 l 469 0 l 213 0 m 308 197 l 374 197 l 416 239 l 416 733 l 374 776 l 308 776 l 266 733 l 266 239 l 308 197 m 240 56 l 442 56 l 559 172 l 559 804 l 442 920 l 240 920 l 124 804 l 124 172 l 240 56 m 284 144 l 213 215 l 213 761 l 284 831 l 399 831 l 469 761 l 469 215 l 399 144 l 284 144 m 268 1008 l 268 1154 l 415 1154 l 415 1008 l 268 1008 m 310 1049 l 372 1049 l 372 1113 l 310 1113 l 310 1049 m 122 1176 l 122 1353 l 560 1353 l 560 1176 l 122 1176 m 176 1224 l 510 1224 l 510 1303 l 176 1303 l 176 1224 z "},"Ọ":{"ha":682,"x_min":69,"x_max":613,"o":"m 213 0 l 69 143 l 69 829 l 213 972 l 469 972 l 613 829 l 613 143 l 469 0 l 213 0 m 308 197 l 374 197 l 416 239 l 416 733 l 374 776 l 308 776 l 266 733 l 266 239 l 308 197 m 240 56 l 442 56 l 559 172 l 559 804 l 442 920 l 240 920 l 124 804 l 124 172 l 240 56 m 284 144 l 213 215 l 213 761 l 284 831 l 399 831 l 469 761 l 469 215 l 399 144 l 284 144 m 267 -188 l 267 -42 l 415 -42 l 415 -188 l 267 -188 m 310 -147 l 371 -147 l 371 -84 l 310 -84 l 310 -147 z "},"Ò":{"ha":682,"x_min":69,"x_max":613,"o":"m 213 0 l 69 143 l 69 829 l 213 972 l 469 972 l 613 829 l 613 143 l 469 0 l 213 0 m 308 197 l 374 197 l 416 239 l 416 733 l 374 776 l 308 776 l 266 733 l 266 239 l 308 197 m 240 56 l 442 56 l 559 172 l 559 804 l 442 920 l 240 920 l 124 804 l 124 172 l 240 56 m 284 144 l 213 215 l 213 761 l 284 831 l 399 831 l 469 761 l 469 215 l 399 144 l 284 144 m 442 994 l 270 994 l 73 1178 l 272 1178 l 442 994 m 358 1028 l 249 1144 l 167 1144 l 288 1028 l 358 1028 z "},"Ỏ":{"ha":682,"x_min":69,"x_max":613,"o":"m 213 0 l 69 143 l 69 829 l 213 972 l 469 972 l 613 829 l 613 143 l 469 0 l 213 0 m 308 197 l 374 197 l 416 239 l 416 733 l 374 776 l 308 776 l 266 733 l 266 239 l 308 197 m 240 56 l 442 56 l 559 172 l 559 804 l 442 920 l 240 920 l 124 804 l 124 172 l 240 56 m 284 144 l 213 215 l 213 761 l 284 831 l 399 831 l 469 761 l 469 215 l 399 144 l 284 144 m 175 1251 l 394 1251 l 507 1120 l 394 990 l 224 990 l 224 1099 l 317 1099 l 338 1120 l 317 1142 l 175 1142 l 175 1251 m 214 1219 l 214 1174 l 338 1174 l 387 1120 l 338 1067 l 264 1067 l 264 1022 l 372 1022 l 460 1120 l 372 1219 l 214 1219 z "},"Ơ":{"ha":826,"x_min":69,"x_max":847,"o":"m 308 197 l 374 197 l 416 239 l 416 733 l 374 776 l 308 776 l 266 733 l 266 239 l 308 197 m 240 56 l 442 56 l 559 172 l 559 804 l 442 920 l 240 920 l 124 804 l 124 172 l 240 56 m 284 144 l 213 215 l 213 761 l 284 831 l 399 831 l 469 761 l 469 215 l 399 144 l 284 144 m 733 906 l 733 808 l 679 750 l 559 750 l 559 705 l 713 705 l 803 806 l 803 906 l 733 906 m 688 941 l 847 941 l 847 803 l 733 673 l 613 673 l 613 143 l 469 0 l 213 0 l 69 143 l 69 829 l 213 972 l 469 972 l 613 829 l 613 782 l 657 782 l 688 813 l 688 941 z "},"Ớ":{"ha":826,"x_min":69,"x_max":847,"o":"m 308 197 l 374 197 l 416 239 l 416 733 l 374 776 l 308 776 l 266 733 l 266 239 l 308 197 m 240 56 l 442 56 l 559 172 l 559 804 l 442 920 l 240 920 l 124 804 l 124 172 l 240 56 m 284 144 l 213 215 l 213 761 l 284 831 l 399 831 l 469 761 l 469 215 l 399 144 l 284 144 m 733 906 l 733 808 l 679 750 l 559 750 l 559 705 l 713 705 l 803 806 l 803 906 l 733 906 m 688 941 l 847 941 l 847 803 l 733 673 l 613 673 l 613 143 l 469 0 l 213 0 l 69 143 l 69 829 l 213 972 l 469 972 l 613 829 l 613 782 l 657 782 l 688 813 l 688 941 m 256 994 l 425 1178 l 624 1178 l 427 994 l 256 994 m 340 1028 l 410 1028 l 531 1144 l 449 1144 l 340 1028 z "},"Ợ":{"ha":826,"x_min":69,"x_max":847,"o":"m 308 197 l 374 197 l 416 239 l 416 733 l 374 776 l 308 776 l 266 733 l 266 239 l 308 197 m 240 56 l 442 56 l 559 172 l 559 804 l 442 920 l 240 920 l 124 804 l 124 172 l 240 56 m 284 144 l 213 215 l 213 761 l 284 831 l 399 831 l 469 761 l 469 215 l 399 144 l 284 144 m 733 906 l 733 808 l 679 750 l 559 750 l 559 705 l 713 705 l 803 806 l 803 906 l 733 906 m 688 941 l 847 941 l 847 803 l 733 673 l 613 673 l 613 143 l 469 0 l 213 0 l 69 143 l 69 829 l 213 972 l 469 972 l 613 829 l 613 782 l 657 782 l 688 813 l 688 941 m 267 -188 l 267 -42 l 415 -42 l 415 -188 l 267 -188 m 310 -147 l 371 -147 l 371 -84 l 310 -84 l 310 -147 z "},"Ờ":{"ha":826,"x_min":69,"x_max":847,"o":"m 308 197 l 374 197 l 416 239 l 416 733 l 374 776 l 308 776 l 266 733 l 266 239 l 308 197 m 240 56 l 442 56 l 559 172 l 559 804 l 442 920 l 240 920 l 124 804 l 124 172 l 240 56 m 284 144 l 213 215 l 213 761 l 284 831 l 399 831 l 469 761 l 469 215 l 399 144 l 284 144 m 733 906 l 733 808 l 679 750 l 559 750 l 559 705 l 713 705 l 803 806 l 803 906 l 733 906 m 688 941 l 847 941 l 847 803 l 733 673 l 613 673 l 613 143 l 469 0 l 213 0 l 69 143 l 69 829 l 213 972 l 469 972 l 613 829 l 613 782 l 657 782 l 688 813 l 688 941 m 442 994 l 270 994 l 73 1178 l 272 1178 l 442 994 m 358 1028 l 249 1144 l 167 1144 l 288 1028 l 358 1028 z "},"Ở":{"ha":826,"x_min":69,"x_max":847,"o":"m 308 197 l 374 197 l 416 239 l 416 733 l 374 776 l 308 776 l 266 733 l 266 239 l 308 197 m 240 56 l 442 56 l 559 172 l 559 804 l 442 920 l 240 920 l 124 804 l 124 172 l 240 56 m 284 144 l 213 215 l 213 761 l 284 831 l 399 831 l 469 761 l 469 215 l 399 144 l 284 144 m 733 906 l 733 808 l 679 750 l 559 750 l 559 705 l 713 705 l 803 806 l 803 906 l 733 906 m 688 941 l 847 941 l 847 803 l 733 673 l 613 673 l 613 143 l 469 0 l 213 0 l 69 143 l 69 829 l 213 972 l 469 972 l 613 829 l 613 782 l 657 782 l 688 813 l 688 941 m 175 1251 l 394 1251 l 507 1120 l 394 990 l 224 990 l 224 1099 l 317 1099 l 338 1120 l 317 1142 l 175 1142 l 175 1251 m 214 1219 l 214 1174 l 338 1174 l 387 1120 l 338 1067 l 264 1067 l 264 1022 l 372 1022 l 460 1120 l 372 1219 l 214 1219 z "},"Ỡ":{"ha":826,"x_min":69,"x_max":847,"o":"m 308 197 l 374 197 l 416 239 l 416 733 l 374 776 l 308 776 l 266 733 l 266 239 l 308 197 m 240 56 l 442 56 l 559 172 l 559 804 l 442 920 l 240 920 l 124 804 l 124 172 l 240 56 m 284 144 l 213 215 l 213 761 l 284 831 l 399 831 l 469 761 l 469 215 l 399 144 l 284 144 m 733 906 l 733 808 l 679 750 l 559 750 l 559 705 l 713 705 l 803 806 l 803 906 l 733 906 m 688 941 l 847 941 l 847 803 l 733 673 l 613 673 l 613 143 l 469 0 l 213 0 l 69 143 l 69 829 l 213 972 l 469 972 l 613 829 l 613 782 l 657 782 l 688 813 l 688 941 m 147 994 l 147 1089 l 225 1167 l 349 1167 l 388 1128 l 400 1128 l 400 1167 l 533 1167 l 533 1072 l 456 994 l 332 994 l 293 1033 l 281 1033 l 281 994 l 147 994 m 188 1028 l 244 1028 l 244 1048 l 269 1074 l 308 1074 l 351 1031 l 435 1031 l 495 1093 l 495 1133 l 438 1133 l 438 1114 l 414 1088 l 372 1088 l 329 1131 l 247 1131 l 188 1069 l 188 1028 z "},"Ő":{"ha":682,"x_min":69,"x_max":669,"o":"m 213 0 l 69 143 l 69 829 l 213 972 l 469 972 l 613 829 l 613 143 l 469 0 l 213 0 m 308 197 l 374 197 l 416 239 l 416 733 l 374 776 l 308 776 l 266 733 l 266 239 l 308 197 m 240 56 l 442 56 l 559 172 l 559 804 l 442 920 l 240 920 l 124 804 l 124 172 l 240 56 m 284 144 l 213 215 l 213 761 l 284 831 l 399 831 l 469 761 l 469 215 l 399 144 l 284 144 m 369 994 l 470 1178 l 669 1178 l 534 994 l 369 994 m 193 1026 l 262 1026 l 343 1144 l 260 1144 l 193 1026 m 125 994 l 226 1178 l 425 1178 l 290 994 l 125 994 m 438 1026 l 506 1026 l 588 1144 l 504 1144 l 438 1026 z "},"Ȏ":{"ha":682,"x_min":69,"x_max":613,"o":"m 213 0 l 69 143 l 69 829 l 213 972 l 469 972 l 613 829 l 613 143 l 469 0 l 213 0 m 308 197 l 374 197 l 416 239 l 416 733 l 374 776 l 308 776 l 266 733 l 266 239 l 308 197 m 240 56 l 442 56 l 559 172 l 559 804 l 442 920 l 240 920 l 124 804 l 124 172 l 240 56 m 284 144 l 213 215 l 213 761 l 284 831 l 399 831 l 469 761 l 469 215 l 399 144 l 284 144 m 424 1180 l 501 1102 l 501 994 l 368 994 l 368 1047 l 314 1047 l 314 994 l 181 994 l 181 1102 l 258 1180 l 424 1180 m 401 1143 l 280 1143 l 220 1081 l 220 1032 l 277 1032 l 277 1060 l 301 1087 l 380 1087 l 404 1060 l 404 1032 l 461 1032 l 461 1081 l 401 1143 z "},"Ō":{"ha":682,"x_min":69,"x_max":613,"o":"m 213 0 l 69 143 l 69 829 l 213 972 l 469 972 l 613 829 l 613 143 l 469 0 l 213 0 m 308 197 l 374 197 l 416 239 l 416 733 l 374 776 l 308 776 l 266 733 l 266 239 l 308 197 m 240 56 l 442 56 l 559 172 l 559 804 l 442 920 l 240 920 l 124 804 l 124 172 l 240 56 m 284 144 l 213 215 l 213 761 l 284 831 l 399 831 l 469 761 l 469 215 l 399 144 l 284 144 m 122 994 l 122 1172 l 560 1172 l 560 994 l 122 994 m 176 1042 l 510 1042 l 510 1121 l 176 1121 l 176 1042 z "},"Ṓ":{"ha":682,"x_min":69,"x_max":624,"o":"m 213 0 l 69 143 l 69 829 l 213 972 l 469 972 l 613 829 l 613 143 l 469 0 l 213 0 m 308 197 l 374 197 l 416 239 l 416 733 l 374 776 l 308 776 l 266 733 l 266 239 l 308 197 m 240 56 l 442 56 l 559 172 l 559 804 l 442 920 l 240 920 l 124 804 l 124 172 l 240 56 m 284 144 l 213 215 l 213 761 l 284 831 l 399 831 l 469 761 l 469 215 l 399 144 l 284 144 m 122 994 l 122 1172 l 560 1172 l 560 994 l 122 994 m 176 1042 l 510 1042 l 510 1121 l 176 1121 l 176 1042 m 256 1194 l 425 1377 l 624 1377 l 427 1194 l 256 1194 m 340 1227 l 410 1227 l 531 1343 l 449 1343 l 340 1227 z "},"Ṑ":{"ha":682,"x_min":69,"x_max":613,"o":"m 213 0 l 69 143 l 69 829 l 213 972 l 469 972 l 613 829 l 613 143 l 469 0 l 213 0 m 308 197 l 374 197 l 416 239 l 416 733 l 374 776 l 308 776 l 266 733 l 266 239 l 308 197 m 240 56 l 442 56 l 559 172 l 559 804 l 442 920 l 240 920 l 124 804 l 124 172 l 240 56 m 284 144 l 213 215 l 213 761 l 284 831 l 399 831 l 469 761 l 469 215 l 399 144 l 284 144 m 122 994 l 122 1172 l 560 1172 l 560 994 l 122 994 m 176 1042 l 510 1042 l 510 1121 l 176 1121 l 176 1042 m 442 1194 l 270 1194 l 73 1377 l 272 1377 l 442 1194 m 358 1227 l 249 1343 l 167 1343 l 288 1227 l 358 1227 z "},"Ǫ":{"ha":835,"x_min":69,"x_max":765,"o":"m 308 197 l 526 197 l 569 239 l 569 733 l 526 776 l 308 776 l 266 733 l 266 239 l 308 197 m 240 56 l 595 56 l 712 172 l 712 804 l 595 920 l 240 920 l 124 804 l 124 172 l 240 56 m 284 144 l 213 215 l 213 761 l 284 831 l 552 831 l 622 761 l 622 215 l 552 144 l 284 144 m 458 56 l 289 -125 l 376 -224 l 541 -224 l 541 -179 l 395 -179 l 345 -125 l 519 56 l 458 56 m 622 972 l 765 829 l 765 143 l 622 0 l 514 0 l 389 -125 l 410 -147 l 573 -147 l 573 -256 l 361 -256 l 248 -125 l 360 0 l 213 0 l 69 143 l 69 829 l 213 972 l 622 972 z "},"Ø":{"ha":944,"x_min":65,"x_max":880,"o":"m 201 -37 l 65 60 l 115 131 l 101 143 l 101 829 l 244 972 l 692 972 l 703 961 l 743 1017 l 880 922 l 823 841 l 835 829 l 835 143 l 692 0 l 244 0 l 235 10 l 201 -37 m 366 197 l 596 197 l 638 239 l 638 581 l 366 197 m 324 138 l 283 162 l 685 731 l 698 703 l 698 208 l 627 138 l 324 138 m 183 18 l 231 85 l 267 49 l 671 49 l 787 165 l 787 811 l 760 837 l 819 919 l 759 960 l 709 889 l 671 927 l 267 927 l 150 811 l 150 165 l 177 138 l 122 61 l 183 18 m 252 242 l 240 272 l 240 768 l 310 838 l 614 838 l 656 813 l 252 242 m 298 389 l 572 776 l 341 776 l 298 733 l 298 389 z "},"Ǿ":{"ha":944,"x_min":65,"x_max":880,"o":"m 201 -37 l 65 60 l 115 131 l 101 143 l 101 829 l 244 972 l 692 972 l 703 961 l 743 1017 l 880 922 l 823 841 l 835 829 l 835 143 l 692 0 l 244 0 l 235 10 l 201 -37 m 366 197 l 596 197 l 638 239 l 638 581 l 366 197 m 324 138 l 283 162 l 685 731 l 698 703 l 698 208 l 627 138 l 324 138 m 183 18 l 231 85 l 267 49 l 671 49 l 787 165 l 787 811 l 760 837 l 819 919 l 759 960 l 709 889 l 671 927 l 267 927 l 150 811 l 150 165 l 177 138 l 122 61 l 183 18 m 252 242 l 240 272 l 240 768 l 310 838 l 614 838 l 656 813 l 252 242 m 298 389 l 572 776 l 341 776 l 298 733 l 298 389 m 376 994 l 546 1178 l 745 1178 l 548 994 l 376 994 m 461 1028 l 531 1028 l 651 1144 l 569 1144 l 461 1028 z "},"Õ":{"ha":682,"x_min":69,"x_max":613,"o":"m 213 0 l 69 143 l 69 829 l 213 972 l 469 972 l 613 829 l 613 143 l 469 0 l 213 0 m 308 197 l 374 197 l 416 239 l 416 733 l 374 776 l 308 776 l 266 733 l 266 239 l 308 197 m 240 56 l 442 56 l 559 172 l 559 804 l 442 920 l 240 920 l 124 804 l 124 172 l 240 56 m 284 144 l 213 215 l 213 761 l 284 831 l 399 831 l 469 761 l 469 215 l 399 144 l 284 144 m 147 994 l 147 1089 l 225 1167 l 349 1167 l 388 1128 l 400 1128 l 400 1167 l 533 1167 l 533 1072 l 456 994 l 332 994 l 293 1033 l 281 1033 l 281 994 l 147 994 m 188 1028 l 244 1028 l 244 1048 l 269 1074 l 308 1074 l 351 1031 l 435 1031 l 495 1093 l 495 1133 l 438 1133 l 438 1114 l 414 1088 l 372 1088 l 329 1131 l 247 1131 l 188 1069 l 188 1028 z "},"Ṍ":{"ha":682,"x_min":69,"x_max":624,"o":"m 213 0 l 69 143 l 69 829 l 213 972 l 469 972 l 613 829 l 613 143 l 469 0 l 213 0 m 308 197 l 374 197 l 416 239 l 416 733 l 374 776 l 308 776 l 266 733 l 266 239 l 308 197 m 240 56 l 442 56 l 559 172 l 559 804 l 442 920 l 240 920 l 124 804 l 124 172 l 240 56 m 284 144 l 213 215 l 213 761 l 284 831 l 399 831 l 469 761 l 469 215 l 399 144 l 284 144 m 147 994 l 147 1089 l 225 1167 l 349 1167 l 388 1128 l 400 1128 l 400 1167 l 533 1167 l 533 1072 l 456 994 l 332 994 l 293 1033 l 281 1033 l 281 994 l 147 994 m 188 1028 l 244 1028 l 244 1048 l 269 1074 l 308 1074 l 351 1031 l 435 1031 l 495 1093 l 495 1133 l 438 1133 l 438 1114 l 414 1088 l 372 1088 l 329 1131 l 247 1131 l 188 1069 l 188 1028 m 256 1189 l 425 1372 l 624 1372 l 427 1189 l 256 1189 m 340 1222 l 410 1222 l 531 1338 l 449 1338 l 340 1222 z "},"Ṏ":{"ha":682,"x_min":69,"x_max":613,"o":"m 213 0 l 69 143 l 69 829 l 213 972 l 469 972 l 613 829 l 613 143 l 469 0 l 213 0 m 308 197 l 374 197 l 416 239 l 416 733 l 374 776 l 308 776 l 266 733 l 266 239 l 308 197 m 240 56 l 442 56 l 559 172 l 559 804 l 442 920 l 240 920 l 124 804 l 124 172 l 240 56 m 284 144 l 213 215 l 213 761 l 284 831 l 399 831 l 469 761 l 469 215 l 399 144 l 284 144 m 147 994 l 147 1089 l 225 1167 l 349 1167 l 388 1128 l 400 1128 l 400 1167 l 533 1167 l 533 1072 l 456 994 l 332 994 l 293 1033 l 281 1033 l 281 994 l 147 994 m 188 1028 l 244 1028 l 244 1048 l 269 1074 l 308 1074 l 351 1031 l 435 1031 l 495 1093 l 495 1133 l 438 1133 l 438 1114 l 414 1088 l 372 1088 l 329 1131 l 247 1131 l 188 1069 l 188 1028 m 413 1203 l 413 1349 l 560 1349 l 560 1203 l 413 1203 m 124 1203 l 124 1349 l 271 1349 l 271 1203 l 124 1203 m 166 1244 l 227 1244 l 227 1307 l 166 1307 l 166 1244 m 456 1244 l 517 1244 l 517 1307 l 456 1307 l 456 1244 z "},"Ȭ":{"ha":682,"x_min":69,"x_max":613,"o":"m 213 0 l 69 143 l 69 829 l 213 972 l 469 972 l 613 829 l 613 143 l 469 0 l 213 0 m 308 197 l 374 197 l 416 239 l 416 733 l 374 776 l 308 776 l 266 733 l 266 239 l 308 197 m 240 56 l 442 56 l 559 172 l 559 804 l 442 920 l 240 920 l 124 804 l 124 172 l 240 56 m 284 144 l 213 215 l 213 761 l 284 831 l 399 831 l 469 761 l 469 215 l 399 144 l 284 144 m 147 994 l 147 1089 l 225 1167 l 349 1167 l 388 1128 l 400 1128 l 400 1167 l 533 1167 l 533 1072 l 456 994 l 332 994 l 293 1033 l 281 1033 l 281 994 l 147 994 m 188 1028 l 244 1028 l 244 1048 l 269 1074 l 308 1074 l 351 1031 l 435 1031 l 495 1093 l 495 1133 l 438 1133 l 438 1114 l 414 1088 l 372 1088 l 329 1131 l 247 1131 l 188 1069 l 188 1028 m 122 1188 l 122 1366 l 560 1366 l 560 1188 l 122 1188 m 176 1236 l 510 1236 l 510 1315 l 176 1315 l 176 1236 z "},"Œ":{"ha":1314,"x_min":99,"x_max":1214,"o":"m 242 0 l 99 143 l 99 829 l 242 972 l 1214 972 l 1214 776 l 832 776 l 832 589 l 1187 589 l 1187 392 l 832 392 l 832 197 l 1214 197 l 1214 0 l 242 0 m 312 138 l 242 208 l 242 768 l 312 838 l 621 838 l 691 768 l 691 208 l 621 138 l 312 138 m 338 197 l 593 197 l 635 239 l 635 733 l 593 776 l 338 776 l 295 733 l 295 239 l 338 197 m 268 49 l 667 49 l 710 89 l 714 49 l 1169 49 l 1169 138 l 781 138 l 781 447 l 1142 447 l 1142 537 l 781 537 l 781 838 l 1169 838 l 1169 927 l 714 927 l 710 887 l 667 927 l 268 927 l 152 811 l 152 165 l 268 49 z "},"P":{"ha":640,"x_min":76,"x_max":583,"o":"m 76 0 l 76 972 l 440 972 l 583 829 l 583 447 l 427 290 l 273 290 l 273 0 l 76 0 m 129 47 l 219 47 l 219 346 l 403 346 l 532 475 l 532 804 l 416 920 l 129 920 l 129 47 m 273 487 l 331 487 l 388 542 l 388 733 l 345 776 l 273 776 l 273 487 m 219 435 l 219 831 l 373 831 l 443 761 l 443 517 l 360 435 l 219 435 z "},"Þ":{"ha":765,"x_min":63,"x_max":703,"o":"m 63 0 l 63 972 l 259 972 l 259 750 l 559 750 l 703 607 l 703 365 l 559 222 l 259 222 l 259 0 l 63 0 m 116 52 l 205 52 l 205 277 l 528 277 l 648 397 l 648 586 l 535 699 l 205 699 l 205 922 l 116 922 l 116 52 m 205 366 l 205 610 l 491 610 l 559 543 l 559 440 l 484 366 l 205 366 m 259 419 l 464 419 l 506 461 l 506 511 l 464 554 l 259 554 l 259 419 z "},"Q":{"ha":708,"x_min":69,"x_max":638,"o":"m 505 -168 l 338 0 l 213 0 l 69 143 l 69 829 l 213 972 l 488 972 l 631 829 l 631 143 l 547 59 l 638 -35 l 505 -168 m 513 -102 l 574 -42 l 459 75 l 481 75 l 578 172 l 578 804 l 462 920 l 240 920 l 124 804 l 124 172 l 240 56 l 358 56 l 513 -102 m 308 197 l 392 197 l 435 239 l 435 733 l 392 776 l 308 776 l 266 733 l 266 239 l 308 197 m 284 144 l 213 215 l 213 761 l 284 831 l 418 831 l 488 761 l 488 215 l 418 144 l 284 144 z "},"R":{"ha":666,"x_min":76,"x_max":597,"o":"m 76 0 l 76 972 l 453 972 l 597 829 l 597 528 l 512 450 l 597 358 l 597 0 l 400 0 l 400 288 l 331 358 l 273 358 l 273 0 l 76 0 m 131 53 l 219 53 l 219 414 l 353 414 l 455 308 l 455 53 l 544 53 l 544 337 l 435 456 l 542 549 l 542 803 l 426 919 l 131 919 l 131 53 m 273 554 l 358 554 l 400 597 l 400 733 l 358 776 l 273 776 l 273 554 m 219 503 l 219 831 l 382 831 l 452 760 l 452 578 l 367 503 l 219 503 z "},"Ŕ":{"ha":666,"x_min":76,"x_max":627,"o":"m 76 0 l 76 972 l 453 972 l 597 829 l 597 528 l 512 450 l 597 358 l 597 0 l 400 0 l 400 288 l 331 358 l 273 358 l 273 0 l 76 0 m 131 53 l 219 53 l 219 414 l 353 414 l 455 308 l 455 53 l 544 53 l 544 337 l 435 456 l 542 549 l 542 803 l 426 919 l 131 919 l 131 53 m 273 554 l 358 554 l 400 597 l 400 733 l 358 776 l 273 776 l 273 554 m 219 503 l 219 831 l 382 831 l 452 760 l 452 578 l 367 503 l 219 503 m 258 994 l 428 1178 l 627 1178 l 430 994 l 258 994 m 343 1028 l 413 1028 l 533 1144 l 451 1144 l 343 1028 z "},"Ř":{"ha":666,"x_min":76,"x_max":597,"o":"m 76 0 l 76 972 l 453 972 l 597 829 l 597 528 l 512 450 l 597 358 l 597 0 l 400 0 l 400 288 l 331 358 l 273 358 l 273 0 l 76 0 m 131 53 l 219 53 l 219 414 l 353 414 l 455 308 l 455 53 l 544 53 l 544 337 l 435 456 l 542 549 l 542 803 l 426 919 l 131 919 l 131 53 m 273 554 l 358 554 l 400 597 l 400 733 l 358 776 l 273 776 l 273 554 m 219 503 l 219 831 l 382 831 l 452 760 l 452 578 l 367 503 l 219 503 m 256 994 l 101 1192 l 293 1192 l 344 1117 l 394 1192 l 587 1192 l 431 994 l 256 994 m 283 1031 l 403 1031 l 496 1151 l 414 1151 l 360 1073 l 326 1073 l 272 1151 l 191 1151 l 283 1031 z "},"Ŗ":{"ha":666,"x_min":76,"x_max":597,"o":"m 76 0 l 76 972 l 453 972 l 597 829 l 597 528 l 512 450 l 597 358 l 597 0 l 400 0 l 400 288 l 331 358 l 273 358 l 273 0 l 76 0 m 131 53 l 219 53 l 219 414 l 353 414 l 455 308 l 455 53 l 544 53 l 544 337 l 435 456 l 542 549 l 542 803 l 426 919 l 131 919 l 131 53 m 273 554 l 358 554 l 400 597 l 400 733 l 358 776 l 273 776 l 273 554 m 219 503 l 219 831 l 382 831 l 452 760 l 452 578 l 367 503 l 219 503 m 172 -368 l 251 -50 l 439 -50 l 328 -368 l 172 -368 m 231 -322 l 294 -322 l 372 -106 l 285 -106 l 231 -322 z "},"Ȑ":{"ha":666,"x_min":-69,"x_max":597,"o":"m 76 0 l 76 972 l 453 972 l 597 829 l 597 528 l 512 450 l 597 358 l 597 0 l 400 0 l 400 288 l 331 358 l 273 358 l 273 0 l 76 0 m 131 53 l 219 53 l 219 414 l 353 414 l 455 308 l 455 53 l 544 53 l 544 337 l 435 456 l 542 549 l 542 803 l 426 919 l 131 919 l 131 53 m 273 554 l 358 554 l 400 597 l 400 733 l 358 776 l 273 776 l 273 554 m 219 503 l 219 831 l 382 831 l 452 760 l 452 578 l 367 503 l 219 503 m 572 994 l 400 994 l 203 1178 l 402 1178 l 572 994 m 488 1028 l 379 1144 l 297 1144 l 417 1028 l 488 1028 m 299 994 l 128 994 l -69 1178 l 130 1178 l 299 994 m 215 1028 l 107 1144 l 25 1144 l 145 1028 l 215 1028 z "},"Ṛ":{"ha":666,"x_min":76,"x_max":597,"o":"m 76 0 l 76 972 l 453 972 l 597 829 l 597 528 l 512 450 l 597 358 l 597 0 l 400 0 l 400 288 l 331 358 l 273 358 l 273 0 l 76 0 m 131 53 l 219 53 l 219 414 l 353 414 l 455 308 l 455 53 l 544 53 l 544 337 l 435 456 l 542 549 l 542 803 l 426 919 l 131 919 l 131 53 m 273 554 l 358 554 l 400 597 l 400 733 l 358 776 l 273 776 l 273 554 m 219 503 l 219 831 l 382 831 l 452 760 l 452 578 l 367 503 l 219 503 m 270 -188 l 270 -42 l 417 -42 l 417 -188 l 270 -188 m 313 -147 l 374 -147 l 374 -84 l 313 -84 l 313 -147 z "},"Ȓ":{"ha":666,"x_min":76,"x_max":597,"o":"m 76 0 l 76 972 l 453 972 l 597 829 l 597 528 l 512 450 l 597 358 l 597 0 l 400 0 l 400 288 l 331 358 l 273 358 l 273 0 l 76 0 m 131 53 l 219 53 l 219 414 l 353 414 l 455 308 l 455 53 l 544 53 l 544 337 l 435 456 l 542 549 l 542 803 l 426 919 l 131 919 l 131 53 m 273 554 l 358 554 l 400 597 l 400 733 l 358 776 l 273 776 l 273 554 m 219 503 l 219 831 l 382 831 l 452 760 l 452 578 l 367 503 l 219 503 m 426 1180 l 504 1102 l 504 994 l 371 994 l 371 1047 l 317 1047 l 317 994 l 183 994 l 183 1102 l 261 1180 l 426 1180 m 404 1143 l 283 1143 l 223 1081 l 223 1032 l 280 1032 l 280 1060 l 304 1087 l 383 1087 l 407 1060 l 407 1032 l 464 1032 l 464 1081 l 404 1143 z "},"Ṟ":{"ha":666,"x_min":76,"x_max":597,"o":"m 76 0 l 76 972 l 453 972 l 597 829 l 597 528 l 512 450 l 597 358 l 597 0 l 400 0 l 400 288 l 331 358 l 273 358 l 273 0 l 76 0 m 131 53 l 219 53 l 219 414 l 353 414 l 455 308 l 455 53 l 544 53 l 544 337 l 435 456 l 542 549 l 542 803 l 426 919 l 131 919 l 131 53 m 273 554 l 358 554 l 400 597 l 400 733 l 358 776 l 273 776 l 273 554 m 219 503 l 219 831 l 382 831 l 452 760 l 452 578 l 367 503 l 219 503 m 124 -226 l 124 -49 l 563 -49 l 563 -226 l 124 -226 m 179 -178 l 513 -178 l 513 -99 l 179 -99 l 179 -178 z "},"S":{"ha":679,"x_min":69,"x_max":610,"o":"m 213 0 l 69 143 l 69 318 l 266 318 l 266 239 l 308 197 l 371 197 l 413 239 l 413 346 l 371 388 l 217 388 l 74 531 l 74 829 l 217 972 l 453 972 l 597 829 l 597 654 l 400 654 l 400 733 l 358 776 l 313 776 l 269 733 l 269 627 l 313 585 l 467 585 l 610 442 l 610 143 l 467 0 l 213 0 m 238 53 l 438 53 l 554 169 l 554 422 l 445 532 l 288 532 l 217 602 l 217 760 l 287 829 l 386 829 l 453 763 l 453 703 l 542 703 l 542 806 l 430 919 l 243 919 l 127 803 l 127 560 l 244 442 l 401 442 l 465 381 l 465 213 l 394 142 l 281 142 l 215 209 l 215 269 l 125 269 l 125 166 l 238 53 z "},"Ś":{"ha":679,"x_min":69,"x_max":623,"o":"m 213 0 l 69 143 l 69 318 l 266 318 l 266 239 l 308 197 l 371 197 l 413 239 l 413 346 l 371 388 l 217 388 l 74 531 l 74 829 l 217 972 l 453 972 l 597 829 l 597 654 l 400 654 l 400 733 l 358 776 l 313 776 l 269 733 l 269 627 l 313 585 l 467 585 l 610 442 l 610 143 l 467 0 l 213 0 m 238 53 l 438 53 l 554 169 l 554 422 l 445 532 l 288 532 l 217 602 l 217 760 l 287 829 l 386 829 l 453 763 l 453 703 l 542 703 l 542 806 l 430 919 l 243 919 l 127 803 l 127 560 l 244 442 l 401 442 l 465 381 l 465 213 l 394 142 l 281 142 l 215 209 l 215 269 l 125 269 l 125 166 l 238 53 m 254 994 l 424 1178 l 623 1178 l 426 994 l 254 994 m 339 1028 l 409 1028 l 529 1144 l 447 1144 l 339 1028 z "},"Ṥ":{"ha":679,"x_min":69,"x_max":623,"o":"m 213 0 l 69 143 l 69 318 l 266 318 l 266 239 l 308 197 l 371 197 l 413 239 l 413 346 l 371 388 l 217 388 l 74 531 l 74 829 l 217 972 l 453 972 l 597 829 l 597 654 l 400 654 l 400 733 l 358 776 l 313 776 l 269 733 l 269 627 l 313 585 l 467 585 l 610 442 l 610 143 l 467 0 l 213 0 m 238 53 l 438 53 l 554 169 l 554 422 l 445 532 l 288 532 l 217 602 l 217 760 l 287 829 l 386 829 l 453 763 l 453 703 l 542 703 l 542 806 l 430 919 l 243 919 l 127 803 l 127 560 l 244 442 l 401 442 l 465 381 l 465 213 l 394 142 l 281 142 l 215 209 l 215 269 l 125 269 l 125 166 l 238 53 m 254 994 l 424 1178 l 623 1178 l 426 994 l 254 994 m 339 1028 l 409 1028 l 529 1144 l 447 1144 l 339 1028 m 369 1214 l 369 1360 l 516 1360 l 516 1214 l 369 1214 m 411 1255 l 472 1255 l 472 1318 l 411 1318 l 411 1255 z "},"Š":{"ha":679,"x_min":69,"x_max":610,"o":"m 213 0 l 69 143 l 69 318 l 266 318 l 266 239 l 308 197 l 371 197 l 413 239 l 413 346 l 371 388 l 217 388 l 74 531 l 74 829 l 217 972 l 453 972 l 597 829 l 597 654 l 400 654 l 400 733 l 358 776 l 313 776 l 269 733 l 269 627 l 313 585 l 467 585 l 610 442 l 610 143 l 467 0 l 213 0 m 238 53 l 438 53 l 554 169 l 554 422 l 445 532 l 288 532 l 217 602 l 217 760 l 287 829 l 386 829 l 453 763 l 453 703 l 542 703 l 542 806 l 430 919 l 243 919 l 127 803 l 127 560 l 244 442 l 401 442 l 465 381 l 465 213 l 394 142 l 281 142 l 215 209 l 215 269 l 125 269 l 125 166 l 238 53 m 252 994 l 97 1192 l 289 1192 l 340 1117 l 390 1192 l 583 1192 l 427 994 l 252 994 m 278 1031 l 399 1031 l 492 1151 l 410 1151 l 356 1073 l 322 1073 l 268 1151 l 187 1151 l 278 1031 z "},"Ṧ":{"ha":679,"x_min":69,"x_max":610,"o":"m 213 0 l 69 143 l 69 318 l 266 318 l 266 239 l 308 197 l 371 197 l 413 239 l 413 346 l 371 388 l 217 388 l 74 531 l 74 829 l 217 972 l 453 972 l 597 829 l 597 654 l 400 654 l 400 733 l 358 776 l 313 776 l 269 733 l 269 627 l 313 585 l 467 585 l 610 442 l 610 143 l 467 0 l 213 0 m 238 53 l 438 53 l 554 169 l 554 422 l 445 532 l 288 532 l 217 602 l 217 760 l 287 829 l 386 829 l 453 763 l 453 703 l 542 703 l 542 806 l 430 919 l 243 919 l 127 803 l 127 560 l 244 442 l 401 442 l 465 381 l 465 213 l 394 142 l 281 142 l 215 209 l 215 269 l 125 269 l 125 166 l 238 53 m 252 994 l 97 1192 l 289 1192 l 340 1117 l 390 1192 l 583 1192 l 427 994 l 252 994 m 278 1031 l 399 1031 l 492 1151 l 410 1151 l 356 1073 l 322 1073 l 268 1151 l 187 1151 l 278 1031 m 267 1228 l 267 1374 l 414 1374 l 414 1228 l 267 1228 m 309 1269 l 370 1269 l 370 1332 l 309 1332 l 309 1269 z "},"Ş":{"ha":835,"x_min":71,"x_max":764,"o":"m 286 -242 l 286 -133 l 428 -133 l 449 -111 l 428 -90 l 335 -90 l 335 0 l 214 0 l 71 143 l 71 318 l 267 318 l 267 239 l 310 197 l 525 197 l 567 239 l 567 318 l 525 360 l 218 423 l 75 566 l 75 829 l 218 972 l 608 972 l 751 829 l 751 654 l 554 654 l 554 733 l 512 776 l 314 776 l 271 733 l 271 662 l 314 619 l 621 557 l 764 414 l 764 143 l 621 0 l 522 0 l 618 -111 l 505 -242 l 286 -242 m 325 -210 l 483 -210 l 571 -111 l 483 -13 l 454 -13 l 454 53 l 592 53 l 708 169 l 708 394 l 599 504 l 289 567 l 218 637 l 218 760 l 288 829 l 540 829 l 608 763 l 608 703 l 697 703 l 697 806 l 584 919 l 244 919 l 128 803 l 128 594 l 246 476 l 556 414 l 619 353 l 619 213 l 549 142 l 283 142 l 216 209 l 216 272 l 126 272 l 126 166 l 239 53 l 375 53 l 375 -58 l 449 -58 l 498 -111 l 449 -165 l 325 -165 l 325 -210 z "},"Ŝ":{"ha":679,"x_min":69,"x_max":610,"o":"m 213 0 l 69 143 l 69 318 l 266 318 l 266 239 l 308 197 l 371 197 l 413 239 l 413 346 l 371 388 l 217 388 l 74 531 l 74 829 l 217 972 l 453 972 l 597 829 l 597 654 l 400 654 l 400 733 l 358 776 l 313 776 l 269 733 l 269 627 l 313 585 l 467 585 l 610 442 l 610 143 l 467 0 l 213 0 m 238 53 l 438 53 l 554 169 l 554 422 l 445 532 l 288 532 l 217 602 l 217 760 l 287 829 l 386 829 l 453 763 l 453 703 l 542 703 l 542 806 l 430 919 l 243 919 l 127 803 l 127 560 l 244 442 l 401 442 l 465 381 l 465 213 l 394 142 l 281 142 l 215 209 l 215 269 l 125 269 l 125 166 l 238 53 m 252 1192 l 427 1192 l 583 994 l 390 994 l 340 1069 l 289 994 l 97 994 l 252 1192 m 278 1155 l 187 1035 l 268 1035 l 322 1113 l 356 1113 l 410 1035 l 492 1035 l 399 1155 l 278 1155 z "},"Ș":{"ha":679,"x_min":69,"x_max":610,"o":"m 213 0 l 69 143 l 69 318 l 266 318 l 266 239 l 308 197 l 371 197 l 413 239 l 413 346 l 371 388 l 217 388 l 74 531 l 74 829 l 217 972 l 453 972 l 597 829 l 597 654 l 400 654 l 400 733 l 358 776 l 313 776 l 269 733 l 269 627 l 313 585 l 467 585 l 610 442 l 610 143 l 467 0 l 213 0 m 238 53 l 438 53 l 554 169 l 554 422 l 445 532 l 288 532 l 217 602 l 217 760 l 287 829 l 386 829 l 453 763 l 453 703 l 542 703 l 542 806 l 430 919 l 243 919 l 127 803 l 127 560 l 244 442 l 401 442 l 465 381 l 465 213 l 394 142 l 281 142 l 215 209 l 215 269 l 125 269 l 125 166 l 238 53 m 167 -368 l 247 -50 l 435 -50 l 324 -368 l 167 -368 m 226 -322 l 290 -322 l 367 -106 l 281 -106 l 226 -322 z "},"Ṡ":{"ha":679,"x_min":69,"x_max":610,"o":"m 213 0 l 69 143 l 69 318 l 266 318 l 266 239 l 308 197 l 371 197 l 413 239 l 413 346 l 371 388 l 217 388 l 74 531 l 74 829 l 217 972 l 453 972 l 597 829 l 597 654 l 400 654 l 400 733 l 358 776 l 313 776 l 269 733 l 269 627 l 313 585 l 467 585 l 610 442 l 610 143 l 467 0 l 213 0 m 238 53 l 438 53 l 554 169 l 554 422 l 445 532 l 288 532 l 217 602 l 217 760 l 287 829 l 386 829 l 453 763 l 453 703 l 542 703 l 542 806 l 430 919 l 243 919 l 127 803 l 127 560 l 244 442 l 401 442 l 465 381 l 465 213 l 394 142 l 281 142 l 215 209 l 215 269 l 125 269 l 125 166 l 238 53 m 267 1008 l 267 1154 l 414 1154 l 414 1008 l 267 1008 m 309 1049 l 370 1049 l 370 1113 l 309 1113 l 309 1049 z "},"Ṣ":{"ha":679,"x_min":69,"x_max":610,"o":"m 213 0 l 69 143 l 69 318 l 266 318 l 266 239 l 308 197 l 371 197 l 413 239 l 413 346 l 371 388 l 217 388 l 74 531 l 74 829 l 217 972 l 453 972 l 597 829 l 597 654 l 400 654 l 400 733 l 358 776 l 313 776 l 269 733 l 269 627 l 313 585 l 467 585 l 610 442 l 610 143 l 467 0 l 213 0 m 238 53 l 438 53 l 554 169 l 554 422 l 445 532 l 288 532 l 217 602 l 217 760 l 287 829 l 386 829 l 453 763 l 453 703 l 542 703 l 542 806 l 430 919 l 243 919 l 127 803 l 127 560 l 244 442 l 401 442 l 465 381 l 465 213 l 394 142 l 281 142 l 215 209 l 215 269 l 125 269 l 125 166 l 238 53 m 266 -188 l 266 -42 l 413 -42 l 413 -188 l 266 -188 m 308 -147 l 369 -147 l 369 -84 l 308 -84 l 308 -147 z "},"Ṩ":{"ha":679,"x_min":69,"x_max":610,"o":"m 213 0 l 69 143 l 69 318 l 266 318 l 266 239 l 308 197 l 371 197 l 413 239 l 413 346 l 371 388 l 217 388 l 74 531 l 74 829 l 217 972 l 453 972 l 597 829 l 597 654 l 400 654 l 400 733 l 358 776 l 313 776 l 269 733 l 269 627 l 313 585 l 467 585 l 610 442 l 610 143 l 467 0 l 213 0 m 238 53 l 438 53 l 554 169 l 554 422 l 445 532 l 288 532 l 217 602 l 217 760 l 287 829 l 386 829 l 453 763 l 453 703 l 542 703 l 542 806 l 430 919 l 243 919 l 127 803 l 127 560 l 244 442 l 401 442 l 465 381 l 465 213 l 394 142 l 281 142 l 215 209 l 215 269 l 125 269 l 125 166 l 238 53 m 266 -188 l 266 -42 l 413 -42 l 413 -188 l 266 -188 m 308 -147 l 369 -147 l 369 -84 l 308 -84 l 308 -147 m 267 1008 l 267 1154 l 414 1154 l 414 1008 l 267 1008 m 309 1049 l 370 1049 l 370 1113 l 309 1113 l 309 1049 z "},"ẞ":{"ha":782,"x_min":49,"x_max":733,"o":"m 49 0 l 49 829 l 192 972 l 545 972 l 688 829 l 688 581 l 626 519 l 733 412 l 733 157 l 576 0 l 368 0 l 368 197 l 481 197 l 537 253 l 537 323 l 423 437 l 423 594 l 492 663 l 492 733 l 450 776 l 288 776 l 245 733 l 245 0 l 49 0 m 101 54 l 190 54 l 190 767 l 251 829 l 486 829 l 546 766 l 546 639 l 481 574 l 481 458 l 590 348 l 590 224 l 507 144 l 415 144 l 415 55 l 551 55 l 678 178 l 678 387 l 569 499 l 569 537 l 635 603 l 635 810 l 531 918 l 206 918 l 101 812 l 101 54 z "},"Ə":{"ha":863,"x_min":74,"x_max":788,"o":"m 217 0 l 74 143 l 74 473 l 217 616 l 592 616 l 592 733 l 549 776 l 83 776 l 83 972 l 645 972 l 788 829 l 788 143 l 645 0 l 217 0 m 288 142 l 217 213 l 217 419 l 277 479 l 649 479 l 649 217 l 575 142 l 288 142 m 244 53 l 619 53 l 739 174 l 739 802 l 622 919 l 140 919 l 140 831 l 578 831 l 649 759 l 649 565 l 241 565 l 128 452 l 128 170 l 244 53 m 313 197 l 549 197 l 592 239 l 592 426 l 299 426 l 269 397 l 269 239 l 313 197 z "},"T":{"ha":557,"x_min":42,"x_max":515,"o":"m 181 0 l 181 776 l 42 776 l 42 972 l 515 972 l 515 776 l 376 776 l 376 0 l 181 0 m 234 52 l 323 52 l 323 831 l 464 831 l 464 920 l 93 920 l 93 831 l 234 831 l 234 52 z "},"Ŧ":{"ha":745,"x_min":49,"x_max":675,"o":"m 264 0 l 264 489 l 135 489 l 135 660 l 264 660 l 264 776 l 49 776 l 49 972 l 675 972 l 675 776 l 460 776 l 460 660 l 584 660 l 584 489 l 460 489 l 460 0 l 264 0 m 317 52 l 406 52 l 406 536 l 537 536 l 537 613 l 406 613 l 406 831 l 627 831 l 627 920 l 97 920 l 97 831 l 317 831 l 317 613 l 184 613 l 184 536 l 317 536 l 317 52 z "},"Ť":{"ha":557,"x_min":35,"x_max":522,"o":"m 181 0 l 181 776 l 42 776 l 42 972 l 515 972 l 515 776 l 376 776 l 376 0 l 181 0 m 234 52 l 323 52 l 323 831 l 464 831 l 464 920 l 93 920 l 93 831 l 234 831 l 234 52 m 191 994 l 35 1192 l 228 1192 l 278 1117 l 329 1192 l 522 1192 l 366 994 l 191 994 m 217 1031 l 338 1031 l 431 1151 l 349 1151 l 294 1073 l 261 1073 l 207 1151 l 126 1151 l 217 1031 z "},"Ţ":{"ha":738,"x_min":56,"x_max":682,"o":"m 238 -242 l 238 -133 l 380 -133 l 401 -111 l 380 -90 l 271 -90 l 271 776 l 56 776 l 56 972 l 682 972 l 682 776 l 467 776 l 467 7 l 569 -111 l 456 -242 l 238 -242 m 276 -210 l 434 -210 l 522 -111 l 436 -15 l 413 -15 l 413 831 l 634 831 l 634 920 l 103 920 l 103 831 l 324 831 l 324 -58 l 401 -58 l 449 -111 l 401 -165 l 276 -165 l 276 -210 z "},"Ț":{"ha":557,"x_min":42,"x_max":515,"o":"m 181 0 l 181 776 l 42 776 l 42 972 l 515 972 l 515 776 l 376 776 l 376 0 l 181 0 m 234 52 l 323 52 l 323 831 l 464 831 l 464 920 l 93 920 l 93 831 l 234 831 l 234 52 m 106 -368 l 185 -50 l 374 -50 l 263 -368 l 106 -368 m 165 -322 l 229 -322 l 306 -106 l 220 -106 l 165 -322 z "},"Ṭ":{"ha":557,"x_min":42,"x_max":515,"o":"m 181 0 l 181 776 l 42 776 l 42 972 l 515 972 l 515 776 l 376 776 l 376 0 l 181 0 m 234 52 l 323 52 l 323 831 l 464 831 l 464 920 l 93 920 l 93 831 l 234 831 l 234 52 m 205 -188 l 205 -42 l 352 -42 l 352 -188 l 205 -188 m 247 -147 l 308 -147 l 308 -84 l 247 -84 l 247 -147 z "},"Ṯ":{"ha":557,"x_min":42,"x_max":515,"o":"m 181 0 l 181 776 l 42 776 l 42 972 l 515 972 l 515 776 l 376 776 l 376 0 l 181 0 m 234 52 l 323 52 l 323 831 l 464 831 l 464 920 l 93 920 l 93 831 l 234 831 l 234 52 m 59 -226 l 59 -49 l 498 -49 l 498 -226 l 59 -226 m 114 -178 l 447 -178 l 447 -99 l 114 -99 l 114 -178 z "},"U":{"ha":679,"x_min":69,"x_max":610,"o":"m 213 0 l 69 143 l 69 972 l 266 972 l 266 239 l 308 197 l 371 197 l 413 239 l 413 972 l 610 972 l 610 143 l 467 0 l 213 0 m 240 53 l 440 53 l 556 169 l 556 920 l 467 920 l 467 212 l 397 143 l 283 143 l 213 212 l 213 920 l 123 920 l 123 169 l 240 53 z "},"Ú":{"ha":679,"x_min":69,"x_max":624,"o":"m 213 0 l 69 143 l 69 972 l 266 972 l 266 239 l 308 197 l 371 197 l 413 239 l 413 972 l 610 972 l 610 143 l 467 0 l 213 0 m 240 53 l 440 53 l 556 169 l 556 920 l 467 920 l 467 212 l 397 143 l 283 143 l 213 212 l 213 920 l 123 920 l 123 169 l 240 53 m 255 994 l 424 1178 l 624 1178 l 426 994 l 255 994 m 340 1028 l 410 1028 l 530 1144 l 448 1144 l 340 1028 z "},"Ŭ":{"ha":679,"x_min":69,"x_max":610,"o":"m 213 0 l 69 143 l 69 972 l 266 972 l 266 239 l 308 197 l 371 197 l 413 239 l 413 972 l 610 972 l 610 143 l 467 0 l 213 0 m 240 53 l 440 53 l 556 169 l 556 920 l 467 920 l 467 212 l 397 143 l 283 143 l 213 212 l 213 920 l 123 920 l 123 169 l 240 53 m 258 994 l 180 1072 l 180 1181 l 313 1181 l 313 1128 l 367 1128 l 367 1181 l 501 1181 l 501 1072 l 423 994 l 258 994 m 280 1031 l 401 1031 l 461 1093 l 461 1142 l 404 1142 l 404 1114 l 380 1088 l 301 1088 l 277 1114 l 277 1142 l 220 1142 l 220 1093 l 280 1031 z "},"Ǔ":{"ha":679,"x_min":69,"x_max":610,"o":"m 213 0 l 69 143 l 69 972 l 266 972 l 266 239 l 308 197 l 371 197 l 413 239 l 413 972 l 610 972 l 610 143 l 467 0 l 213 0 m 240 53 l 440 53 l 556 169 l 556 920 l 467 920 l 467 212 l 397 143 l 283 143 l 213 212 l 213 920 l 123 920 l 123 169 l 240 53 m 253 994 l 97 1192 l 290 1192 l 340 1117 l 391 1192 l 583 1192 l 428 994 l 253 994 m 279 1031 l 400 1031 l 492 1151 l 410 1151 l 356 1073 l 323 1073 l 269 1151 l 188 1151 l 279 1031 z "},"Û":{"ha":679,"x_min":69,"x_max":610,"o":"m 213 0 l 69 143 l 69 972 l 266 972 l 266 239 l 308 197 l 371 197 l 413 239 l 413 972 l 610 972 l 610 143 l 467 0 l 213 0 m 240 53 l 440 53 l 556 169 l 556 920 l 467 920 l 467 212 l 397 143 l 283 143 l 213 212 l 213 920 l 123 920 l 123 169 l 240 53 m 253 1192 l 428 1192 l 583 994 l 391 994 l 340 1069 l 290 994 l 97 994 l 253 1192 m 279 1155 l 188 1035 l 269 1035 l 323 1113 l 356 1113 l 410 1035 l 492 1035 l 400 1155 l 279 1155 z "},"Ȕ":{"ha":679,"x_min":-73,"x_max":610,"o":"m 213 0 l 69 143 l 69 972 l 266 972 l 266 239 l 308 197 l 371 197 l 413 239 l 413 972 l 610 972 l 610 143 l 467 0 l 213 0 m 240 53 l 440 53 l 556 169 l 556 920 l 467 920 l 467 212 l 397 143 l 283 143 l 213 212 l 213 920 l 123 920 l 123 169 l 240 53 m 568 994 l 397 994 l 199 1178 l 399 1178 l 568 994 m 484 1028 l 376 1144 l 294 1144 l 414 1028 l 484 1028 m 296 994 l 124 994 l -73 1178 l 126 1178 l 296 994 m 212 1028 l 103 1144 l 22 1144 l 142 1028 l 212 1028 z "},"Ü":{"ha":679,"x_min":69,"x_max":610,"o":"m 213 0 l 69 143 l 69 972 l 266 972 l 266 239 l 308 197 l 371 197 l 413 239 l 413 972 l 610 972 l 610 143 l 467 0 l 213 0 m 240 53 l 440 53 l 556 169 l 556 920 l 467 920 l 467 212 l 397 143 l 283 143 l 213 212 l 213 920 l 123 920 l 123 169 l 240 53 m 412 1008 l 412 1154 l 559 1154 l 559 1008 l 412 1008 m 123 1008 l 123 1154 l 270 1154 l 270 1008 l 123 1008 m 165 1049 l 226 1049 l 226 1113 l 165 1113 l 165 1049 m 455 1049 l 516 1049 l 516 1113 l 455 1113 l 455 1049 z "},"Ǘ":{"ha":679,"x_min":69,"x_max":624,"o":"m 213 0 l 69 143 l 69 972 l 266 972 l 266 239 l 308 197 l 371 197 l 413 239 l 413 972 l 610 972 l 610 143 l 467 0 l 213 0 m 240 53 l 440 53 l 556 169 l 556 920 l 467 920 l 467 212 l 397 143 l 283 143 l 213 212 l 213 920 l 123 920 l 123 169 l 240 53 m 412 1008 l 412 1154 l 559 1154 l 559 1008 l 412 1008 m 123 1008 l 123 1154 l 270 1154 l 270 1008 l 123 1008 m 165 1049 l 226 1049 l 226 1113 l 165 1113 l 165 1049 m 455 1049 l 516 1049 l 516 1113 l 455 1113 l 455 1049 m 255 1176 l 424 1360 l 624 1360 l 426 1176 l 255 1176 m 340 1210 l 410 1210 l 530 1326 l 448 1326 l 340 1210 z "},"Ǚ":{"ha":679,"x_min":69,"x_max":610,"o":"m 213 0 l 69 143 l 69 972 l 266 972 l 266 239 l 308 197 l 371 197 l 413 239 l 413 972 l 610 972 l 610 143 l 467 0 l 213 0 m 240 53 l 440 53 l 556 169 l 556 920 l 467 920 l 467 212 l 397 143 l 283 143 l 213 212 l 213 920 l 123 920 l 123 169 l 240 53 m 412 1008 l 412 1154 l 559 1154 l 559 1008 l 412 1008 m 123 1008 l 123 1154 l 270 1154 l 270 1008 l 123 1008 m 165 1049 l 226 1049 l 226 1113 l 165 1113 l 165 1049 m 455 1049 l 516 1049 l 516 1113 l 455 1113 l 455 1049 m 253 1176 l 97 1374 l 290 1374 l 340 1299 l 391 1374 l 583 1374 l 428 1176 l 253 1176 m 279 1213 l 400 1213 l 492 1333 l 410 1333 l 356 1255 l 323 1255 l 269 1333 l 188 1333 l 279 1213 z "},"Ǜ":{"ha":679,"x_min":69,"x_max":610,"o":"m 213 0 l 69 143 l 69 972 l 266 972 l 266 239 l 308 197 l 371 197 l 413 239 l 413 972 l 610 972 l 610 143 l 467 0 l 213 0 m 240 53 l 440 53 l 556 169 l 556 920 l 467 920 l 467 212 l 397 143 l 283 143 l 213 212 l 213 920 l 123 920 l 123 169 l 240 53 m 412 1008 l 412 1154 l 559 1154 l 559 1008 l 412 1008 m 123 1008 l 123 1154 l 270 1154 l 270 1008 l 123 1008 m 165 1049 l 226 1049 l 226 1113 l 165 1113 l 165 1049 m 455 1049 l 516 1049 l 516 1113 l 455 1113 l 455 1049 m 441 1176 l 269 1176 l 72 1360 l 272 1360 l 441 1176 m 357 1210 l 249 1326 l 167 1326 l 287 1210 l 357 1210 z "},"Ǖ":{"ha":679,"x_min":69,"x_max":610,"o":"m 213 0 l 69 143 l 69 972 l 266 972 l 266 239 l 308 197 l 371 197 l 413 239 l 413 972 l 610 972 l 610 143 l 467 0 l 213 0 m 240 53 l 440 53 l 556 169 l 556 920 l 467 920 l 467 212 l 397 143 l 283 143 l 213 212 l 213 920 l 123 920 l 123 169 l 240 53 m 412 1008 l 412 1154 l 559 1154 l 559 1008 l 412 1008 m 123 1008 l 123 1154 l 270 1154 l 270 1008 l 123 1008 m 165 1049 l 226 1049 l 226 1113 l 165 1113 l 165 1049 m 455 1049 l 516 1049 l 516 1113 l 455 1113 l 455 1049 m 121 1176 l 121 1353 l 560 1353 l 560 1176 l 121 1176 m 176 1224 l 509 1224 l 509 1303 l 176 1303 l 176 1224 z "},"Ụ":{"ha":679,"x_min":69,"x_max":610,"o":"m 213 0 l 69 143 l 69 972 l 266 972 l 266 239 l 308 197 l 371 197 l 413 239 l 413 972 l 610 972 l 610 143 l 467 0 l 213 0 m 240 53 l 440 53 l 556 169 l 556 920 l 467 920 l 467 212 l 397 143 l 283 143 l 213 212 l 213 920 l 123 920 l 123 169 l 240 53 m 267 -188 l 267 -42 l 414 -42 l 414 -188 l 267 -188 m 309 -147 l 370 -147 l 370 -84 l 309 -84 l 309 -147 z "},"Ù":{"ha":679,"x_min":69,"x_max":610,"o":"m 213 0 l 69 143 l 69 972 l 266 972 l 266 239 l 308 197 l 371 197 l 413 239 l 413 972 l 610 972 l 610 143 l 467 0 l 213 0 m 240 53 l 440 53 l 556 169 l 556 920 l 467 920 l 467 212 l 397 143 l 283 143 l 213 212 l 213 920 l 123 920 l 123 169 l 240 53 m 441 994 l 269 994 l 72 1178 l 272 1178 l 441 994 m 357 1028 l 249 1144 l 167 1144 l 287 1028 l 357 1028 z "},"Ủ":{"ha":679,"x_min":69,"x_max":610,"o":"m 213 0 l 69 143 l 69 972 l 266 972 l 266 239 l 308 197 l 371 197 l 413 239 l 413 972 l 610 972 l 610 143 l 467 0 l 213 0 m 240 53 l 440 53 l 556 169 l 556 920 l 467 920 l 467 212 l 397 143 l 283 143 l 213 212 l 213 920 l 123 920 l 123 169 l 240 53 m 174 1251 l 393 1251 l 506 1120 l 393 990 l 224 990 l 224 1099 l 317 1099 l 338 1120 l 317 1142 l 174 1142 l 174 1251 m 213 1219 l 213 1174 l 338 1174 l 386 1120 l 338 1067 l 263 1067 l 263 1022 l 371 1022 l 459 1120 l 371 1219 l 213 1219 z "},"Ư":{"ha":826,"x_min":69,"x_max":847,"o":"m 240 53 l 454 53 l 570 169 l 570 920 l 481 920 l 481 212 l 410 143 l 283 143 l 213 212 l 213 920 l 123 920 l 123 169 l 240 53 m 733 906 l 733 808 l 679 750 l 570 750 l 570 705 l 713 705 l 803 806 l 803 906 l 733 906 m 688 941 l 847 941 l 847 803 l 733 673 l 624 673 l 624 143 l 481 0 l 213 0 l 69 143 l 69 972 l 266 972 l 266 239 l 308 197 l 385 197 l 427 239 l 427 972 l 624 972 l 624 782 l 657 782 l 688 813 l 688 941 z "},"Ứ":{"ha":826,"x_min":69,"x_max":847,"o":"m 240 53 l 454 53 l 570 169 l 570 920 l 481 920 l 481 212 l 410 143 l 283 143 l 213 212 l 213 920 l 123 920 l 123 169 l 240 53 m 733 906 l 733 808 l 679 750 l 570 750 l 570 705 l 713 705 l 803 806 l 803 906 l 733 906 m 688 941 l 847 941 l 847 803 l 733 673 l 624 673 l 624 143 l 481 0 l 213 0 l 69 143 l 69 972 l 266 972 l 266 239 l 308 197 l 385 197 l 427 239 l 427 972 l 624 972 l 624 782 l 657 782 l 688 813 l 688 941 m 262 994 l 431 1178 l 631 1178 l 433 994 l 262 994 m 347 1028 l 417 1028 l 537 1144 l 455 1144 l 347 1028 z "},"Ự":{"ha":826,"x_min":69,"x_max":847,"o":"m 240 53 l 454 53 l 570 169 l 570 920 l 481 920 l 481 212 l 410 143 l 283 143 l 213 212 l 213 920 l 123 920 l 123 169 l 240 53 m 733 906 l 733 808 l 679 750 l 570 750 l 570 705 l 713 705 l 803 806 l 803 906 l 733 906 m 688 941 l 847 941 l 847 803 l 733 673 l 624 673 l 624 143 l 481 0 l 213 0 l 69 143 l 69 972 l 266 972 l 266 239 l 308 197 l 385 197 l 427 239 l 427 972 l 624 972 l 624 782 l 657 782 l 688 813 l 688 941 m 274 -188 l 274 -42 l 421 -42 l 421 -188 l 274 -188 m 316 -147 l 377 -147 l 377 -84 l 316 -84 l 316 -147 z "},"Ừ":{"ha":826,"x_min":69,"x_max":847,"o":"m 240 53 l 454 53 l 570 169 l 570 920 l 481 920 l 481 212 l 410 143 l 283 143 l 213 212 l 213 920 l 123 920 l 123 169 l 240 53 m 733 906 l 733 808 l 679 750 l 570 750 l 570 705 l 713 705 l 803 806 l 803 906 l 733 906 m 688 941 l 847 941 l 847 803 l 733 673 l 624 673 l 624 143 l 481 0 l 213 0 l 69 143 l 69 972 l 266 972 l 266 239 l 308 197 l 385 197 l 427 239 l 427 972 l 624 972 l 624 782 l 657 782 l 688 813 l 688 941 m 448 994 l 276 994 l 79 1178 l 278 1178 l 448 994 m 364 1028 l 256 1144 l 174 1144 l 294 1028 l 364 1028 z "},"Ử":{"ha":826,"x_min":69,"x_max":847,"o":"m 240 53 l 454 53 l 570 169 l 570 920 l 481 920 l 481 212 l 410 143 l 283 143 l 213 212 l 213 920 l 123 920 l 123 169 l 240 53 m 733 906 l 733 808 l 679 750 l 570 750 l 570 705 l 713 705 l 803 806 l 803 906 l 733 906 m 688 941 l 847 941 l 847 803 l 733 673 l 624 673 l 624 143 l 481 0 l 213 0 l 69 143 l 69 972 l 266 972 l 266 239 l 308 197 l 385 197 l 427 239 l 427 972 l 624 972 l 624 782 l 657 782 l 688 813 l 688 941 m 181 1251 l 400 1251 l 513 1120 l 400 990 l 231 990 l 231 1099 l 324 1099 l 344 1120 l 324 1142 l 181 1142 l 181 1251 m 220 1219 l 220 1174 l 344 1174 l 393 1120 l 344 1067 l 270 1067 l 270 1022 l 378 1022 l 466 1120 l 378 1219 l 220 1219 z "},"Ữ":{"ha":826,"x_min":69,"x_max":847,"o":"m 240 53 l 454 53 l 570 169 l 570 920 l 481 920 l 481 212 l 410 143 l 283 143 l 213 212 l 213 920 l 123 920 l 123 169 l 240 53 m 733 906 l 733 808 l 679 750 l 570 750 l 570 705 l 713 705 l 803 806 l 803 906 l 733 906 m 688 941 l 847 941 l 847 803 l 733 673 l 624 673 l 624 143 l 481 0 l 213 0 l 69 143 l 69 972 l 266 972 l 266 239 l 308 197 l 385 197 l 427 239 l 427 972 l 624 972 l 624 782 l 657 782 l 688 813 l 688 941 m 153 994 l 153 1089 l 231 1167 l 355 1167 l 394 1128 l 406 1128 l 406 1167 l 540 1167 l 540 1072 l 462 994 l 338 994 l 299 1033 l 287 1033 l 287 994 l 153 994 m 194 1028 l 251 1028 l 251 1048 l 275 1074 l 314 1074 l 358 1031 l 442 1031 l 501 1093 l 501 1133 l 444 1133 l 444 1114 l 420 1088 l 378 1088 l 335 1131 l 253 1131 l 194 1069 l 194 1028 z "},"Ű":{"ha":679,"x_min":69,"x_max":669,"o":"m 213 0 l 69 143 l 69 972 l 266 972 l 266 239 l 308 197 l 371 197 l 413 239 l 413 972 l 610 972 l 610 143 l 467 0 l 213 0 m 240 53 l 440 53 l 556 169 l 556 920 l 467 920 l 467 212 l 397 143 l 283 143 l 213 212 l 213 920 l 123 920 l 123 169 l 240 53 m 369 994 l 469 1178 l 669 1178 l 533 994 l 369 994 m 192 1026 l 261 1026 l 342 1144 l 259 1144 l 192 1026 m 124 994 l 225 1178 l 424 1178 l 289 994 l 124 994 m 437 1026 l 506 1026 l 587 1144 l 503 1144 l 437 1026 z "},"Ȗ":{"ha":679,"x_min":69,"x_max":610,"o":"m 213 0 l 69 143 l 69 972 l 266 972 l 266 239 l 308 197 l 371 197 l 413 239 l 413 972 l 610 972 l 610 143 l 467 0 l 213 0 m 240 53 l 440 53 l 556 169 l 556 920 l 467 920 l 467 212 l 397 143 l 283 143 l 213 212 l 213 920 l 123 920 l 123 169 l 240 53 m 423 1180 l 501 1102 l 501 994 l 367 994 l 367 1047 l 313 1047 l 313 994 l 180 994 l 180 1102 l 258 1180 l 423 1180 m 401 1143 l 279 1143 l 219 1081 l 219 1032 l 276 1032 l 276 1060 l 301 1087 l 379 1087 l 403 1060 l 403 1032 l 460 1032 l 460 1081 l 401 1143 z "},"Ū":{"ha":679,"x_min":69,"x_max":610,"o":"m 213 0 l 69 143 l 69 972 l 266 972 l 266 239 l 308 197 l 371 197 l 413 239 l 413 972 l 610 972 l 610 143 l 467 0 l 213 0 m 240 53 l 440 53 l 556 169 l 556 920 l 467 920 l 467 212 l 397 143 l 283 143 l 213 212 l 213 920 l 123 920 l 123 169 l 240 53 m 121 994 l 121 1172 l 560 1172 l 560 994 l 121 994 m 176 1042 l 509 1042 l 509 1121 l 176 1121 l 176 1042 z "},"Ṻ":{"ha":679,"x_min":69,"x_max":610,"o":"m 213 0 l 69 143 l 69 972 l 266 972 l 266 239 l 308 197 l 371 197 l 413 239 l 413 972 l 610 972 l 610 143 l 467 0 l 213 0 m 240 53 l 440 53 l 556 169 l 556 920 l 467 920 l 467 212 l 397 143 l 283 143 l 213 212 l 213 920 l 123 920 l 123 169 l 240 53 m 121 994 l 121 1172 l 560 1172 l 560 994 l 121 994 m 176 1042 l 509 1042 l 509 1121 l 176 1121 l 176 1042 m 412 1208 l 412 1353 l 559 1353 l 559 1208 l 412 1208 m 123 1208 l 123 1353 l 270 1353 l 270 1208 l 123 1208 m 165 1249 l 226 1249 l 226 1312 l 165 1312 l 165 1249 m 455 1249 l 516 1249 l 516 1312 l 455 1312 l 455 1249 z "},"Ų":{"ha":847,"x_min":69,"x_max":776,"o":"m 345 -256 l 232 -125 l 344 0 l 213 0 l 69 143 l 69 972 l 266 972 l 266 239 l 308 197 l 538 197 l 580 239 l 580 972 l 776 972 l 776 143 l 633 0 l 498 0 l 373 -125 l 394 -147 l 557 -147 l 557 -256 l 345 -256 m 361 -224 l 526 -224 l 526 -179 l 380 -179 l 330 -125 l 502 53 l 607 53 l 723 169 l 723 920 l 634 920 l 634 212 l 563 143 l 283 143 l 213 212 l 213 920 l 123 920 l 123 169 l 240 53 l 439 53 l 274 -125 l 361 -224 z "},"Ů":{"ha":679,"x_min":69,"x_max":610,"o":"m 213 0 l 69 143 l 69 972 l 266 972 l 266 239 l 308 197 l 371 197 l 413 239 l 413 972 l 610 972 l 610 143 l 467 0 l 213 0 m 240 53 l 440 53 l 556 169 l 556 920 l 467 920 l 467 212 l 397 143 l 283 143 l 213 212 l 213 920 l 123 920 l 123 169 l 240 53 m 276 993 l 208 1060 l 208 1181 l 276 1249 l 403 1249 l 472 1181 l 472 1060 l 403 993 l 276 993 m 294 1029 l 387 1029 l 437 1079 l 437 1165 l 387 1215 l 294 1215 l 244 1165 l 244 1079 l 294 1029 m 318 1080 l 297 1102 l 297 1142 l 318 1164 l 363 1164 l 384 1142 l 384 1102 l 363 1080 l 318 1080 m 334 1110 l 346 1110 l 351 1116 l 351 1127 l 346 1133 l 334 1133 l 328 1127 l 328 1116 l 334 1110 z "},"Ũ":{"ha":679,"x_min":69,"x_max":610,"o":"m 213 0 l 69 143 l 69 972 l 266 972 l 266 239 l 308 197 l 371 197 l 413 239 l 413 972 l 610 972 l 610 143 l 467 0 l 213 0 m 240 53 l 440 53 l 556 169 l 556 920 l 467 920 l 467 212 l 397 143 l 283 143 l 213 212 l 213 920 l 123 920 l 123 169 l 240 53 m 147 994 l 147 1089 l 224 1167 l 348 1167 l 387 1128 l 399 1128 l 399 1167 l 533 1167 l 533 1072 l 455 994 l 331 994 l 292 1033 l 280 1033 l 280 994 l 147 994 m 187 1028 l 244 1028 l 244 1048 l 268 1074 l 307 1074 l 351 1031 l 435 1031 l 494 1093 l 494 1133 l 438 1133 l 438 1114 l 413 1088 l 372 1088 l 328 1131 l 247 1131 l 187 1069 l 187 1028 z "},"Ṹ":{"ha":679,"x_min":69,"x_max":624,"o":"m 213 0 l 69 143 l 69 972 l 266 972 l 266 239 l 308 197 l 371 197 l 413 239 l 413 972 l 610 972 l 610 143 l 467 0 l 213 0 m 240 53 l 440 53 l 556 169 l 556 920 l 467 920 l 467 212 l 397 143 l 283 143 l 213 212 l 213 920 l 123 920 l 123 169 l 240 53 m 147 994 l 147 1089 l 224 1167 l 348 1167 l 387 1128 l 399 1128 l 399 1167 l 533 1167 l 533 1072 l 455 994 l 331 994 l 292 1033 l 280 1033 l 280 994 l 147 994 m 187 1028 l 244 1028 l 244 1048 l 268 1074 l 307 1074 l 351 1031 l 435 1031 l 494 1093 l 494 1133 l 438 1133 l 438 1114 l 413 1088 l 372 1088 l 328 1131 l 247 1131 l 187 1069 l 187 1028 m 255 1189 l 424 1372 l 624 1372 l 426 1189 l 255 1189 m 340 1222 l 410 1222 l 530 1338 l 448 1338 l 340 1222 z "},"V":{"ha":679,"x_min":76,"x_max":603,"o":"m 282 0 l 76 206 l 76 972 l 273 972 l 273 301 l 340 235 l 340 235 l 406 301 l 406 972 l 603 972 l 603 206 l 397 0 l 282 0 m 309 53 l 371 53 l 549 231 l 549 920 l 460 920 l 460 274 l 342 158 l 338 158 l 219 274 l 219 920 l 130 920 l 130 231 l 309 53 z "},"W":{"ha":994,"x_min":76,"x_max":917,"o":"m 76 972 l 273 972 l 273 197 l 285 197 l 332 889 l 662 889 l 710 197 l 721 197 l 721 972 l 917 972 l 917 0 l 550 0 l 504 690 l 490 690 l 444 0 l 76 0 l 76 972 m 130 919 l 130 53 l 397 53 l 449 740 l 544 740 l 597 53 l 864 53 l 864 919 l 774 919 l 774 144 l 669 144 l 615 831 l 378 831 l 324 144 l 219 144 l 219 919 l 130 919 z "},"Ẃ":{"ha":994,"x_min":76,"x_max":917,"o":"m 76 972 l 273 972 l 273 197 l 285 197 l 332 889 l 662 889 l 710 197 l 721 197 l 721 972 l 917 972 l 917 0 l 550 0 l 504 690 l 490 690 l 444 0 l 76 0 l 76 972 m 130 919 l 130 53 l 397 53 l 449 740 l 544 740 l 597 53 l 864 53 l 864 919 l 774 919 l 774 144 l 669 144 l 615 831 l 378 831 l 324 144 l 219 144 l 219 919 l 130 919 m 413 994 l 582 1178 l 781 1178 l 584 994 l 413 994 m 497 1028 l 567 1028 l 688 1144 l 606 1144 l 497 1028 z "},"Ŵ":{"ha":994,"x_min":76,"x_max":917,"o":"m 76 972 l 273 972 l 273 197 l 285 197 l 332 889 l 662 889 l 710 197 l 721 197 l 721 972 l 917 972 l 917 0 l 550 0 l 504 690 l 490 690 l 444 0 l 76 0 l 76 972 m 130 919 l 130 53 l 397 53 l 449 740 l 544 740 l 597 53 l 864 53 l 864 919 l 774 919 l 774 144 l 669 144 l 615 831 l 378 831 l 324 144 l 219 144 l 219 919 l 130 919 m 410 1192 l 585 1192 l 741 994 l 549 994 l 498 1069 l 447 994 l 255 994 l 410 1192 m 437 1155 l 345 1035 l 426 1035 l 481 1113 l 514 1113 l 568 1035 l 650 1035 l 558 1155 l 437 1155 z "},"Ẅ":{"ha":994,"x_min":76,"x_max":917,"o":"m 76 972 l 273 972 l 273 197 l 285 197 l 332 889 l 662 889 l 710 197 l 721 197 l 721 972 l 917 972 l 917 0 l 550 0 l 504 690 l 490 690 l 444 0 l 76 0 l 76 972 m 130 919 l 130 53 l 397 53 l 449 740 l 544 740 l 597 53 l 864 53 l 864 919 l 774 919 l 774 144 l 669 144 l 615 831 l 378 831 l 324 144 l 219 144 l 219 919 l 130 919 m 569 1008 l 569 1154 l 717 1154 l 717 1008 l 569 1008 m 281 1008 l 281 1154 l 428 1154 l 428 1008 l 281 1008 m 323 1049 l 384 1049 l 384 1113 l 323 1113 l 323 1049 m 613 1049 l 674 1049 l 674 1113 l 613 1113 l 613 1049 z "},"Ẁ":{"ha":994,"x_min":76,"x_max":917,"o":"m 76 972 l 273 972 l 273 197 l 285 197 l 332 889 l 662 889 l 710 197 l 721 197 l 721 972 l 917 972 l 917 0 l 550 0 l 504 690 l 490 690 l 444 0 l 76 0 l 76 972 m 130 919 l 130 53 l 397 53 l 449 740 l 544 740 l 597 53 l 864 53 l 864 919 l 774 919 l 774 144 l 669 144 l 615 831 l 378 831 l 324 144 l 219 144 l 219 919 l 130 919 m 599 994 l 427 994 l 230 1178 l 429 1178 l 599 994 m 515 1028 l 406 1144 l 324 1144 l 444 1028 l 515 1028 z "},"X":{"ha":733,"x_min":76,"x_max":657,"o":"m 76 0 l 76 392 l 176 492 l 76 589 l 76 972 l 273 972 l 273 672 l 356 589 l 378 589 l 460 672 l 460 972 l 657 972 l 657 589 l 559 492 l 657 392 l 657 0 l 460 0 l 460 310 l 378 392 l 356 392 l 273 310 l 273 0 l 76 0 m 131 53 l 219 53 l 219 329 l 336 447 l 398 447 l 514 329 l 514 53 l 603 53 l 603 365 l 481 492 l 603 615 l 603 920 l 514 920 l 514 651 l 399 537 l 335 537 l 219 651 l 219 920 l 131 920 l 131 615 l 254 492 l 131 365 l 131 53 z "},"Y":{"ha":674,"x_min":63,"x_max":611,"o":"m 238 0 l 238 357 l 63 521 l 63 972 l 259 972 l 259 592 l 343 517 l 330 517 l 415 592 l 415 972 l 611 972 l 611 521 l 435 357 l 435 0 l 238 0 m 292 52 l 381 52 l 381 378 l 558 540 l 558 920 l 468 920 l 468 570 l 338 453 l 335 453 l 205 570 l 205 920 l 116 920 l 116 540 l 292 378 l 292 52 z "},"Ý":{"ha":674,"x_min":63,"x_max":620,"o":"m 238 0 l 238 357 l 63 521 l 63 972 l 259 972 l 259 592 l 343 517 l 330 517 l 415 592 l 415 972 l 611 972 l 611 521 l 435 357 l 435 0 l 238 0 m 292 52 l 381 52 l 381 378 l 558 540 l 558 920 l 468 920 l 468 570 l 338 453 l 335 453 l 205 570 l 205 920 l 116 920 l 116 540 l 292 378 l 292 52 m 251 994 l 421 1178 l 620 1178 l 423 994 l 251 994 m 336 1028 l 406 1028 l 526 1144 l 444 1144 l 336 1028 z "},"Ŷ":{"ha":674,"x_min":63,"x_max":611,"o":"m 238 0 l 238 357 l 63 521 l 63 972 l 259 972 l 259 592 l 343 517 l 330 517 l 415 592 l 415 972 l 611 972 l 611 521 l 435 357 l 435 0 l 238 0 m 292 52 l 381 52 l 381 378 l 558 540 l 558 920 l 468 920 l 468 570 l 338 453 l 335 453 l 205 570 l 205 920 l 116 920 l 116 540 l 292 378 l 292 52 m 249 1192 l 424 1192 l 580 994 l 388 994 l 337 1069 l 286 994 l 94 994 l 249 1192 m 276 1155 l 184 1035 l 265 1035 l 319 1113 l 353 1113 l 407 1035 l 489 1035 l 397 1155 l 276 1155 z "},"Ÿ":{"ha":674,"x_min":63,"x_max":611,"o":"m 238 0 l 238 357 l 63 521 l 63 972 l 259 972 l 259 592 l 343 517 l 330 517 l 415 592 l 415 972 l 611 972 l 611 521 l 435 357 l 435 0 l 238 0 m 292 52 l 381 52 l 381 378 l 558 540 l 558 920 l 468 920 l 468 570 l 338 453 l 335 453 l 205 570 l 205 920 l 116 920 l 116 540 l 292 378 l 292 52 m 408 1008 l 408 1154 l 556 1154 l 556 1008 l 408 1008 m 119 1008 l 119 1154 l 267 1154 l 267 1008 l 119 1008 m 162 1049 l 223 1049 l 223 1113 l 162 1113 l 162 1049 m 451 1049 l 513 1049 l 513 1113 l 451 1113 l 451 1049 z "},"Ẏ":{"ha":674,"x_min":63,"x_max":611,"o":"m 238 0 l 238 357 l 63 521 l 63 972 l 259 972 l 259 592 l 343 517 l 330 517 l 415 592 l 415 972 l 611 972 l 611 521 l 435 357 l 435 0 l 238 0 m 292 52 l 381 52 l 381 378 l 558 540 l 558 920 l 468 920 l 468 570 l 338 453 l 335 453 l 205 570 l 205 920 l 116 920 l 116 540 l 292 378 l 292 52 m 264 1008 l 264 1154 l 411 1154 l 411 1008 l 264 1008 m 306 1049 l 367 1049 l 367 1113 l 306 1113 l 306 1049 z "},"Ỵ":{"ha":674,"x_min":63,"x_max":611,"o":"m 238 0 l 238 357 l 63 521 l 63 972 l 259 972 l 259 592 l 343 517 l 330 517 l 415 592 l 415 972 l 611 972 l 611 521 l 435 357 l 435 0 l 238 0 m 292 52 l 381 52 l 381 378 l 558 540 l 558 920 l 468 920 l 468 570 l 338 453 l 335 453 l 205 570 l 205 920 l 116 920 l 116 540 l 292 378 l 292 52 m 263 -188 l 263 -42 l 410 -42 l 410 -188 l 263 -188 m 306 -147 l 367 -147 l 367 -84 l 306 -84 l 306 -147 z "},"Ỳ":{"ha":674,"x_min":63,"x_max":611,"o":"m 238 0 l 238 357 l 63 521 l 63 972 l 259 972 l 259 592 l 343 517 l 330 517 l 415 592 l 415 972 l 611 972 l 611 521 l 435 357 l 435 0 l 238 0 m 292 52 l 381 52 l 381 378 l 558 540 l 558 920 l 468 920 l 468 570 l 338 453 l 335 453 l 205 570 l 205 920 l 116 920 l 116 540 l 292 378 l 292 52 m 438 994 l 266 994 l 69 1178 l 268 1178 l 438 994 m 353 1028 l 245 1144 l 163 1144 l 283 1028 l 353 1028 z "},"Ỷ":{"ha":674,"x_min":63,"x_max":611,"o":"m 238 0 l 238 357 l 63 521 l 63 972 l 259 972 l 259 592 l 343 517 l 330 517 l 415 592 l 415 972 l 611 972 l 611 521 l 435 357 l 435 0 l 238 0 m 292 52 l 381 52 l 381 378 l 558 540 l 558 920 l 468 920 l 468 570 l 338 453 l 335 453 l 205 570 l 205 920 l 116 920 l 116 540 l 292 378 l 292 52 m 171 1251 l 390 1251 l 503 1120 l 390 990 l 220 990 l 220 1099 l 313 1099 l 334 1120 l 313 1142 l 171 1142 l 171 1251 m 210 1219 l 210 1174 l 334 1174 l 383 1120 l 334 1067 l 260 1067 l 260 1022 l 367 1022 l 456 1120 l 367 1219 l 210 1219 z "},"Ȳ":{"ha":674,"x_min":63,"x_max":611,"o":"m 238 0 l 238 357 l 63 521 l 63 972 l 259 972 l 259 592 l 343 517 l 330 517 l 415 592 l 415 972 l 611 972 l 611 521 l 435 357 l 435 0 l 238 0 m 292 52 l 381 52 l 381 378 l 558 540 l 558 920 l 468 920 l 468 570 l 338 453 l 335 453 l 205 570 l 205 920 l 116 920 l 116 540 l 292 378 l 292 52 m 117 994 l 117 1172 l 556 1172 l 556 994 l 117 994 m 172 1042 l 506 1042 l 506 1121 l 172 1121 l 172 1042 z "},"Ỹ":{"ha":674,"x_min":63,"x_max":611,"o":"m 238 0 l 238 357 l 63 521 l 63 972 l 259 972 l 259 592 l 343 517 l 330 517 l 415 592 l 415 972 l 611 972 l 611 521 l 435 357 l 435 0 l 238 0 m 292 52 l 381 52 l 381 378 l 558 540 l 558 920 l 468 920 l 468 570 l 338 453 l 335 453 l 205 570 l 205 920 l 116 920 l 116 540 l 292 378 l 292 52 m 143 994 l 143 1089 l 221 1167 l 344 1167 l 383 1128 l 396 1128 l 396 1167 l 529 1167 l 529 1072 l 451 994 l 328 994 l 289 1033 l 276 1033 l 276 994 l 143 994 m 183 1028 l 240 1028 l 240 1048 l 265 1074 l 303 1074 l 347 1031 l 431 1031 l 491 1093 l 491 1133 l 434 1133 l 434 1114 l 410 1088 l 368 1088 l 325 1131 l 243 1131 l 183 1069 l 183 1028 z "},"Z":{"ha":574,"x_min":63,"x_max":511,"o":"m 121 54 l 459 54 l 459 143 l 221 143 l 221 269 l 457 685 l 457 920 l 130 920 l 130 831 l 360 831 l 360 712 l 121 292 l 121 54 m 63 0 l 63 308 l 301 728 l 301 776 l 76 776 l 76 972 l 511 972 l 511 667 l 277 253 l 277 197 l 511 197 l 511 0 l 63 0 z "},"Ź":{"ha":574,"x_min":63,"x_max":570,"o":"m 121 54 l 459 54 l 459 143 l 221 143 l 221 269 l 457 685 l 457 920 l 130 920 l 130 831 l 360 831 l 360 712 l 121 292 l 121 54 m 63 0 l 63 308 l 301 728 l 301 776 l 76 776 l 76 972 l 511 972 l 511 667 l 277 253 l 277 197 l 511 197 l 511 0 l 63 0 m 201 994 l 371 1178 l 570 1178 l 373 994 l 201 994 m 286 1028 l 356 1028 l 476 1144 l 394 1144 l 286 1028 z "},"Ž":{"ha":574,"x_min":44,"x_max":530,"o":"m 121 54 l 459 54 l 459 143 l 221 143 l 221 269 l 457 685 l 457 920 l 130 920 l 130 831 l 360 831 l 360 712 l 121 292 l 121 54 m 63 0 l 63 308 l 301 728 l 301 776 l 76 776 l 76 972 l 511 972 l 511 667 l 277 253 l 277 197 l 511 197 l 511 0 l 63 0 m 199 994 l 44 1192 l 236 1192 l 287 1117 l 338 1192 l 530 1192 l 374 994 l 199 994 m 226 1031 l 347 1031 l 439 1151 l 357 1151 l 303 1073 l 269 1073 l 215 1151 l 134 1151 l 226 1031 z "},"Ż":{"ha":574,"x_min":63,"x_max":511,"o":"m 121 54 l 459 54 l 459 143 l 221 143 l 221 269 l 457 685 l 457 920 l 130 920 l 130 831 l 360 831 l 360 712 l 121 292 l 121 54 m 63 0 l 63 308 l 301 728 l 301 776 l 76 776 l 76 972 l 511 972 l 511 667 l 277 253 l 277 197 l 511 197 l 511 0 l 63 0 m 214 1008 l 214 1154 l 361 1154 l 361 1008 l 214 1008 m 256 1049 l 317 1049 l 317 1113 l 256 1113 l 256 1049 z "},"Ẓ":{"ha":574,"x_min":63,"x_max":511,"o":"m 121 54 l 459 54 l 459 143 l 221 143 l 221 269 l 457 685 l 457 920 l 130 920 l 130 831 l 360 831 l 360 712 l 121 292 l 121 54 m 63 0 l 63 308 l 301 728 l 301 776 l 76 776 l 76 972 l 511 972 l 511 667 l 277 253 l 277 197 l 511 197 l 511 0 l 63 0 m 213 -188 l 213 -42 l 360 -42 l 360 -188 l 213 -188 m 256 -147 l 317 -147 l 317 -84 l 256 -84 l 256 -147 z "},"a":{"ha":645,"x_min":66,"x_max":579,"o":"m 209 0 l 66 143 l 66 341 l 209 484 l 383 484 l 383 511 l 340 553 l 76 553 l 76 750 l 436 750 l 579 607 l 579 143 l 436 0 l 209 0 m 281 142 l 209 213 l 209 287 l 269 347 l 440 347 l 440 217 l 366 142 l 281 142 m 237 53 l 410 53 l 530 174 l 530 580 l 413 697 l 133 697 l 133 608 l 369 608 l 440 537 l 440 433 l 233 433 l 120 320 l 120 170 l 237 53 m 305 197 l 340 197 l 383 239 l 383 294 l 291 294 l 262 265 l 262 239 l 305 197 z "},"á":{"ha":645,"x_min":66,"x_max":607,"o":"m 209 0 l 66 143 l 66 341 l 209 484 l 383 484 l 383 511 l 340 553 l 76 553 l 76 750 l 436 750 l 579 607 l 579 143 l 436 0 l 209 0 m 281 142 l 209 213 l 209 287 l 269 347 l 440 347 l 440 217 l 366 142 l 281 142 m 237 53 l 410 53 l 530 174 l 530 580 l 413 697 l 133 697 l 133 608 l 369 608 l 440 537 l 440 433 l 233 433 l 120 320 l 120 170 l 237 53 m 305 197 l 340 197 l 383 239 l 383 294 l 291 294 l 262 265 l 262 239 l 305 197 m 238 772 l 408 956 l 607 956 l 410 772 l 238 772 m 323 806 l 393 806 l 513 922 l 431 922 l 323 806 z "},"ă":{"ha":645,"x_min":66,"x_max":579,"o":"m 209 0 l 66 143 l 66 341 l 209 484 l 383 484 l 383 511 l 340 553 l 76 553 l 76 750 l 436 750 l 579 607 l 579 143 l 436 0 l 209 0 m 281 142 l 209 213 l 209 287 l 269 347 l 440 347 l 440 217 l 366 142 l 281 142 m 237 53 l 410 53 l 530 174 l 530 580 l 413 697 l 133 697 l 133 608 l 369 608 l 440 537 l 440 433 l 233 433 l 120 320 l 120 170 l 237 53 m 305 197 l 340 197 l 383 239 l 383 294 l 291 294 l 262 265 l 262 239 l 305 197 m 241 772 l 163 850 l 163 958 l 297 958 l 297 906 l 351 906 l 351 958 l 484 958 l 484 850 l 406 772 l 241 772 m 263 809 l 385 809 l 444 871 l 444 920 l 388 920 l 388 892 l 363 866 l 285 866 l 260 892 l 260 920 l 203 920 l 203 871 l 263 809 z "},"ắ":{"ha":645,"x_min":66,"x_max":607,"o":"m 209 0 l 66 143 l 66 341 l 209 484 l 383 484 l 383 511 l 340 553 l 76 553 l 76 750 l 436 750 l 579 607 l 579 143 l 436 0 l 209 0 m 281 142 l 209 213 l 209 287 l 269 347 l 440 347 l 440 217 l 366 142 l 281 142 m 237 53 l 410 53 l 530 174 l 530 580 l 413 697 l 133 697 l 133 608 l 369 608 l 440 537 l 440 433 l 233 433 l 120 320 l 120 170 l 237 53 m 305 197 l 340 197 l 383 239 l 383 294 l 291 294 l 262 265 l 262 239 l 305 197 m 241 772 l 163 850 l 163 958 l 297 958 l 297 906 l 351 906 l 351 958 l 484 958 l 484 850 l 406 772 l 241 772 m 263 809 l 385 809 l 444 871 l 444 920 l 388 920 l 388 892 l 363 866 l 285 866 l 260 892 l 260 920 l 203 920 l 203 871 l 263 809 m 238 981 l 408 1164 l 607 1164 l 410 981 l 238 981 m 323 1014 l 393 1014 l 513 1130 l 431 1130 l 323 1014 z "},"ặ":{"ha":645,"x_min":66,"x_max":579,"o":"m 209 0 l 66 143 l 66 341 l 209 484 l 383 484 l 383 511 l 340 553 l 76 553 l 76 750 l 436 750 l 579 607 l 579 143 l 436 0 l 209 0 m 281 142 l 209 213 l 209 287 l 269 347 l 440 347 l 440 217 l 366 142 l 281 142 m 237 53 l 410 53 l 530 174 l 530 580 l 413 697 l 133 697 l 133 608 l 369 608 l 440 537 l 440 433 l 233 433 l 120 320 l 120 170 l 237 53 m 305 197 l 340 197 l 383 239 l 383 294 l 291 294 l 262 265 l 262 239 l 305 197 m 250 -188 l 250 -42 l 397 -42 l 397 -188 l 250 -188 m 292 -147 l 353 -147 l 353 -84 l 292 -84 l 292 -147 m 241 772 l 163 850 l 163 958 l 297 958 l 297 906 l 351 906 l 351 958 l 484 958 l 484 850 l 406 772 l 241 772 m 263 809 l 385 809 l 444 871 l 444 920 l 388 920 l 388 892 l 363 866 l 285 866 l 260 892 l 260 920 l 203 920 l 203 871 l 263 809 z "},"ằ":{"ha":645,"x_min":56,"x_max":579,"o":"m 209 0 l 66 143 l 66 341 l 209 484 l 383 484 l 383 511 l 340 553 l 76 553 l 76 750 l 436 750 l 579 607 l 579 143 l 436 0 l 209 0 m 281 142 l 209 213 l 209 287 l 269 347 l 440 347 l 440 217 l 366 142 l 281 142 m 237 53 l 410 53 l 530 174 l 530 580 l 413 697 l 133 697 l 133 608 l 369 608 l 440 537 l 440 433 l 233 433 l 120 320 l 120 170 l 237 53 m 305 197 l 340 197 l 383 239 l 383 294 l 291 294 l 262 265 l 262 239 l 305 197 m 241 772 l 163 850 l 163 958 l 297 958 l 297 906 l 351 906 l 351 958 l 484 958 l 484 850 l 406 772 l 241 772 m 263 809 l 385 809 l 444 871 l 444 920 l 388 920 l 388 892 l 363 866 l 285 866 l 260 892 l 260 920 l 203 920 l 203 871 l 263 809 m 424 981 l 253 981 l 56 1164 l 255 1164 l 424 981 m 340 1014 l 232 1130 l 150 1130 l 270 1014 l 340 1014 z "},"ẳ":{"ha":645,"x_min":66,"x_max":579,"o":"m 209 0 l 66 143 l 66 341 l 209 484 l 383 484 l 383 511 l 340 553 l 76 553 l 76 750 l 436 750 l 579 607 l 579 143 l 436 0 l 209 0 m 281 142 l 209 213 l 209 287 l 269 347 l 440 347 l 440 217 l 366 142 l 281 142 m 237 53 l 410 53 l 530 174 l 530 580 l 413 697 l 133 697 l 133 608 l 369 608 l 440 537 l 440 433 l 233 433 l 120 320 l 120 170 l 237 53 m 305 197 l 340 197 l 383 239 l 383 294 l 291 294 l 262 265 l 262 239 l 305 197 m 241 772 l 163 850 l 163 958 l 297 958 l 297 906 l 351 906 l 351 958 l 484 958 l 484 850 l 406 772 l 241 772 m 263 809 l 385 809 l 444 871 l 444 920 l 388 920 l 388 892 l 363 866 l 285 866 l 260 892 l 260 920 l 203 920 l 203 871 l 263 809 m 158 1238 l 376 1238 l 490 1106 l 376 976 l 207 976 l 207 1085 l 300 1085 l 321 1106 l 300 1128 l 158 1128 l 158 1238 m 197 1206 l 197 1160 l 321 1160 l 369 1106 l 321 1053 l 247 1053 l 247 1008 l 354 1008 l 442 1106 l 354 1206 l 197 1206 z "},"ẵ":{"ha":645,"x_min":66,"x_max":579,"o":"m 209 0 l 66 143 l 66 341 l 209 484 l 383 484 l 383 511 l 340 553 l 76 553 l 76 750 l 436 750 l 579 607 l 579 143 l 436 0 l 209 0 m 281 142 l 209 213 l 209 287 l 269 347 l 440 347 l 440 217 l 366 142 l 281 142 m 237 53 l 410 53 l 530 174 l 530 580 l 413 697 l 133 697 l 133 608 l 369 608 l 440 537 l 440 433 l 233 433 l 120 320 l 120 170 l 237 53 m 305 197 l 340 197 l 383 239 l 383 294 l 291 294 l 262 265 l 262 239 l 305 197 m 241 772 l 163 850 l 163 958 l 297 958 l 297 906 l 351 906 l 351 958 l 484 958 l 484 850 l 406 772 l 241 772 m 263 809 l 385 809 l 444 871 l 444 920 l 388 920 l 388 892 l 363 866 l 285 866 l 260 892 l 260 920 l 203 920 l 203 871 l 263 809 m 130 981 l 130 1075 l 208 1153 l 331 1153 l 370 1114 l 383 1114 l 383 1153 l 516 1153 l 516 1058 l 438 981 l 315 981 l 276 1019 l 263 1019 l 263 981 l 130 981 m 170 1015 l 227 1015 l 227 1034 l 251 1060 l 290 1060 l 334 1017 l 418 1017 l 478 1079 l 478 1119 l 421 1119 l 421 1100 l 397 1074 l 355 1074 l 312 1117 l 230 1117 l 170 1055 l 170 1015 z "},"ǎ":{"ha":645,"x_min":66,"x_max":579,"o":"m 209 0 l 66 143 l 66 341 l 209 484 l 383 484 l 383 511 l 340 553 l 76 553 l 76 750 l 436 750 l 579 607 l 579 143 l 436 0 l 209 0 m 281 142 l 209 213 l 209 287 l 269 347 l 440 347 l 440 217 l 366 142 l 281 142 m 237 53 l 410 53 l 530 174 l 530 580 l 413 697 l 133 697 l 133 608 l 369 608 l 440 537 l 440 433 l 233 433 l 120 320 l 120 170 l 237 53 m 305 197 l 340 197 l 383 239 l 383 294 l 291 294 l 262 265 l 262 239 l 305 197 m 236 772 l 81 969 l 273 969 l 324 894 l 374 969 l 567 969 l 411 772 l 236 772 m 263 809 l 383 809 l 476 928 l 394 928 l 340 851 l 306 851 l 252 928 l 171 928 l 263 809 z "},"â":{"ha":645,"x_min":66,"x_max":579,"o":"m 209 0 l 66 143 l 66 341 l 209 484 l 383 484 l 383 511 l 340 553 l 76 553 l 76 750 l 436 750 l 579 607 l 579 143 l 436 0 l 209 0 m 281 142 l 209 213 l 209 287 l 269 347 l 440 347 l 440 217 l 366 142 l 281 142 m 237 53 l 410 53 l 530 174 l 530 580 l 413 697 l 133 697 l 133 608 l 369 608 l 440 537 l 440 433 l 233 433 l 120 320 l 120 170 l 237 53 m 305 197 l 340 197 l 383 239 l 383 294 l 291 294 l 262 265 l 262 239 l 305 197 m 236 969 l 411 969 l 567 772 l 374 772 l 324 847 l 273 772 l 81 772 l 236 969 m 263 933 l 171 813 l 252 813 l 306 891 l 340 891 l 394 813 l 476 813 l 383 933 l 263 933 z "},"ấ":{"ha":645,"x_min":66,"x_max":828,"o":"m 209 0 l 66 143 l 66 341 l 209 484 l 383 484 l 383 511 l 340 553 l 76 553 l 76 750 l 436 750 l 579 607 l 579 143 l 436 0 l 209 0 m 281 142 l 209 213 l 209 287 l 269 347 l 440 347 l 440 217 l 366 142 l 281 142 m 237 53 l 410 53 l 530 174 l 530 580 l 413 697 l 133 697 l 133 608 l 369 608 l 440 537 l 440 433 l 233 433 l 120 320 l 120 170 l 237 53 m 305 197 l 340 197 l 383 239 l 383 294 l 291 294 l 262 265 l 262 239 l 305 197 m 236 969 l 411 969 l 567 772 l 374 772 l 324 847 l 273 772 l 81 772 l 236 969 m 263 933 l 171 813 l 252 813 l 306 891 l 340 891 l 394 813 l 476 813 l 383 933 l 263 933 m 460 931 l 629 1114 l 828 1114 l 631 931 l 460 931 m 544 964 l 615 964 l 735 1080 l 653 1080 l 544 964 z "},"ậ":{"ha":645,"x_min":66,"x_max":579,"o":"m 209 0 l 66 143 l 66 341 l 209 484 l 383 484 l 383 511 l 340 553 l 76 553 l 76 750 l 436 750 l 579 607 l 579 143 l 436 0 l 209 0 m 281 142 l 209 213 l 209 287 l 269 347 l 440 347 l 440 217 l 366 142 l 281 142 m 237 53 l 410 53 l 530 174 l 530 580 l 413 697 l 133 697 l 133 608 l 369 608 l 440 537 l 440 433 l 233 433 l 120 320 l 120 170 l 237 53 m 305 197 l 340 197 l 383 239 l 383 294 l 291 294 l 262 265 l 262 239 l 305 197 m 250 -188 l 250 -42 l 397 -42 l 397 -188 l 250 -188 m 292 -147 l 353 -147 l 353 -84 l 292 -84 l 292 -147 m 236 969 l 411 969 l 567 772 l 374 772 l 324 847 l 273 772 l 81 772 l 236 969 m 263 933 l 171 813 l 252 813 l 306 891 l 340 891 l 394 813 l 476 813 l 383 933 l 263 933 z "},"ầ":{"ha":645,"x_min":66,"x_max":663,"o":"m 209 0 l 66 143 l 66 341 l 209 484 l 383 484 l 383 511 l 340 553 l 76 553 l 76 750 l 436 750 l 579 607 l 579 143 l 436 0 l 209 0 m 281 142 l 209 213 l 209 287 l 269 347 l 440 347 l 440 217 l 366 142 l 281 142 m 237 53 l 410 53 l 530 174 l 530 580 l 413 697 l 133 697 l 133 608 l 369 608 l 440 537 l 440 433 l 233 433 l 120 320 l 120 170 l 237 53 m 305 197 l 340 197 l 383 239 l 383 294 l 291 294 l 262 265 l 262 239 l 305 197 m 236 969 l 411 969 l 567 772 l 374 772 l 324 847 l 273 772 l 81 772 l 236 969 m 263 933 l 171 813 l 252 813 l 306 891 l 340 891 l 394 813 l 476 813 l 383 933 l 263 933 m 663 931 l 491 931 l 294 1114 l 493 1114 l 663 931 m 578 964 l 470 1080 l 388 1080 l 508 964 l 578 964 z "},"ẩ":{"ha":645,"x_min":66,"x_max":753,"o":"m 209 0 l 66 143 l 66 341 l 209 484 l 383 484 l 383 511 l 340 553 l 76 553 l 76 750 l 436 750 l 579 607 l 579 143 l 436 0 l 209 0 m 281 142 l 209 213 l 209 287 l 269 347 l 440 347 l 440 217 l 366 142 l 281 142 m 237 53 l 410 53 l 530 174 l 530 580 l 413 697 l 133 697 l 133 608 l 369 608 l 440 537 l 440 433 l 233 433 l 120 320 l 120 170 l 237 53 m 305 197 l 340 197 l 383 239 l 383 294 l 291 294 l 262 265 l 262 239 l 305 197 m 236 969 l 411 969 l 567 772 l 374 772 l 324 847 l 273 772 l 81 772 l 236 969 m 263 933 l 171 813 l 252 813 l 306 891 l 340 891 l 394 813 l 476 813 l 383 933 l 263 933 m 421 1166 l 640 1166 l 753 1035 l 640 905 l 470 905 l 470 1014 l 563 1014 l 584 1035 l 563 1057 l 421 1057 l 421 1166 m 460 1134 l 460 1089 l 584 1089 l 633 1035 l 584 982 l 510 982 l 510 937 l 617 937 l 706 1035 l 617 1134 l 460 1134 z "},"ẫ":{"ha":645,"x_min":66,"x_max":579,"o":"m 209 0 l 66 143 l 66 341 l 209 484 l 383 484 l 383 511 l 340 553 l 76 553 l 76 750 l 436 750 l 579 607 l 579 143 l 436 0 l 209 0 m 281 142 l 209 213 l 209 287 l 269 347 l 440 347 l 440 217 l 366 142 l 281 142 m 237 53 l 410 53 l 530 174 l 530 580 l 413 697 l 133 697 l 133 608 l 369 608 l 440 537 l 440 433 l 233 433 l 120 320 l 120 170 l 237 53 m 305 197 l 340 197 l 383 239 l 383 294 l 291 294 l 262 265 l 262 239 l 305 197 m 236 969 l 411 969 l 567 772 l 374 772 l 324 847 l 273 772 l 81 772 l 236 969 m 263 933 l 171 813 l 252 813 l 306 891 l 340 891 l 394 813 l 476 813 l 383 933 l 263 933 m 130 992 l 130 1086 l 208 1164 l 331 1164 l 370 1125 l 383 1125 l 383 1164 l 516 1164 l 516 1069 l 438 992 l 315 992 l 276 1031 l 263 1031 l 263 992 l 130 992 m 170 1026 l 227 1026 l 227 1045 l 251 1072 l 290 1072 l 334 1028 l 418 1028 l 478 1090 l 478 1131 l 421 1131 l 421 1111 l 397 1085 l 355 1085 l 312 1128 l 230 1128 l 170 1066 l 170 1026 z "},"ȁ":{"ha":645,"x_min":-90,"x_max":579,"o":"m 209 0 l 66 143 l 66 341 l 209 484 l 383 484 l 383 511 l 340 553 l 76 553 l 76 750 l 436 750 l 579 607 l 579 143 l 436 0 l 209 0 m 281 142 l 209 213 l 209 287 l 269 347 l 440 347 l 440 217 l 366 142 l 281 142 m 237 53 l 410 53 l 530 174 l 530 580 l 413 697 l 133 697 l 133 608 l 369 608 l 440 537 l 440 433 l 233 433 l 120 320 l 120 170 l 237 53 m 305 197 l 340 197 l 383 239 l 383 294 l 291 294 l 262 265 l 262 239 l 305 197 m 551 772 l 380 772 l 183 956 l 382 956 l 551 772 m 467 806 l 359 922 l 277 922 l 397 806 l 467 806 m 279 772 l 108 772 l -90 956 l 110 956 l 279 772 m 195 806 l 87 922 l 5 922 l 125 806 l 195 806 z "},"ä":{"ha":645,"x_min":66,"x_max":579,"o":"m 209 0 l 66 143 l 66 341 l 209 484 l 383 484 l 383 511 l 340 553 l 76 553 l 76 750 l 436 750 l 579 607 l 579 143 l 436 0 l 209 0 m 281 142 l 209 213 l 209 287 l 269 347 l 440 347 l 440 217 l 366 142 l 281 142 m 237 53 l 410 53 l 530 174 l 530 580 l 413 697 l 133 697 l 133 608 l 369 608 l 440 537 l 440 433 l 233 433 l 120 320 l 120 170 l 237 53 m 305 197 l 340 197 l 383 239 l 383 294 l 291 294 l 262 265 l 262 239 l 305 197 m 395 786 l 395 932 l 542 932 l 542 786 l 395 786 m 106 786 l 106 932 l 253 932 l 253 786 l 106 786 m 149 827 l 210 827 l 210 890 l 149 890 l 149 827 m 438 827 l 499 827 l 499 890 l 438 890 l 438 827 z "},"ạ":{"ha":645,"x_min":66,"x_max":579,"o":"m 209 0 l 66 143 l 66 341 l 209 484 l 383 484 l 383 511 l 340 553 l 76 553 l 76 750 l 436 750 l 579 607 l 579 143 l 436 0 l 209 0 m 281 142 l 209 213 l 209 287 l 269 347 l 440 347 l 440 217 l 366 142 l 281 142 m 237 53 l 410 53 l 530 174 l 530 580 l 413 697 l 133 697 l 133 608 l 369 608 l 440 537 l 440 433 l 233 433 l 120 320 l 120 170 l 237 53 m 305 197 l 340 197 l 383 239 l 383 294 l 291 294 l 262 265 l 262 239 l 305 197 m 250 -188 l 250 -42 l 397 -42 l 397 -188 l 250 -188 m 292 -147 l 353 -147 l 353 -84 l 292 -84 l 292 -147 z "},"à":{"ha":645,"x_min":56,"x_max":579,"o":"m 209 0 l 66 143 l 66 341 l 209 484 l 383 484 l 383 511 l 340 553 l 76 553 l 76 750 l 436 750 l 579 607 l 579 143 l 436 0 l 209 0 m 281 142 l 209 213 l 209 287 l 269 347 l 440 347 l 440 217 l 366 142 l 281 142 m 237 53 l 410 53 l 530 174 l 530 580 l 413 697 l 133 697 l 133 608 l 369 608 l 440 537 l 440 433 l 233 433 l 120 320 l 120 170 l 237 53 m 305 197 l 340 197 l 383 239 l 383 294 l 291 294 l 262 265 l 262 239 l 305 197 m 424 772 l 253 772 l 56 956 l 255 956 l 424 772 m 340 806 l 232 922 l 150 922 l 270 806 l 340 806 z "},"ả":{"ha":645,"x_min":66,"x_max":579,"o":"m 209 0 l 66 143 l 66 341 l 209 484 l 383 484 l 383 511 l 340 553 l 76 553 l 76 750 l 436 750 l 579 607 l 579 143 l 436 0 l 209 0 m 281 142 l 209 213 l 209 287 l 269 347 l 440 347 l 440 217 l 366 142 l 281 142 m 237 53 l 410 53 l 530 174 l 530 580 l 413 697 l 133 697 l 133 608 l 369 608 l 440 537 l 440 433 l 233 433 l 120 320 l 120 170 l 237 53 m 305 197 l 340 197 l 383 239 l 383 294 l 291 294 l 262 265 l 262 239 l 305 197 m 158 1029 l 376 1029 l 490 898 l 376 768 l 207 768 l 207 877 l 300 877 l 321 898 l 300 920 l 158 920 l 158 1029 m 197 997 l 197 952 l 321 952 l 369 898 l 321 845 l 247 845 l 247 800 l 354 800 l 442 898 l 354 997 l 197 997 z "},"ȃ":{"ha":645,"x_min":66,"x_max":579,"o":"m 209 0 l 66 143 l 66 341 l 209 484 l 383 484 l 383 511 l 340 553 l 76 553 l 76 750 l 436 750 l 579 607 l 579 143 l 436 0 l 209 0 m 281 142 l 209 213 l 209 287 l 269 347 l 440 347 l 440 217 l 366 142 l 281 142 m 237 53 l 410 53 l 530 174 l 530 580 l 413 697 l 133 697 l 133 608 l 369 608 l 440 537 l 440 433 l 233 433 l 120 320 l 120 170 l 237 53 m 305 197 l 340 197 l 383 239 l 383 294 l 291 294 l 262 265 l 262 239 l 305 197 m 406 958 l 484 880 l 484 772 l 351 772 l 351 824 l 297 824 l 297 772 l 163 772 l 163 880 l 241 958 l 406 958 m 384 921 l 263 921 l 203 859 l 203 810 l 260 810 l 260 838 l 284 865 l 363 865 l 387 838 l 387 810 l 444 810 l 444 859 l 384 921 z "},"ā":{"ha":645,"x_min":66,"x_max":579,"o":"m 209 0 l 66 143 l 66 341 l 209 484 l 383 484 l 383 511 l 340 553 l 76 553 l 76 750 l 436 750 l 579 607 l 579 143 l 436 0 l 209 0 m 281 142 l 209 213 l 209 287 l 269 347 l 440 347 l 440 217 l 366 142 l 281 142 m 237 53 l 410 53 l 530 174 l 530 580 l 413 697 l 133 697 l 133 608 l 369 608 l 440 537 l 440 433 l 233 433 l 120 320 l 120 170 l 237 53 m 305 197 l 340 197 l 383 239 l 383 294 l 291 294 l 262 265 l 262 239 l 305 197 m 104 772 l 104 949 l 543 949 l 543 772 l 104 772 m 159 819 l 492 819 l 492 899 l 159 899 l 159 819 z "},"ą":{"ha":771,"x_min":74,"x_max":696,"o":"m 400 -256 l 273 -125 l 398 0 l 217 0 l 74 143 l 74 331 l 217 474 l 499 474 l 499 511 l 457 553 l 83 553 l 83 750 l 553 750 l 696 607 l 696 143 l 428 -125 l 449 -147 l 612 -147 l 612 -256 l 400 -256 m 413 -224 l 578 -224 l 578 -179 l 432 -179 l 382 -125 l 644 146 l 644 578 l 527 695 l 140 695 l 140 606 l 483 606 l 555 535 l 555 422 l 241 422 l 128 308 l 128 170 l 244 53 l 491 53 l 319 -125 l 413 -224 m 313 197 l 499 197 l 499 284 l 299 284 l 269 255 l 269 239 l 313 197 m 288 142 l 217 213 l 217 275 l 277 335 l 555 335 l 555 163 l 537 142 l 288 142 z "},"å":{"ha":645,"x_min":66,"x_max":579,"o":"m 209 0 l 66 143 l 66 341 l 209 484 l 383 484 l 383 511 l 340 553 l 76 553 l 76 750 l 436 750 l 579 607 l 579 143 l 436 0 l 209 0 m 281 142 l 209 213 l 209 287 l 269 347 l 440 347 l 440 217 l 366 142 l 281 142 m 237 53 l 410 53 l 530 174 l 530 580 l 413 697 l 133 697 l 133 608 l 369 608 l 440 537 l 440 433 l 233 433 l 120 320 l 120 170 l 237 53 m 305 197 l 340 197 l 383 239 l 383 294 l 291 294 l 262 265 l 262 239 l 305 197 m 260 771 l 192 838 l 192 959 l 260 1027 l 387 1027 l 455 959 l 455 838 l 387 771 l 260 771 m 278 807 l 370 807 l 420 857 l 420 943 l 370 993 l 278 993 l 227 943 l 227 857 l 278 807 m 301 858 l 280 880 l 280 920 l 301 942 l 346 942 l 367 920 l 367 880 l 346 858 l 301 858 m 317 888 l 329 888 l 335 894 l 335 905 l 329 910 l 317 910 l 312 905 l 312 894 l 317 888 z "},"ǻ":{"ha":645,"x_min":66,"x_max":608,"o":"m 209 0 l 66 143 l 66 341 l 209 484 l 383 484 l 383 511 l 340 553 l 76 553 l 76 750 l 436 750 l 579 607 l 579 143 l 436 0 l 209 0 m 281 142 l 209 213 l 209 287 l 269 347 l 440 347 l 440 217 l 366 142 l 281 142 m 237 53 l 410 53 l 530 174 l 530 580 l 413 697 l 133 697 l 133 608 l 369 608 l 440 537 l 440 433 l 233 433 l 120 320 l 120 170 l 237 53 m 305 197 l 340 197 l 383 239 l 383 294 l 291 294 l 262 265 l 262 239 l 305 197 m 260 771 l 192 838 l 192 959 l 260 1027 l 387 1027 l 455 959 l 455 838 l 387 771 l 260 771 m 278 807 l 370 807 l 420 857 l 420 943 l 370 993 l 278 993 l 227 943 l 227 857 l 278 807 m 301 858 l 280 880 l 280 920 l 301 942 l 346 942 l 367 920 l 367 880 l 346 858 l 301 858 m 317 888 l 329 888 l 335 894 l 335 905 l 329 910 l 317 910 l 312 905 l 312 894 l 317 888 m 239 1049 l 408 1233 l 608 1233 l 410 1049 l 239 1049 m 324 1083 l 394 1083 l 514 1199 l 432 1199 l 324 1083 z "},"ã":{"ha":645,"x_min":66,"x_max":579,"o":"m 209 0 l 66 143 l 66 341 l 209 484 l 383 484 l 383 511 l 340 553 l 76 553 l 76 750 l 436 750 l 579 607 l 579 143 l 436 0 l 209 0 m 281 142 l 209 213 l 209 287 l 269 347 l 440 347 l 440 217 l 366 142 l 281 142 m 237 53 l 410 53 l 530 174 l 530 580 l 413 697 l 133 697 l 133 608 l 369 608 l 440 537 l 440 433 l 233 433 l 120 320 l 120 170 l 237 53 m 305 197 l 340 197 l 383 239 l 383 294 l 291 294 l 262 265 l 262 239 l 305 197 m 130 772 l 130 867 l 208 944 l 331 944 l 370 906 l 383 906 l 383 944 l 516 944 l 516 850 l 438 772 l 315 772 l 276 811 l 263 811 l 263 772 l 130 772 m 170 806 l 227 806 l 227 826 l 251 852 l 290 852 l 334 809 l 418 809 l 478 871 l 478 911 l 421 911 l 421 892 l 397 866 l 355 866 l 312 908 l 230 908 l 170 847 l 170 806 z "},"æ":{"ha":1222,"x_min":74,"x_max":1143,"o":"m 225 0 l 82 143 l 82 338 l 225 481 l 463 481 l 508 526 l 508 511 l 465 553 l 322 553 l 232 465 l 74 598 l 225 750 l 562 750 l 608 703 l 655 750 l 992 750 l 1135 607 l 1135 404 l 992 269 l 754 269 l 708 224 l 708 239 l 751 197 l 895 197 l 985 285 l 1143 152 l 992 0 l 655 0 l 608 47 l 562 0 l 225 0 m 247 56 l 532 56 l 607 131 l 683 56 l 974 56 l 1072 153 l 1000 214 l 931 144 l 726 144 l 654 216 l 654 229 l 747 322 l 977 322 l 1088 427 l 1088 577 l 970 695 l 685 695 l 610 620 l 535 695 l 242 695 l 145 598 l 217 537 l 286 606 l 491 606 l 563 535 l 563 521 l 469 428 l 240 428 l 130 319 l 130 172 l 247 56 m 290 144 l 219 215 l 219 286 l 276 343 l 481 343 l 563 425 l 563 219 l 488 144 l 290 144 m 654 325 l 654 532 l 728 606 l 927 606 l 998 535 l 998 464 l 941 407 l 736 407 l 654 325 m 322 197 l 465 197 l 508 239 l 508 306 l 495 292 l 308 292 l 278 263 l 278 239 l 322 197 m 708 444 l 722 458 l 909 458 l 938 487 l 938 511 l 895 553 l 751 553 l 708 511 l 708 444 z "},"ǽ":{"ha":1222,"x_min":74,"x_max":1143,"o":"m 225 0 l 82 143 l 82 338 l 225 481 l 463 481 l 508 526 l 508 511 l 465 553 l 322 553 l 232 465 l 74 598 l 225 750 l 562 750 l 608 703 l 655 750 l 992 750 l 1135 607 l 1135 404 l 992 269 l 754 269 l 708 224 l 708 239 l 751 197 l 895 197 l 985 285 l 1143 152 l 992 0 l 655 0 l 608 47 l 562 0 l 225 0 m 247 56 l 532 56 l 607 131 l 683 56 l 974 56 l 1072 153 l 1000 214 l 931 144 l 726 144 l 654 216 l 654 229 l 747 322 l 977 322 l 1088 427 l 1088 577 l 970 695 l 685 695 l 610 620 l 535 695 l 242 695 l 145 598 l 217 537 l 286 606 l 491 606 l 563 535 l 563 521 l 469 428 l 240 428 l 130 319 l 130 172 l 247 56 m 290 144 l 219 215 l 219 286 l 276 343 l 481 343 l 563 425 l 563 219 l 488 144 l 290 144 m 654 325 l 654 532 l 728 606 l 927 606 l 998 535 l 998 464 l 941 407 l 736 407 l 654 325 m 322 197 l 465 197 l 508 239 l 508 306 l 495 292 l 308 292 l 278 263 l 278 239 l 322 197 m 708 444 l 722 458 l 909 458 l 938 487 l 938 511 l 895 553 l 751 553 l 708 511 l 708 444 m 526 772 l 695 956 l 894 956 l 697 772 l 526 772 m 610 806 l 681 806 l 801 922 l 719 922 l 610 806 z "},"b":{"ha":672,"x_min":76,"x_max":606,"o":"m 220 0 l 76 143 l 76 1042 l 273 1042 l 273 737 l 287 750 l 462 750 l 606 607 l 606 143 l 462 0 l 220 0 m 294 141 l 219 215 l 219 517 l 313 610 l 394 610 l 462 543 l 462 215 l 387 141 l 294 141 m 315 197 l 367 197 l 409 239 l 409 511 l 367 554 l 328 554 l 273 498 l 273 239 l 315 197 m 250 52 l 431 52 l 551 172 l 551 586 l 438 699 l 296 699 l 219 622 l 219 990 l 130 990 l 130 172 l 250 52 z "},"c":{"ha":612,"x_min":66,"x_max":535,"o":"m 209 0 l 66 143 l 66 607 l 209 750 l 535 750 l 535 553 l 305 553 l 263 511 l 263 239 l 305 197 l 535 197 l 535 0 l 209 0 m 240 53 l 482 53 l 482 143 l 284 143 l 210 217 l 210 538 l 281 609 l 482 609 l 482 698 l 238 698 l 120 581 l 120 172 l 240 53 z "},"ć":{"ha":612,"x_min":66,"x_max":590,"o":"m 209 0 l 66 143 l 66 607 l 209 750 l 535 750 l 535 553 l 305 553 l 263 511 l 263 239 l 305 197 l 535 197 l 535 0 l 209 0 m 240 53 l 482 53 l 482 143 l 284 143 l 210 217 l 210 538 l 281 609 l 482 609 l 482 698 l 238 698 l 120 581 l 120 172 l 240 53 m 222 772 l 391 956 l 590 956 l 393 772 l 222 772 m 306 806 l 376 806 l 497 922 l 415 922 l 306 806 z "},"č":{"ha":612,"x_min":64,"x_max":550,"o":"m 209 0 l 66 143 l 66 607 l 209 750 l 535 750 l 535 553 l 305 553 l 263 511 l 263 239 l 305 197 l 535 197 l 535 0 l 209 0 m 240 53 l 482 53 l 482 143 l 284 143 l 210 217 l 210 538 l 281 609 l 482 609 l 482 698 l 238 698 l 120 581 l 120 172 l 240 53 m 219 772 l 64 969 l 256 969 l 307 894 l 358 969 l 550 969 l 394 772 l 219 772 m 246 809 l 367 809 l 459 928 l 377 928 l 323 851 l 290 851 l 235 928 l 154 928 l 246 809 z "},"ç":{"ha":776,"x_min":78,"x_max":700,"o":"m 257 -242 l 257 -133 l 399 -133 l 420 -111 l 399 -90 l 306 -90 l 306 0 l 221 0 l 78 143 l 78 607 l 221 750 l 557 750 l 700 607 l 700 451 l 503 451 l 503 511 l 461 553 l 317 553 l 274 511 l 274 239 l 317 197 l 461 197 l 503 239 l 503 299 l 700 299 l 700 143 l 557 0 l 492 0 l 589 -111 l 476 -242 l 257 -242 m 296 -210 l 453 -210 l 542 -111 l 454 -13 l 425 -13 l 425 53 l 530 53 l 647 170 l 647 253 l 558 253 l 558 213 l 486 143 l 296 143 l 222 217 l 222 538 l 293 609 l 486 609 l 558 538 l 558 499 l 647 499 l 647 581 l 530 698 l 249 698 l 132 581 l 132 172 l 252 53 l 346 53 l 346 -58 l 420 -58 l 469 -111 l 420 -165 l 296 -165 l 296 -210 z "},"ḉ":{"ha":776,"x_min":78,"x_max":700,"o":"m 257 -242 l 257 -133 l 399 -133 l 420 -111 l 399 -90 l 306 -90 l 306 0 l 221 0 l 78 143 l 78 607 l 221 750 l 557 750 l 700 607 l 700 451 l 503 451 l 503 511 l 461 553 l 317 553 l 274 511 l 274 239 l 317 197 l 461 197 l 503 239 l 503 299 l 700 299 l 700 143 l 557 0 l 492 0 l 589 -111 l 476 -242 l 257 -242 m 296 -210 l 453 -210 l 542 -111 l 454 -13 l 425 -13 l 425 53 l 530 53 l 647 170 l 647 253 l 558 253 l 558 213 l 486 143 l 296 143 l 222 217 l 222 538 l 293 609 l 486 609 l 558 538 l 558 499 l 647 499 l 647 581 l 530 698 l 249 698 l 132 581 l 132 172 l 252 53 l 346 53 l 346 -58 l 420 -58 l 469 -111 l 420 -165 l 296 -165 l 296 -210 m 222 772 l 391 956 l 590 956 l 393 772 l 222 772 m 306 806 l 376 806 l 497 922 l 415 922 l 306 806 z "},"ĉ":{"ha":612,"x_min":64,"x_max":550,"o":"m 209 0 l 66 143 l 66 607 l 209 750 l 535 750 l 535 553 l 305 553 l 263 511 l 263 239 l 305 197 l 535 197 l 535 0 l 209 0 m 240 53 l 482 53 l 482 143 l 284 143 l 210 217 l 210 538 l 281 609 l 482 609 l 482 698 l 238 698 l 120 581 l 120 172 l 240 53 m 219 969 l 394 969 l 550 772 l 358 772 l 307 847 l 256 772 l 64 772 l 219 969 m 246 933 l 154 813 l 235 813 l 290 891 l 323 891 l 377 813 l 459 813 l 367 933 l 246 933 z "},"ċ":{"ha":612,"x_min":66,"x_max":535,"o":"m 209 0 l 66 143 l 66 607 l 209 750 l 535 750 l 535 553 l 305 553 l 263 511 l 263 239 l 305 197 l 535 197 l 535 0 l 209 0 m 240 53 l 482 53 l 482 143 l 284 143 l 210 217 l 210 538 l 281 609 l 482 609 l 482 698 l 238 698 l 120 581 l 120 172 l 240 53 m 234 786 l 234 932 l 381 932 l 381 786 l 234 786 m 276 827 l 338 827 l 338 890 l 276 890 l 276 827 z "},"d":{"ha":672,"x_min":66,"x_max":595,"o":"m 451 0 l 210 0 l 66 143 l 66 607 l 210 750 l 385 750 l 399 737 l 399 1042 l 595 1042 l 595 143 l 451 0 m 378 141 l 285 141 l 210 215 l 210 543 l 278 610 l 359 610 l 453 517 l 453 215 l 378 141 m 356 197 l 399 239 l 399 498 l 343 554 l 305 554 l 263 511 l 263 239 l 305 197 l 356 197 m 422 52 l 542 172 l 542 990 l 453 990 l 453 622 l 376 699 l 235 699 l 121 586 l 121 172 l 242 52 l 422 52 z "},"ð":{"ha":757,"x_min":72,"x_max":685,"o":"m 215 0 l 72 143 l 72 515 l 215 658 l 345 658 l 262 735 l 332 805 l 164 972 l 438 972 l 469 941 l 514 986 l 603 904 l 552 854 l 685 718 l 685 143 l 542 0 l 215 0 m 287 144 l 216 214 l 216 446 l 287 516 l 446 516 l 544 419 l 544 216 l 471 144 l 287 144 m 310 197 l 447 197 l 489 239 l 489 406 l 433 462 l 310 462 l 268 419 l 268 239 l 310 197 m 244 54 l 514 54 l 633 173 l 633 694 l 491 841 l 545 895 l 506 932 l 454 881 l 407 928 l 283 928 l 393 818 l 325 751 l 364 715 l 431 781 l 544 665 l 544 519 l 456 606 l 244 606 l 127 489 l 127 171 l 244 54 m 489 631 l 489 650 l 417 720 l 356 658 l 461 658 l 489 631 z "},"ď":{"ha":874,"x_min":66,"x_max":874,"o":"m 451 0 l 210 0 l 66 143 l 66 607 l 210 750 l 385 750 l 399 737 l 399 1042 l 595 1042 l 595 143 l 451 0 m 378 141 l 285 141 l 210 215 l 210 543 l 278 610 l 359 610 l 453 517 l 453 215 l 378 141 m 356 197 l 399 239 l 399 498 l 343 554 l 305 554 l 263 511 l 263 239 l 305 197 l 356 197 m 422 52 l 542 172 l 542 990 l 453 990 l 453 622 l 376 699 l 235 699 l 121 586 l 121 172 l 242 52 l 422 52 m 697 726 l 665 846 l 665 1042 l 874 1042 l 874 846 l 841 726 l 697 726 m 739 774 l 801 774 l 818 848 l 818 986 l 723 986 l 723 848 l 739 774 z "},"đ":{"ha":792,"x_min":63,"x_max":786,"o":"m 206 0 l 63 143 l 63 607 l 206 750 l 492 750 l 506 737 l 506 815 l 347 815 l 347 987 l 506 987 l 506 1042 l 703 1042 l 703 987 l 786 987 l 786 815 l 703 815 l 703 143 l 559 0 l 206 0 m 280 141 l 205 215 l 205 543 l 273 610 l 465 610 l 559 517 l 559 215 l 484 141 l 280 141 m 301 197 l 464 197 l 506 239 l 506 498 l 451 554 l 301 554 l 259 511 l 259 239 l 301 197 m 236 52 l 528 52 l 648 172 l 648 864 l 740 864 l 740 940 l 648 940 l 648 990 l 559 990 l 559 940 l 401 940 l 401 864 l 559 864 l 559 622 l 482 699 l 229 699 l 116 586 l 116 172 l 236 52 z "},"ḍ":{"ha":672,"x_min":66,"x_max":595,"o":"m 451 0 l 210 0 l 66 143 l 66 607 l 210 750 l 385 750 l 399 737 l 399 1042 l 595 1042 l 595 143 l 451 0 m 378 141 l 285 141 l 210 215 l 210 543 l 278 610 l 359 610 l 453 517 l 453 215 l 378 141 m 356 197 l 399 239 l 399 498 l 343 554 l 305 554 l 263 511 l 263 239 l 305 197 l 356 197 m 422 52 l 542 172 l 542 990 l 453 990 l 453 622 l 376 699 l 235 699 l 121 586 l 121 172 l 242 52 l 422 52 m 271 -188 l 271 -42 l 418 -42 l 418 -188 l 271 -188 m 313 -147 l 374 -147 l 374 -84 l 313 -84 l 313 -147 z "},"ḏ":{"ha":672,"x_min":66,"x_max":595,"o":"m 451 0 l 210 0 l 66 143 l 66 607 l 210 750 l 385 750 l 399 737 l 399 1042 l 595 1042 l 595 143 l 451 0 m 378 141 l 285 141 l 210 215 l 210 543 l 278 610 l 359 610 l 453 517 l 453 215 l 378 141 m 356 197 l 399 239 l 399 498 l 343 554 l 305 554 l 263 511 l 263 239 l 305 197 l 356 197 m 422 52 l 542 172 l 542 990 l 453 990 l 453 622 l 376 699 l 235 699 l 121 586 l 121 172 l 242 52 l 422 52 m 125 -226 l 125 -49 l 564 -49 l 564 -226 l 125 -226 m 180 -178 l 513 -178 l 513 -99 l 180 -99 l 180 -178 z "},"ǆ":{"ha":1241,"x_min":66,"x_max":1199,"o":"m 451 0 l 210 0 l 66 143 l 66 607 l 210 750 l 385 750 l 399 737 l 399 1042 l 595 1042 l 595 143 l 451 0 m 378 141 l 285 141 l 210 215 l 210 543 l 278 610 l 359 610 l 453 517 l 453 215 l 378 141 m 356 197 l 399 239 l 399 498 l 343 554 l 305 554 l 263 511 l 263 239 l 305 197 l 356 197 m 422 52 l 542 172 l 542 990 l 453 990 l 453 622 l 376 699 l 235 699 l 121 586 l 121 172 l 242 52 l 422 52 m 801 55 l 1124 55 l 1124 144 l 913 144 l 913 241 l 1114 490 l 1114 697 l 802 697 l 802 608 l 1004 608 l 1004 508 l 801 255 l 801 55 m 738 0 l 738 267 l 942 526 l 942 553 l 751 553 l 751 750 l 1175 750 l 1175 478 l 975 226 l 975 197 l 1175 197 l 1175 0 l 738 0 m 869 772 l 713 969 l 906 969 l 956 894 l 1007 969 l 1199 969 l 1044 772 l 869 772 m 895 809 l 1016 809 l 1108 928 l 1026 928 l 972 851 l 939 851 l 885 928 l 803 928 l 895 809 z "},"e":{"ha":645,"x_min":66,"x_max":579,"o":"m 436 750 l 579 607 l 579 409 l 436 266 l 263 266 l 263 239 l 305 197 l 569 197 l 569 0 l 209 0 l 66 143 l 66 607 l 209 750 l 436 750 m 365 608 l 436 537 l 436 463 l 376 403 l 205 403 l 205 533 l 279 608 l 365 608 m 408 697 l 235 697 l 115 576 l 115 170 l 233 53 l 513 53 l 513 142 l 276 142 l 205 213 l 205 317 l 412 317 l 525 430 l 525 580 l 408 697 m 340 553 l 305 553 l 263 511 l 263 456 l 354 456 l 383 485 l 383 511 l 340 553 z "},"é":{"ha":645,"x_min":66,"x_max":606,"o":"m 436 750 l 579 607 l 579 409 l 436 266 l 263 266 l 263 239 l 305 197 l 569 197 l 569 0 l 209 0 l 66 143 l 66 607 l 209 750 l 436 750 m 365 608 l 436 537 l 436 463 l 376 403 l 205 403 l 205 533 l 279 608 l 365 608 m 408 697 l 235 697 l 115 576 l 115 170 l 233 53 l 513 53 l 513 142 l 276 142 l 205 213 l 205 317 l 412 317 l 525 430 l 525 580 l 408 697 m 340 553 l 305 553 l 263 511 l 263 456 l 354 456 l 383 485 l 383 511 l 340 553 m 237 772 l 406 956 l 606 956 l 408 772 l 237 772 m 322 806 l 392 806 l 512 922 l 430 922 l 322 806 z "},"ĕ":{"ha":645,"x_min":66,"x_max":579,"o":"m 436 750 l 579 607 l 579 409 l 436 266 l 263 266 l 263 239 l 305 197 l 569 197 l 569 0 l 209 0 l 66 143 l 66 607 l 209 750 l 436 750 m 365 608 l 436 537 l 436 463 l 376 403 l 205 403 l 205 533 l 279 608 l 365 608 m 408 697 l 235 697 l 115 576 l 115 170 l 233 53 l 513 53 l 513 142 l 276 142 l 205 213 l 205 317 l 412 317 l 525 430 l 525 580 l 408 697 m 340 553 l 305 553 l 263 511 l 263 456 l 354 456 l 383 485 l 383 511 l 340 553 m 240 772 l 162 850 l 162 958 l 295 958 l 295 906 l 349 906 l 349 958 l 483 958 l 483 850 l 405 772 l 240 772 m 262 809 l 383 809 l 443 871 l 443 920 l 386 920 l 386 892 l 362 866 l 283 866 l 259 892 l 259 920 l 202 920 l 202 871 l 262 809 z "},"ě":{"ha":645,"x_min":66,"x_max":579,"o":"m 436 750 l 579 607 l 579 409 l 436 266 l 263 266 l 263 239 l 305 197 l 569 197 l 569 0 l 209 0 l 66 143 l 66 607 l 209 750 l 436 750 m 365 608 l 436 537 l 436 463 l 376 403 l 205 403 l 205 533 l 279 608 l 365 608 m 408 697 l 235 697 l 115 576 l 115 170 l 233 53 l 513 53 l 513 142 l 276 142 l 205 213 l 205 317 l 412 317 l 525 430 l 525 580 l 408 697 m 340 553 l 305 553 l 263 511 l 263 456 l 354 456 l 383 485 l 383 511 l 340 553 m 235 772 l 79 969 l 272 969 l 322 894 l 373 969 l 565 969 l 410 772 l 235 772 m 261 809 l 382 809 l 474 928 l 392 928 l 338 851 l 305 851 l 251 928 l 169 928 l 261 809 z "},"ḝ":{"ha":645,"x_min":66,"x_max":579,"o":"m 436 750 l 579 607 l 579 409 l 436 266 l 263 266 l 263 239 l 305 197 l 569 197 l 569 0 l 209 0 l 66 143 l 66 607 l 209 750 l 436 750 m 365 608 l 436 537 l 436 463 l 376 403 l 205 403 l 205 533 l 279 608 l 365 608 m 408 697 l 235 697 l 115 576 l 115 170 l 233 53 l 513 53 l 513 142 l 276 142 l 205 213 l 205 317 l 412 317 l 525 430 l 525 580 l 408 697 m 340 553 l 305 553 l 263 511 l 263 456 l 354 456 l 383 485 l 383 511 l 340 553 m 177 -278 l 177 -169 l 319 -169 l 340 -147 l 319 -126 l 226 -126 l 226 -17 l 396 -17 l 509 -147 l 396 -278 l 177 -278 m 216 -246 l 374 -246 l 462 -147 l 374 -49 l 266 -49 l 266 -94 l 340 -94 l 389 -147 l 340 -201 l 216 -201 l 216 -246 m 240 772 l 162 850 l 162 958 l 295 958 l 295 906 l 349 906 l 349 958 l 483 958 l 483 850 l 405 772 l 240 772 m 262 809 l 383 809 l 443 871 l 443 920 l 386 920 l 386 892 l 362 866 l 283 866 l 259 892 l 259 920 l 202 920 l 202 871 l 262 809 z "},"ê":{"ha":645,"x_min":66,"x_max":579,"o":"m 436 750 l 579 607 l 579 409 l 436 266 l 263 266 l 263 239 l 305 197 l 569 197 l 569 0 l 209 0 l 66 143 l 66 607 l 209 750 l 436 750 m 365 608 l 436 537 l 436 463 l 376 403 l 205 403 l 205 533 l 279 608 l 365 608 m 408 697 l 235 697 l 115 576 l 115 170 l 233 53 l 513 53 l 513 142 l 276 142 l 205 213 l 205 317 l 412 317 l 525 430 l 525 580 l 408 697 m 340 553 l 305 553 l 263 511 l 263 456 l 354 456 l 383 485 l 383 511 l 340 553 m 235 969 l 410 969 l 565 772 l 373 772 l 322 847 l 272 772 l 79 772 l 235 969 m 261 933 l 169 813 l 251 813 l 305 891 l 338 891 l 392 813 l 474 813 l 382 933 l 261 933 z "},"ế":{"ha":645,"x_min":66,"x_max":827,"o":"m 436 750 l 579 607 l 579 409 l 436 266 l 263 266 l 263 239 l 305 197 l 569 197 l 569 0 l 209 0 l 66 143 l 66 607 l 209 750 l 436 750 m 365 608 l 436 537 l 436 463 l 376 403 l 205 403 l 205 533 l 279 608 l 365 608 m 408 697 l 235 697 l 115 576 l 115 170 l 233 53 l 513 53 l 513 142 l 276 142 l 205 213 l 205 317 l 412 317 l 525 430 l 525 580 l 408 697 m 340 553 l 305 553 l 263 511 l 263 456 l 354 456 l 383 485 l 383 511 l 340 553 m 235 969 l 410 969 l 565 772 l 373 772 l 322 847 l 272 772 l 79 772 l 235 969 m 261 933 l 169 813 l 251 813 l 305 891 l 338 891 l 392 813 l 474 813 l 382 933 l 261 933 m 458 931 l 628 1114 l 827 1114 l 630 931 l 458 931 m 543 964 l 613 964 l 733 1080 l 651 1080 l 543 964 z "},"ệ":{"ha":645,"x_min":66,"x_max":579,"o":"m 436 750 l 579 607 l 579 409 l 436 266 l 263 266 l 263 239 l 305 197 l 569 197 l 569 0 l 209 0 l 66 143 l 66 607 l 209 750 l 436 750 m 365 608 l 436 537 l 436 463 l 376 403 l 205 403 l 205 533 l 279 608 l 365 608 m 408 697 l 235 697 l 115 576 l 115 170 l 233 53 l 513 53 l 513 142 l 276 142 l 205 213 l 205 317 l 412 317 l 525 430 l 525 580 l 408 697 m 340 553 l 305 553 l 263 511 l 263 456 l 354 456 l 383 485 l 383 511 l 340 553 m 251 -188 l 251 -42 l 398 -42 l 398 -188 l 251 -188 m 293 -147 l 354 -147 l 354 -84 l 293 -84 l 293 -147 m 235 969 l 410 969 l 565 772 l 373 772 l 322 847 l 272 772 l 79 772 l 235 969 m 261 933 l 169 813 l 251 813 l 305 891 l 338 891 l 392 813 l 474 813 l 382 933 l 261 933 z "},"ề":{"ha":645,"x_min":66,"x_max":661,"o":"m 436 750 l 579 607 l 579 409 l 436 266 l 263 266 l 263 239 l 305 197 l 569 197 l 569 0 l 209 0 l 66 143 l 66 607 l 209 750 l 436 750 m 365 608 l 436 537 l 436 463 l 376 403 l 205 403 l 205 533 l 279 608 l 365 608 m 408 697 l 235 697 l 115 576 l 115 170 l 233 53 l 513 53 l 513 142 l 276 142 l 205 213 l 205 317 l 412 317 l 525 430 l 525 580 l 408 697 m 340 553 l 305 553 l 263 511 l 263 456 l 354 456 l 383 485 l 383 511 l 340 553 m 235 969 l 410 969 l 565 772 l 373 772 l 322 847 l 272 772 l 79 772 l 235 969 m 261 933 l 169 813 l 251 813 l 305 891 l 338 891 l 392 813 l 474 813 l 382 933 l 261 933 m 661 931 l 490 931 l 292 1114 l 492 1114 l 661 931 m 577 964 l 469 1080 l 387 1080 l 507 964 l 577 964 z "},"ể":{"ha":645,"x_min":66,"x_max":751,"o":"m 436 750 l 579 607 l 579 409 l 436 266 l 263 266 l 263 239 l 305 197 l 569 197 l 569 0 l 209 0 l 66 143 l 66 607 l 209 750 l 436 750 m 365 608 l 436 537 l 436 463 l 376 403 l 205 403 l 205 533 l 279 608 l 365 608 m 408 697 l 235 697 l 115 576 l 115 170 l 233 53 l 513 53 l 513 142 l 276 142 l 205 213 l 205 317 l 412 317 l 525 430 l 525 580 l 408 697 m 340 553 l 305 553 l 263 511 l 263 456 l 354 456 l 383 485 l 383 511 l 340 553 m 235 969 l 410 969 l 565 772 l 373 772 l 322 847 l 272 772 l 79 772 l 235 969 m 261 933 l 169 813 l 251 813 l 305 891 l 338 891 l 392 813 l 474 813 l 382 933 l 261 933 m 419 1166 l 638 1166 l 751 1035 l 638 905 l 469 905 l 469 1014 l 562 1014 l 583 1035 l 562 1057 l 419 1057 l 419 1166 m 458 1134 l 458 1089 l 583 1089 l 631 1035 l 583 982 l 508 982 l 508 937 l 616 937 l 704 1035 l 616 1134 l 458 1134 z "},"ễ":{"ha":645,"x_min":66,"x_max":579,"o":"m 436 750 l 579 607 l 579 409 l 436 266 l 263 266 l 263 239 l 305 197 l 569 197 l 569 0 l 209 0 l 66 143 l 66 607 l 209 750 l 436 750 m 365 608 l 436 537 l 436 463 l 376 403 l 205 403 l 205 533 l 279 608 l 365 608 m 408 697 l 235 697 l 115 576 l 115 170 l 233 53 l 513 53 l 513 142 l 276 142 l 205 213 l 205 317 l 412 317 l 525 430 l 525 580 l 408 697 m 340 553 l 305 553 l 263 511 l 263 456 l 354 456 l 383 485 l 383 511 l 340 553 m 235 969 l 410 969 l 565 772 l 373 772 l 322 847 l 272 772 l 79 772 l 235 969 m 261 933 l 169 813 l 251 813 l 305 891 l 338 891 l 392 813 l 474 813 l 382 933 l 261 933 m 128 992 l 128 1086 l 206 1164 l 330 1164 l 369 1125 l 381 1125 l 381 1164 l 515 1164 l 515 1069 l 437 992 l 313 992 l 274 1031 l 262 1031 l 262 992 l 128 992 m 169 1026 l 226 1026 l 226 1045 l 250 1072 l 289 1072 l 333 1028 l 417 1028 l 476 1090 l 476 1131 l 419 1131 l 419 1111 l 395 1085 l 353 1085 l 310 1128 l 228 1128 l 169 1066 l 169 1026 z "},"ȅ":{"ha":645,"x_min":-91,"x_max":579,"o":"m 436 750 l 579 607 l 579 409 l 436 266 l 263 266 l 263 239 l 305 197 l 569 197 l 569 0 l 209 0 l 66 143 l 66 607 l 209 750 l 436 750 m 365 608 l 436 537 l 436 463 l 376 403 l 205 403 l 205 533 l 279 608 l 365 608 m 408 697 l 235 697 l 115 576 l 115 170 l 233 53 l 513 53 l 513 142 l 276 142 l 205 213 l 205 317 l 412 317 l 525 430 l 525 580 l 408 697 m 340 553 l 305 553 l 263 511 l 263 456 l 354 456 l 383 485 l 383 511 l 340 553 m 550 772 l 378 772 l 181 956 l 381 956 l 550 772 m 466 806 l 358 922 l 276 922 l 396 806 l 466 806 m 278 772 l 106 772 l -91 956 l 108 956 l 278 772 m 194 806 l 85 922 l 3 922 l 124 806 l 194 806 z "},"ë":{"ha":645,"x_min":66,"x_max":579,"o":"m 436 750 l 579 607 l 579 409 l 436 266 l 263 266 l 263 239 l 305 197 l 569 197 l 569 0 l 209 0 l 66 143 l 66 607 l 209 750 l 436 750 m 365 608 l 436 537 l 436 463 l 376 403 l 205 403 l 205 533 l 279 608 l 365 608 m 408 697 l 235 697 l 115 576 l 115 170 l 233 53 l 513 53 l 513 142 l 276 142 l 205 213 l 205 317 l 412 317 l 525 430 l 525 580 l 408 697 m 340 553 l 305 553 l 263 511 l 263 456 l 354 456 l 383 485 l 383 511 l 340 553 m 394 786 l 394 932 l 541 932 l 541 786 l 394 786 m 105 786 l 105 932 l 252 932 l 252 786 l 105 786 m 147 827 l 208 827 l 208 890 l 147 890 l 147 827 m 437 827 l 498 827 l 498 890 l 437 890 l 437 827 z "},"ė":{"ha":645,"x_min":66,"x_max":579,"o":"m 436 750 l 579 607 l 579 409 l 436 266 l 263 266 l 263 239 l 305 197 l 569 197 l 569 0 l 209 0 l 66 143 l 66 607 l 209 750 l 436 750 m 365 608 l 436 537 l 436 463 l 376 403 l 205 403 l 205 533 l 279 608 l 365 608 m 408 697 l 235 697 l 115 576 l 115 170 l 233 53 l 513 53 l 513 142 l 276 142 l 205 213 l 205 317 l 412 317 l 525 430 l 525 580 l 408 697 m 340 553 l 305 553 l 263 511 l 263 456 l 354 456 l 383 485 l 383 511 l 340 553 m 249 786 l 249 932 l 397 932 l 397 786 l 249 786 m 292 827 l 353 827 l 353 890 l 292 890 l 292 827 z "},"ẹ":{"ha":645,"x_min":66,"x_max":579,"o":"m 436 750 l 579 607 l 579 409 l 436 266 l 263 266 l 263 239 l 305 197 l 569 197 l 569 0 l 209 0 l 66 143 l 66 607 l 209 750 l 436 750 m 365 608 l 436 537 l 436 463 l 376 403 l 205 403 l 205 533 l 279 608 l 365 608 m 408 697 l 235 697 l 115 576 l 115 170 l 233 53 l 513 53 l 513 142 l 276 142 l 205 213 l 205 317 l 412 317 l 525 430 l 525 580 l 408 697 m 340 553 l 305 553 l 263 511 l 263 456 l 354 456 l 383 485 l 383 511 l 340 553 m 251 -188 l 251 -42 l 398 -42 l 398 -188 l 251 -188 m 293 -147 l 354 -147 l 354 -84 l 293 -84 l 293 -147 z "},"è":{"ha":645,"x_min":54,"x_max":579,"o":"m 436 750 l 579 607 l 579 409 l 436 266 l 263 266 l 263 239 l 305 197 l 569 197 l 569 0 l 209 0 l 66 143 l 66 607 l 209 750 l 436 750 m 365 608 l 436 537 l 436 463 l 376 403 l 205 403 l 205 533 l 279 608 l 365 608 m 408 697 l 235 697 l 115 576 l 115 170 l 233 53 l 513 53 l 513 142 l 276 142 l 205 213 l 205 317 l 412 317 l 525 430 l 525 580 l 408 697 m 340 553 l 305 553 l 263 511 l 263 456 l 354 456 l 383 485 l 383 511 l 340 553 m 423 772 l 251 772 l 54 956 l 253 956 l 423 772 m 339 806 l 231 922 l 149 922 l 269 806 l 339 806 z "},"ẻ":{"ha":645,"x_min":66,"x_max":579,"o":"m 436 750 l 579 607 l 579 409 l 436 266 l 263 266 l 263 239 l 305 197 l 569 197 l 569 0 l 209 0 l 66 143 l 66 607 l 209 750 l 436 750 m 365 608 l 436 537 l 436 463 l 376 403 l 205 403 l 205 533 l 279 608 l 365 608 m 408 697 l 235 697 l 115 576 l 115 170 l 233 53 l 513 53 l 513 142 l 276 142 l 205 213 l 205 317 l 412 317 l 525 430 l 525 580 l 408 697 m 340 553 l 305 553 l 263 511 l 263 456 l 354 456 l 383 485 l 383 511 l 340 553 m 156 1029 l 375 1029 l 488 898 l 375 768 l 206 768 l 206 877 l 299 877 l 319 898 l 299 920 l 156 920 l 156 1029 m 195 997 l 195 952 l 319 952 l 368 898 l 319 845 l 245 845 l 245 800 l 353 800 l 441 898 l 353 997 l 195 997 z "},"ȇ":{"ha":645,"x_min":66,"x_max":579,"o":"m 436 750 l 579 607 l 579 409 l 436 266 l 263 266 l 263 239 l 305 197 l 569 197 l 569 0 l 209 0 l 66 143 l 66 607 l 209 750 l 436 750 m 365 608 l 436 537 l 436 463 l 376 403 l 205 403 l 205 533 l 279 608 l 365 608 m 408 697 l 235 697 l 115 576 l 115 170 l 233 53 l 513 53 l 513 142 l 276 142 l 205 213 l 205 317 l 412 317 l 525 430 l 525 580 l 408 697 m 340 553 l 305 553 l 263 511 l 263 456 l 354 456 l 383 485 l 383 511 l 340 553 m 405 958 l 483 880 l 483 772 l 349 772 l 349 824 l 295 824 l 295 772 l 162 772 l 162 880 l 240 958 l 405 958 m 383 921 l 261 921 l 201 859 l 201 810 l 258 810 l 258 838 l 283 865 l 361 865 l 385 838 l 385 810 l 442 810 l 442 859 l 383 921 z "},"ē":{"ha":645,"x_min":66,"x_max":579,"o":"m 436 750 l 579 607 l 579 409 l 436 266 l 263 266 l 263 239 l 305 197 l 569 197 l 569 0 l 209 0 l 66 143 l 66 607 l 209 750 l 436 750 m 365 608 l 436 537 l 436 463 l 376 403 l 205 403 l 205 533 l 279 608 l 365 608 m 408 697 l 235 697 l 115 576 l 115 170 l 233 53 l 513 53 l 513 142 l 276 142 l 205 213 l 205 317 l 412 317 l 525 430 l 525 580 l 408 697 m 340 553 l 305 553 l 263 511 l 263 456 l 354 456 l 383 485 l 383 511 l 340 553 m 103 772 l 103 949 l 542 949 l 542 772 l 103 772 m 158 819 l 491 819 l 491 899 l 158 899 l 158 819 z "},"ḗ":{"ha":645,"x_min":66,"x_max":606,"o":"m 436 750 l 579 607 l 579 409 l 436 266 l 263 266 l 263 239 l 305 197 l 569 197 l 569 0 l 209 0 l 66 143 l 66 607 l 209 750 l 436 750 m 365 608 l 436 537 l 436 463 l 376 403 l 205 403 l 205 533 l 279 608 l 365 608 m 408 697 l 235 697 l 115 576 l 115 170 l 233 53 l 513 53 l 513 142 l 276 142 l 205 213 l 205 317 l 412 317 l 525 430 l 525 580 l 408 697 m 340 553 l 305 553 l 263 511 l 263 456 l 354 456 l 383 485 l 383 511 l 340 553 m 103 772 l 103 949 l 542 949 l 542 772 l 103 772 m 158 819 l 491 819 l 491 899 l 158 899 l 158 819 m 237 972 l 406 1155 l 606 1155 l 408 972 l 237 972 m 322 1005 l 392 1005 l 512 1121 l 430 1121 l 322 1005 z "},"ḕ":{"ha":645,"x_min":54,"x_max":579,"o":"m 436 750 l 579 607 l 579 409 l 436 266 l 263 266 l 263 239 l 305 197 l 569 197 l 569 0 l 209 0 l 66 143 l 66 607 l 209 750 l 436 750 m 365 608 l 436 537 l 436 463 l 376 403 l 205 403 l 205 533 l 279 608 l 365 608 m 408 697 l 235 697 l 115 576 l 115 170 l 233 53 l 513 53 l 513 142 l 276 142 l 205 213 l 205 317 l 412 317 l 525 430 l 525 580 l 408 697 m 340 553 l 305 553 l 263 511 l 263 456 l 354 456 l 383 485 l 383 511 l 340 553 m 103 772 l 103 949 l 542 949 l 542 772 l 103 772 m 158 819 l 491 819 l 491 899 l 158 899 l 158 819 m 423 972 l 251 972 l 54 1155 l 253 1155 l 423 972 m 339 1005 l 231 1121 l 149 1121 l 269 1005 l 339 1005 z "},"ę":{"ha":771,"x_min":75,"x_max":697,"o":"m 418 -255 l 305 -124 l 416 0 l 218 0 l 75 143 l 75 607 l 218 750 l 554 750 l 697 607 l 697 419 l 554 276 l 272 276 l 272 239 l 314 197 l 688 197 l 688 0 l 569 0 l 446 -124 l 467 -146 l 630 -146 l 630 -255 l 418 -255 m 433 -223 l 599 -223 l 599 -178 l 452 -178 l 402 -124 l 574 55 l 628 55 l 628 144 l 288 144 l 216 215 l 216 329 l 530 329 l 643 442 l 643 581 l 526 697 l 247 697 l 127 577 l 127 172 l 244 55 l 512 55 l 346 -124 l 433 -223 m 216 415 l 216 534 l 291 608 l 483 608 l 554 538 l 554 475 l 494 415 l 216 415 m 272 466 l 472 466 l 501 495 l 501 511 l 458 553 l 314 553 l 272 511 l 272 466 z "},"ẽ":{"ha":645,"x_min":66,"x_max":579,"o":"m 436 750 l 579 607 l 579 409 l 436 266 l 263 266 l 263 239 l 305 197 l 569 197 l 569 0 l 209 0 l 66 143 l 66 607 l 209 750 l 436 750 m 365 608 l 436 537 l 436 463 l 376 403 l 205 403 l 205 533 l 279 608 l 365 608 m 408 697 l 235 697 l 115 576 l 115 170 l 233 53 l 513 53 l 513 142 l 276 142 l 205 213 l 205 317 l 412 317 l 525 430 l 525 580 l 408 697 m 340 553 l 305 553 l 263 511 l 263 456 l 354 456 l 383 485 l 383 511 l 340 553 m 128 772 l 128 867 l 206 944 l 330 944 l 369 906 l 381 906 l 381 944 l 515 944 l 515 850 l 437 772 l 313 772 l 274 811 l 262 811 l 262 772 l 128 772 m 169 806 l 226 806 l 226 826 l 250 852 l 289 852 l 333 809 l 417 809 l 476 871 l 476 911 l 419 911 l 419 892 l 395 866 l 353 866 l 310 908 l 228 908 l 169 847 l 169 806 z "},"ə":{"ha":645,"x_min":66,"x_max":579,"o":"m 209 0 l 66 143 l 66 341 l 209 484 l 383 484 l 383 511 l 340 553 l 76 553 l 76 750 l 436 750 l 579 607 l 579 143 l 436 0 l 209 0 m 281 142 l 209 213 l 209 287 l 269 347 l 440 347 l 440 217 l 366 142 l 281 142 m 237 53 l 410 53 l 530 174 l 530 580 l 413 697 l 133 697 l 133 608 l 369 608 l 440 537 l 440 433 l 233 433 l 120 320 l 120 170 l 237 53 m 305 197 l 340 197 l 383 239 l 383 294 l 291 294 l 262 265 l 262 239 l 305 197 z "},"f":{"ha":542,"x_min":42,"x_max":476,"o":"m 158 0 l 158 554 l 42 554 l 42 750 l 158 750 l 158 899 l 301 1042 l 476 1042 l 476 859 l 385 859 l 354 828 l 354 750 l 476 750 l 476 554 l 354 554 l 354 0 l 158 0 m 211 52 l 301 52 l 301 608 l 426 608 l 426 697 l 301 697 l 301 846 l 365 910 l 426 910 l 426 992 l 326 992 l 211 878 l 211 697 l 96 697 l 96 608 l 211 608 l 211 52 z "},"g":{"ha":671,"x_min":66,"x_max":594,"o":"m 101 -278 l 101 -82 l 342 -82 l 399 -26 l 399 14 l 385 0 l 209 0 l 66 143 l 66 607 l 209 750 l 451 750 l 594 607 l 594 -135 l 451 -278 l 101 -278 m 154 -226 l 417 -226 l 543 -97 l 543 578 l 423 699 l 236 699 l 119 582 l 119 175 l 240 54 l 371 54 l 454 138 l 454 -48 l 367 -136 l 154 -136 l 154 -226 m 284 144 l 209 218 l 209 539 l 280 610 l 380 610 l 454 535 l 454 249 l 347 144 l 284 144 m 305 197 l 329 197 l 399 266 l 399 512 l 356 554 l 305 554 l 263 512 l 263 239 l 305 197 z "},"ğ":{"ha":671,"x_min":66,"x_max":594,"o":"m 101 -278 l 101 -82 l 342 -82 l 399 -26 l 399 14 l 385 0 l 209 0 l 66 143 l 66 607 l 209 750 l 451 750 l 594 607 l 594 -135 l 451 -278 l 101 -278 m 154 -226 l 417 -226 l 543 -97 l 543 578 l 423 699 l 236 699 l 119 582 l 119 175 l 240 54 l 371 54 l 454 138 l 454 -48 l 367 -136 l 154 -136 l 154 -226 m 284 144 l 209 218 l 209 539 l 280 610 l 380 610 l 454 535 l 454 249 l 347 144 l 284 144 m 305 197 l 329 197 l 399 266 l 399 512 l 356 554 l 305 554 l 263 512 l 263 239 l 305 197 m 244 772 l 167 850 l 167 958 l 300 958 l 300 906 l 354 906 l 354 958 l 488 958 l 488 850 l 410 772 l 244 772 m 267 809 l 388 809 l 448 871 l 448 920 l 391 920 l 391 892 l 367 866 l 288 866 l 264 892 l 264 920 l 207 920 l 207 871 l 267 809 z "},"ǧ":{"ha":671,"x_min":66,"x_max":594,"o":"m 101 -278 l 101 -82 l 342 -82 l 399 -26 l 399 14 l 385 0 l 209 0 l 66 143 l 66 607 l 209 750 l 451 750 l 594 607 l 594 -135 l 451 -278 l 101 -278 m 154 -226 l 417 -226 l 543 -97 l 543 578 l 423 699 l 236 699 l 119 582 l 119 175 l 240 54 l 371 54 l 454 138 l 454 -48 l 367 -136 l 154 -136 l 154 -226 m 284 144 l 209 218 l 209 539 l 280 610 l 380 610 l 454 535 l 454 249 l 347 144 l 284 144 m 305 197 l 329 197 l 399 266 l 399 512 l 356 554 l 305 554 l 263 512 l 263 239 l 305 197 m 240 772 l 84 969 l 276 969 l 327 894 l 378 969 l 570 969 l 415 772 l 240 772 m 266 809 l 387 809 l 479 928 l 397 928 l 343 851 l 310 851 l 256 928 l 174 928 l 266 809 z "},"ĝ":{"ha":671,"x_min":66,"x_max":594,"o":"m 101 -278 l 101 -82 l 342 -82 l 399 -26 l 399 14 l 385 0 l 209 0 l 66 143 l 66 607 l 209 750 l 451 750 l 594 607 l 594 -135 l 451 -278 l 101 -278 m 154 -226 l 417 -226 l 543 -97 l 543 578 l 423 699 l 236 699 l 119 582 l 119 175 l 240 54 l 371 54 l 454 138 l 454 -48 l 367 -136 l 154 -136 l 154 -226 m 284 144 l 209 218 l 209 539 l 280 610 l 380 610 l 454 535 l 454 249 l 347 144 l 284 144 m 305 197 l 329 197 l 399 266 l 399 512 l 356 554 l 305 554 l 263 512 l 263 239 l 305 197 m 240 969 l 415 969 l 570 772 l 378 772 l 327 847 l 276 772 l 84 772 l 240 969 m 266 933 l 174 813 l 256 813 l 310 891 l 343 891 l 397 813 l 479 813 l 387 933 l 266 933 z "},"ģ":{"ha":671,"x_min":66,"x_max":594,"o":"m 101 -278 l 101 -82 l 342 -82 l 399 -26 l 399 14 l 385 0 l 209 0 l 66 143 l 66 607 l 209 750 l 451 750 l 594 607 l 594 -135 l 451 -278 l 101 -278 m 154 -226 l 417 -226 l 543 -97 l 543 578 l 423 699 l 236 699 l 119 582 l 119 175 l 240 54 l 371 54 l 454 138 l 454 -48 l 367 -136 l 154 -136 l 154 -226 m 284 144 l 209 218 l 209 539 l 280 610 l 380 610 l 454 535 l 454 249 l 347 144 l 284 144 m 305 197 l 329 197 l 399 266 l 399 512 l 356 554 l 305 554 l 263 512 l 263 239 l 305 197 m 480 1089 l 401 771 l 213 771 l 323 1089 l 480 1089 m 421 1042 l 357 1042 l 280 826 l 366 826 l 421 1042 z "},"ġ":{"ha":671,"x_min":66,"x_max":594,"o":"m 101 -278 l 101 -82 l 342 -82 l 399 -26 l 399 14 l 385 0 l 209 0 l 66 143 l 66 607 l 209 750 l 451 750 l 594 607 l 594 -135 l 451 -278 l 101 -278 m 154 -226 l 417 -226 l 543 -97 l 543 578 l 423 699 l 236 699 l 119 582 l 119 175 l 240 54 l 371 54 l 454 138 l 454 -48 l 367 -136 l 154 -136 l 154 -226 m 284 144 l 209 218 l 209 539 l 280 610 l 380 610 l 454 535 l 454 249 l 347 144 l 284 144 m 305 197 l 329 197 l 399 266 l 399 512 l 356 554 l 305 554 l 263 512 l 263 239 l 305 197 m 254 786 l 254 932 l 401 932 l 401 786 l 254 786 m 297 827 l 358 827 l 358 890 l 297 890 l 297 827 z "},"ḡ":{"ha":671,"x_min":66,"x_max":594,"o":"m 101 -278 l 101 -82 l 342 -82 l 399 -26 l 399 14 l 385 0 l 209 0 l 66 143 l 66 607 l 209 750 l 451 750 l 594 607 l 594 -135 l 451 -278 l 101 -278 m 154 -226 l 417 -226 l 543 -97 l 543 578 l 423 699 l 236 699 l 119 582 l 119 175 l 240 54 l 371 54 l 454 138 l 454 -48 l 367 -136 l 154 -136 l 154 -226 m 284 144 l 209 218 l 209 539 l 280 610 l 380 610 l 454 535 l 454 249 l 347 144 l 284 144 m 305 197 l 329 197 l 399 266 l 399 512 l 356 554 l 305 554 l 263 512 l 263 239 l 305 197 m 108 772 l 108 949 l 547 949 l 547 772 l 108 772 m 163 819 l 496 819 l 496 899 l 163 899 l 163 819 z "},"h":{"ha":671,"x_min":76,"x_max":605,"o":"m 76 0 l 76 1041 l 273 1041 l 273 737 l 286 750 l 462 750 l 605 607 l 605 0 l 408 0 l 408 511 l 366 554 l 328 554 l 273 498 l 273 0 l 76 0 m 131 53 l 220 53 l 220 519 l 310 608 l 395 608 l 463 542 l 463 53 l 552 53 l 552 585 l 439 698 l 294 698 l 220 625 l 220 989 l 131 989 l 131 53 z "},"ħ":{"ha":807,"x_min":12,"x_max":728,"o":"m 89 0 l 89 816 l 12 816 l 12 987 l 89 987 l 89 1042 l 285 1042 l 285 987 l 474 987 l 474 816 l 285 816 l 285 737 l 299 750 l 586 750 l 728 607 l 728 0 l 533 0 l 533 511 l 490 554 l 342 554 l 285 498 l 285 0 l 89 0 m 142 47 l 231 47 l 231 515 l 324 609 l 518 609 l 585 541 l 585 47 l 674 47 l 674 584 l 561 699 l 306 699 l 231 620 l 231 864 l 423 864 l 423 940 l 231 940 l 231 997 l 142 997 l 142 940 l 54 940 l 54 864 l 142 864 l 142 47 z "},"ḫ":{"ha":671,"x_min":76,"x_max":605,"o":"m 76 0 l 76 1041 l 273 1041 l 273 737 l 286 750 l 462 750 l 605 607 l 605 0 l 408 0 l 408 511 l 366 554 l 328 554 l 273 498 l 273 0 l 76 0 m 131 53 l 220 53 l 220 519 l 310 608 l 395 608 l 463 542 l 463 53 l 552 53 l 552 585 l 439 698 l 294 698 l 220 625 l 220 989 l 131 989 l 131 53 m 258 -236 l 181 -158 l 181 -50 l 314 -50 l 314 -103 l 368 -103 l 368 -50 l 501 -50 l 501 -158 l 424 -236 l 258 -236 m 281 -199 l 402 -199 l 462 -137 l 462 -88 l 405 -88 l 405 -117 l 381 -142 l 302 -142 l 278 -117 l 278 -88 l 221 -88 l 221 -137 l 281 -199 z "},"ĥ":{"ha":671,"x_min":76,"x_max":605,"o":"m 76 0 l 76 1041 l 273 1041 l 273 737 l 286 750 l 462 750 l 605 607 l 605 0 l 408 0 l 408 511 l 366 554 l 328 554 l 273 498 l 273 0 l 76 0 m 131 53 l 220 53 l 220 519 l 310 608 l 395 608 l 463 542 l 463 53 l 552 53 l 552 585 l 439 698 l 294 698 l 220 625 l 220 989 l 131 989 l 131 53 m 253 1261 l 428 1261 l 584 1064 l 392 1064 l 341 1139 l 290 1064 l 98 1064 l 253 1261 m 280 1224 l 188 1105 l 269 1105 l 324 1183 l 357 1183 l 411 1105 l 493 1105 l 401 1224 l 280 1224 z "},"ḥ":{"ha":671,"x_min":76,"x_max":605,"o":"m 76 0 l 76 1041 l 273 1041 l 273 737 l 286 750 l 462 750 l 605 607 l 605 0 l 408 0 l 408 511 l 366 554 l 328 554 l 273 498 l 273 0 l 76 0 m 131 53 l 220 53 l 220 519 l 310 608 l 395 608 l 463 542 l 463 53 l 552 53 l 552 585 l 439 698 l 294 698 l 220 625 l 220 989 l 131 989 l 131 53 m 267 -188 l 267 -42 l 415 -42 l 415 -188 l 267 -188 m 310 -147 l 371 -147 l 371 -84 l 310 -84 l 310 -147 z "},"i":{"ha":505,"x_min":66,"x_max":484,"o":"m 149 859 l 149 1042 l 373 1042 l 373 859 l 149 859 m 210 908 l 313 908 l 313 998 l 210 998 l 210 908 m 66 0 l 66 197 l 177 197 l 177 553 l 66 553 l 66 750 l 373 750 l 373 197 l 484 197 l 484 0 l 66 0 m 119 53 l 431 53 l 431 142 l 316 142 l 316 698 l 119 698 l 119 608 l 227 608 l 227 142 l 119 142 l 119 53 z "},"ı":{"ha":667,"x_min":69,"x_max":598,"o":"m 69 0 l 69 197 l 235 197 l 235 553 l 69 553 l 69 750 l 431 750 l 431 197 l 598 197 l 598 0 l 69 0 m 119 53 l 549 53 l 549 142 l 374 142 l 374 698 l 119 698 l 119 608 l 285 608 l 285 142 l 119 142 l 119 53 z "},"í":{"ha":667,"x_min":69,"x_max":617,"o":"m 69 0 l 69 197 l 235 197 l 235 553 l 69 553 l 69 750 l 431 750 l 431 197 l 598 197 l 598 0 l 69 0 m 119 53 l 549 53 l 549 142 l 374 142 l 374 698 l 119 698 l 119 608 l 285 608 l 285 142 l 119 142 l 119 53 m 248 772 l 417 956 l 617 956 l 419 772 l 248 772 m 333 806 l 403 806 l 523 922 l 441 922 l 333 806 z "},"ĭ":{"ha":667,"x_min":69,"x_max":598,"o":"m 69 0 l 69 197 l 235 197 l 235 553 l 69 553 l 69 750 l 431 750 l 431 197 l 598 197 l 598 0 l 69 0 m 119 53 l 549 53 l 549 142 l 374 142 l 374 698 l 119 698 l 119 608 l 285 608 l 285 142 l 119 142 l 119 53 m 251 772 l 173 850 l 173 958 l 306 958 l 306 906 l 360 906 l 360 958 l 494 958 l 494 850 l 416 772 l 251 772 m 273 809 l 394 809 l 454 871 l 454 920 l 397 920 l 397 892 l 373 866 l 294 866 l 270 892 l 270 920 l 213 920 l 213 871 l 273 809 z "},"ǐ":{"ha":667,"x_min":69,"x_max":598,"o":"m 69 0 l 69 197 l 235 197 l 235 553 l 69 553 l 69 750 l 431 750 l 431 197 l 598 197 l 598 0 l 69 0 m 119 53 l 549 53 l 549 142 l 374 142 l 374 698 l 119 698 l 119 608 l 285 608 l 285 142 l 119 142 l 119 53 m 246 772 l 90 969 l 283 969 l 333 894 l 384 969 l 576 969 l 421 772 l 246 772 m 272 809 l 393 809 l 485 928 l 403 928 l 349 851 l 316 851 l 262 928 l 181 928 l 272 809 z "},"î":{"ha":667,"x_min":69,"x_max":598,"o":"m 69 0 l 69 197 l 235 197 l 235 553 l 69 553 l 69 750 l 431 750 l 431 197 l 598 197 l 598 0 l 69 0 m 119 53 l 549 53 l 549 142 l 374 142 l 374 698 l 119 698 l 119 608 l 285 608 l 285 142 l 119 142 l 119 53 m 246 969 l 421 969 l 576 772 l 384 772 l 333 847 l 283 772 l 90 772 l 246 969 m 272 933 l 181 813 l 262 813 l 316 891 l 349 891 l 403 813 l 485 813 l 393 933 l 272 933 z "},"ȉ":{"ha":667,"x_min":-80,"x_max":598,"o":"m 69 0 l 69 197 l 235 197 l 235 553 l 69 553 l 69 750 l 431 750 l 431 197 l 598 197 l 598 0 l 69 0 m 119 53 l 549 53 l 549 142 l 374 142 l 374 698 l 119 698 l 119 608 l 285 608 l 285 142 l 119 142 l 119 53 m 561 772 l 390 772 l 192 956 l 392 956 l 561 772 m 477 806 l 369 922 l 287 922 l 407 806 l 477 806 m 289 772 l 117 772 l -80 956 l 119 956 l 289 772 m 205 806 l 97 922 l 15 922 l 135 806 l 205 806 z "},"ï":{"ha":667,"x_min":69,"x_max":598,"o":"m 69 0 l 69 197 l 235 197 l 235 553 l 69 553 l 69 750 l 431 750 l 431 197 l 598 197 l 598 0 l 69 0 m 119 53 l 549 53 l 549 142 l 374 142 l 374 698 l 119 698 l 119 608 l 285 608 l 285 142 l 119 142 l 119 53 m 405 786 l 405 932 l 552 932 l 552 786 l 405 786 m 116 786 l 116 932 l 263 932 l 263 786 l 116 786 m 158 827 l 219 827 l 219 890 l 158 890 l 158 827 m 448 827 l 509 827 l 509 890 l 448 890 l 448 827 z "},"ḯ":{"ha":667,"x_min":69,"x_max":617,"o":"m 69 0 l 69 197 l 235 197 l 235 553 l 69 553 l 69 750 l 431 750 l 431 197 l 598 197 l 598 0 l 69 0 m 119 53 l 549 53 l 549 142 l 374 142 l 374 698 l 119 698 l 119 608 l 285 608 l 285 142 l 119 142 l 119 53 m 405 786 l 405 932 l 552 932 l 552 786 l 405 786 m 116 786 l 116 932 l 263 932 l 263 786 l 116 786 m 158 827 l 219 827 l 219 890 l 158 890 l 158 827 m 448 827 l 509 827 l 509 890 l 448 890 l 448 827 m 248 954 l 417 1138 l 617 1138 l 419 954 l 248 954 m 333 988 l 403 988 l 523 1103 l 441 1103 l 333 988 z "},"ị":{"ha":505,"x_min":66,"x_max":484,"o":"m 149 859 l 149 1042 l 373 1042 l 373 859 l 149 859 m 210 908 l 313 908 l 313 998 l 210 998 l 210 908 m 66 0 l 66 197 l 177 197 l 177 553 l 66 553 l 66 750 l 373 750 l 373 197 l 484 197 l 484 0 l 66 0 m 119 53 l 431 53 l 431 142 l 316 142 l 316 698 l 119 698 l 119 608 l 227 608 l 227 142 l 119 142 l 119 53 m 201 -188 l 201 -42 l 349 -42 l 349 -188 l 201 -188 m 244 -147 l 305 -147 l 305 -84 l 244 -84 l 244 -147 z "},"ì":{"ha":667,"x_min":65,"x_max":598,"o":"m 69 0 l 69 197 l 235 197 l 235 553 l 69 553 l 69 750 l 431 750 l 431 197 l 598 197 l 598 0 l 69 0 m 119 53 l 549 53 l 549 142 l 374 142 l 374 698 l 119 698 l 119 608 l 285 608 l 285 142 l 119 142 l 119 53 m 434 772 l 263 772 l 65 956 l 265 956 l 434 772 m 350 806 l 242 922 l 160 922 l 280 806 l 350 806 z "},"ỉ":{"ha":667,"x_min":69,"x_max":598,"o":"m 69 0 l 69 197 l 235 197 l 235 553 l 69 553 l 69 750 l 431 750 l 431 197 l 598 197 l 598 0 l 69 0 m 119 53 l 549 53 l 549 142 l 374 142 l 374 698 l 119 698 l 119 608 l 285 608 l 285 142 l 119 142 l 119 53 m 167 1029 l 386 1029 l 499 898 l 386 768 l 217 768 l 217 877 l 310 877 l 331 898 l 310 920 l 167 920 l 167 1029 m 206 997 l 206 952 l 331 952 l 379 898 l 331 845 l 256 845 l 256 800 l 364 800 l 452 898 l 364 997 l 206 997 z "},"ȋ":{"ha":667,"x_min":69,"x_max":598,"o":"m 69 0 l 69 197 l 235 197 l 235 553 l 69 553 l 69 750 l 431 750 l 431 197 l 598 197 l 598 0 l 69 0 m 119 53 l 549 53 l 549 142 l 374 142 l 374 698 l 119 698 l 119 608 l 285 608 l 285 142 l 119 142 l 119 53 m 416 958 l 494 880 l 494 772 l 360 772 l 360 824 l 306 824 l 306 772 l 173 772 l 173 880 l 251 958 l 416 958 m 394 921 l 272 921 l 213 859 l 213 810 l 269 810 l 269 838 l 294 865 l 372 865 l 397 838 l 397 810 l 453 810 l 453 859 l 394 921 z "},"ī":{"ha":667,"x_min":69,"x_max":598,"o":"m 69 0 l 69 197 l 235 197 l 235 553 l 69 553 l 69 750 l 431 750 l 431 197 l 598 197 l 598 0 l 69 0 m 119 53 l 549 53 l 549 142 l 374 142 l 374 698 l 119 698 l 119 608 l 285 608 l 285 142 l 119 142 l 119 53 m 114 772 l 114 949 l 553 949 l 553 772 l 114 772 m 169 819 l 502 819 l 502 899 l 169 899 l 169 819 z "},"į":{"ha":667,"x_min":69,"x_max":598,"o":"m 240 -256 l 126 -125 l 239 0 l 69 0 l 69 197 l 235 197 l 235 553 l 69 553 l 69 750 l 431 750 l 431 197 l 598 197 l 598 0 l 392 0 l 267 -125 l 288 -147 l 451 -147 l 451 -256 l 240 -256 m 253 -224 l 419 -224 l 419 -179 l 272 -179 l 222 -125 l 394 53 l 549 53 l 549 142 l 374 142 l 374 698 l 119 698 l 119 608 l 285 608 l 285 142 l 119 142 l 119 53 l 331 53 l 166 -125 l 253 -224 m 208 859 l 208 1042 l 431 1042 l 431 859 l 208 859 m 268 908 l 371 908 l 371 998 l 268 998 l 268 908 z "},"ĩ":{"ha":667,"x_min":69,"x_max":598,"o":"m 69 0 l 69 197 l 235 197 l 235 553 l 69 553 l 69 750 l 431 750 l 431 197 l 598 197 l 598 0 l 69 0 m 119 53 l 549 53 l 549 142 l 374 142 l 374 698 l 119 698 l 119 608 l 285 608 l 285 142 l 119 142 l 119 53 m 140 772 l 140 867 l 217 944 l 341 944 l 380 906 l 392 906 l 392 944 l 526 944 l 526 850 l 448 772 l 324 772 l 285 811 l 273 811 l 273 772 l 140 772 m 180 806 l 237 806 l 237 826 l 261 852 l 300 852 l 344 809 l 428 809 l 488 871 l 488 911 l 431 911 l 431 892 l 406 866 l 365 866 l 322 908 l 240 908 l 180 847 l 180 806 z "},"j":{"ha":426,"x_min":14,"x_max":350,"o":"m 14 -278 l 14 -82 l 98 -82 l 153 -26 l 153 554 l 14 554 l 14 750 l 350 750 l 350 -135 l 207 -278 l 14 -278 m 69 -222 l 181 -222 l 297 -104 l 297 697 l 66 697 l 66 608 l 208 608 l 208 -55 l 131 -133 l 69 -133 l 69 -222 m 153 858 l 153 1042 l 350 1042 l 350 858 l 153 858 m 208 908 l 297 908 l 297 998 l 208 998 l 208 908 z "},"ȷ":{"ha":469,"x_min":7,"x_max":385,"o":"m 7 -278 l 7 -82 l 133 -82 l 188 -26 l 188 554 l 7 554 l 7 750 l 385 750 l 385 -135 l 242 -278 l 7 -278 m 63 -222 l 216 -222 l 331 -104 l 331 697 l 59 697 l 59 608 l 242 608 l 242 -55 l 166 -133 l 63 -133 l 63 -222 z "},"ĵ":{"ha":469,"x_min":-8,"x_max":478,"o":"m 7 -278 l 7 -82 l 133 -82 l 188 -26 l 188 554 l 7 554 l 7 750 l 385 750 l 385 -135 l 242 -278 l 7 -278 m 63 -222 l 216 -222 l 331 -104 l 331 697 l 59 697 l 59 608 l 242 608 l 242 -55 l 166 -133 l 63 -133 l 63 -222 m 147 969 l 322 969 l 478 772 l 285 772 l 235 847 l 184 772 l -8 772 l 147 969 m 174 933 l 82 813 l 163 813 l 217 891 l 251 891 l 305 813 l 387 813 l 294 933 l 174 933 z "},"k":{"ha":640,"x_min":76,"x_max":564,"o":"m 76 0 l 76 972 l 273 972 l 273 471 l 285 471 l 367 553 l 367 750 l 564 750 l 564 471 l 466 374 l 564 274 l 564 0 l 367 0 l 367 192 l 285 274 l 273 274 l 273 0 l 76 0 m 130 54 l 219 54 l 219 330 l 311 330 l 421 219 l 421 54 l 510 54 l 510 255 l 394 374 l 510 490 l 510 699 l 421 699 l 421 526 l 313 419 l 219 419 l 219 920 l 130 920 l 130 54 z "},"ķ":{"ha":640,"x_min":76,"x_max":564,"o":"m 76 0 l 76 972 l 273 972 l 273 471 l 285 471 l 367 553 l 367 750 l 564 750 l 564 471 l 466 374 l 564 274 l 564 0 l 367 0 l 367 192 l 285 274 l 273 274 l 273 0 l 76 0 m 130 54 l 219 54 l 219 330 l 311 330 l 421 219 l 421 54 l 510 54 l 510 255 l 394 374 l 510 490 l 510 699 l 421 699 l 421 526 l 313 419 l 219 419 l 219 920 l 130 920 l 130 54 m 141 -368 l 220 -50 l 408 -50 l 298 -368 l 141 -368 m 200 -322 l 264 -322 l 341 -106 l 255 -106 l 200 -322 z "},"ĸ":{"ha":738,"x_min":76,"x_max":661,"o":"m 76 0 l 76 750 l 273 750 l 273 471 l 382 471 l 465 553 l 465 750 l 661 750 l 661 471 l 563 374 l 661 274 l 661 0 l 465 0 l 465 192 l 382 274 l 273 274 l 273 0 l 76 0 m 130 54 l 219 54 l 219 330 l 408 330 l 518 219 l 518 54 l 607 54 l 607 255 l 491 374 l 607 490 l 607 699 l 518 699 l 518 526 l 410 419 l 219 419 l 219 698 l 130 698 l 130 54 z "},"l":{"ha":446,"x_min":21,"x_max":425,"o":"m 21 0 l 21 197 l 125 197 l 125 845 l 21 845 l 21 1042 l 321 1042 l 321 197 l 425 197 l 425 0 l 21 0 m 74 53 l 372 53 l 372 142 l 266 142 l 266 990 l 74 990 l 74 900 l 177 900 l 177 142 l 74 142 l 74 53 z "}}}
